# MagicaVoxel @ Ephtracy

# group
o 

# material
mtllib SimpleGround.mtl
usemtl palette

# normals
vn -1 0 0
vn 1 0 0
vn 0 0 1
vn 0 0 -1
vn 0 -1 0
vn 0 1 0

# texcoords
vt 0.880859 0.5
vt 0.884766 0.5
vt 0.888672 0.5
vt 0.892578 0.5

# verts
v -0.8 0 0.8
v -0.8 0 -0.8
v -0.8 0.3 0.4
v -0.8 0.3 0.3
v -0.8 0.3 -0.5
v -0.8 0.3 -0.7
v -0.8 0.4 0.8
v -0.8 0.4 0.4
v -0.8 0.4 0.3
v -0.8 0.4 -0.5
v -0.8 0.4 -0.7
v -0.8 0.4 -0.8
v 0.8 0 0.8
v 0.8 0 -0.8
v 0.8 0.4 0.8
v 0.8 0.4 -0.8
v -0.8 0 0.8
v -0.8 0.4 0.8
v -0.5 0 0.8
v -0.5 0.3 0.8
v -0.5 0.4 0.8
v -0.4 0 0.8
v -0.4 0.3 0.8
v -0.4 0.4 0.8
v -0.3 0.3 0.8
v -0.3 0.4 0.8
v -0.1 0 0.8
v -0.1 0.2 0.8
v -0.1 0.4 0.8
v 5.96046e-08 0 0.8
v 5.96046e-08 0.2 0.8
v 5.96046e-08 0.4 0.8
v 0.3 0 0.8
v 0.3 0.3 0.8
v 0.3 0.4 0.8
v 0.4 0 0.8
v 0.4 0.3 0.8
v 0.4 0.4 0.8
v 0.5 0.3 0.8
v 0.5 0.4 0.8
v 0.7 0 0.8
v 0.7 0.4 0.8
v 0.8 0 0.8
v 0.8 0.4 0.8
v -0.8 0 -0.8
v -0.8 0.4 -0.8
v -0.5 0 -0.8
v -0.5 0.4 -0.8
v -0.4 0 -0.8
v -0.4 0.4 -0.8
v -0.3 0.3 -0.8
v -0.3 0.4 -0.8
v -0.2 0.3 -0.8
v -0.2 0.4 -0.8
v -0.1 0 -0.8
v -0.1 0.2 -0.8
v -0.1 0.4 -0.8
v 5.96046e-08 0 -0.8
v 5.96046e-08 0.2 -0.8
v 5.96046e-08 0.4 -0.8
v 0.2 0.3 -0.8
v 0.2 0.4 -0.8
v 0.3 0 -0.8
v 0.3 0.3 -0.8
v 0.3 0.4 -0.8
v 0.4 0 -0.8
v 0.4 0.4 -0.8
v 0.7 0 -0.8
v 0.7 0.4 -0.8
v 0.8 0 -0.8
v 0.8 0.4 -0.8
v -0.8 0 0.8
v -0.5 0 0.8
v -0.4 0 0.8
v -0.1 0 0.8
v 5.96046e-08 0 0.8
v 0.3 0 0.8
v 0.4 0 0.8
v 0.7 0 0.8
v 0.8 0 0.8
v -0.8 0 -0.8
v -0.5 0 -0.8
v -0.4 0 -0.8
v -0.1 0 -0.8
v 5.96046e-08 0 -0.8
v 0.3 0 -0.8
v 0.4 0 -0.8
v 0.7 0 -0.8
v 0.8 0 -0.8
v -0.8 0.4 0.8
v -0.5 0.4 0.8
v -0.4 0.4 0.8
v -0.3 0.4 0.8
v -0.1 0.4 0.8
v 5.96046e-08 0.4 0.8
v 0.3 0.4 0.8
v 0.4 0.4 0.8
v 0.5 0.4 0.8
v 0.7 0.4 0.8
v 0.8 0.4 0.8
v -0.4 0.4 0.7
v -0.3 0.4 0.7
v 5.96046e-08 0.4 0.7
v 0.2 0.4 0.7
v 0.5 0.4 0.7
v 0.6 0.4 0.7
v -0.3 0.4 0.6
v -0.2 0.4 0.6
v 5.96046e-08 0.4 0.6
v 0.1 0.4 0.6
v 0.4 0.4 0.6
v 0.5 0.4 0.6
v 0.6 0.4 0.6
v -0.4 0.4 0.5
v -0.3 0.4 0.5
v 0.1 0.4 0.5
v 0.2 0.4 0.5
v -0.8 0.4 0.4
v -0.7 0.4 0.4
v -0.6 0.4 0.4
v -0.4 0.4 0.4
v -0.3 0.4 0.4
v 0.5 0.4 0.4
v 0.6 0.4 0.4
v -0.8 0.4 0.3
v -0.7 0.4 0.3
v -0.3 0.4 0.3
v -0.2 0.4 0.3
v 0.2 0.4 0.3
v 0.3 0.4 0.3
v 0.4 0.4 0.3
v 0.5 0.4 0.3
v -0.7 0.4 0.2
v -0.6 0.4 0.2
v 5.96046e-08 0.4 0.2
v 0.1 0.4 0.2
v 0.4 0.4 0.2
v 0.5 0.4 0.2
v 0.2 0.4 0.1
v 0.3 0.4 0.1
v 0.4 0.4 0.1
v 0.5 0.4 0.1
v 0.6 0.4 0.1
v 0.7 0.4 0.1
v -0.7 0.4 -5.96046e-08
v -0.6 0.4 -5.96046e-08
v -0.5 0.4 -5.96046e-08
v 0.1 0.4 -5.96046e-08
v 0.2 0.4 -5.96046e-08
v 0.5 0.4 -5.96046e-08
v 0.6 0.4 -5.96046e-08
v 0.7 0.4 -5.96046e-08
v -0.3 0.4 -0.1
v -0.2 0.4 -0.1
v 0.1 0.4 -0.1
v 0.2 0.4 -0.1
v -0.6 0.4 -0.2
v -0.5 0.4 -0.2
v -0.3 0.4 -0.2
v -0.2 0.4 -0.2
v -0.1 0.4 -0.2
v 5.96046e-08 0.4 -0.2
v 0.1 0.4 -0.2
v 0.2 0.4 -0.2
v -0.3 0.4 -0.3
v -0.2 0.4 -0.3
v -0.1 0.4 -0.3
v 5.96046e-08 0.4 -0.3
v 0.1 0.4 -0.3
v 0.4 0.4 -0.3
v 0.5 0.4 -0.3
v 0.6 0.4 -0.3
v 0.7 0.4 -0.3
v -0.7 0.4 -0.4
v -0.6 0.4 -0.4
v 5.96046e-08 0.4 -0.4
v 0.2 0.4 -0.4
v 0.4 0.4 -0.4
v 0.5 0.4 -0.4
v 0.6 0.4 -0.4
v -0.8 0.4 -0.5
v -0.7 0.4 -0.5
v -0.3 0.4 -0.5
v -0.2 0.4 -0.5
v 0.5 0.4 -0.5
v 0.6 0.4 -0.5
v -0.6 0.4 -0.6
v -0.5 0.4 -0.6
v -0.3 0.4 -0.6
v -0.2 0.4 -0.6
v 0.2 0.4 -0.6
v 0.3 0.4 -0.6
v 0.6 0.4 -0.6
v 0.7 0.4 -0.6
v -0.8 0.4 -0.7
v -0.5 0.4 -0.7
v -0.4 0.4 -0.7
v 0.3 0.4 -0.7
v 0.4 0.4 -0.7
v -0.8 0.4 -0.8
v -0.5 0.4 -0.8
v -0.4 0.4 -0.8
v -0.3 0.4 -0.8
v -0.2 0.4 -0.8
v -0.1 0.4 -0.8
v 5.96046e-08 0.4 -0.8
v 0.2 0.4 -0.8
v 0.3 0.4 -0.8
v 0.4 0.4 -0.8
v 0.7 0.4 -0.8
v 0.8 0.4 -0.8

# faces
f 3/1/1 2/1/1 1/1/1
f 4/1/1 2/1/1 3/1/1
f 5/1/1 2/1/1 4/1/1
f 6/1/1 2/1/1 5/1/1
f 7/1/1 3/1/1 1/1/1
f 8/4/1 4/4/1 3/4/1
f 8/1/1 3/1/1 7/1/1
f 9/1/1 5/1/1 4/1/1
f 9/4/1 4/4/1 8/4/1
f 10/2/1 6/2/1 5/2/1
f 10/1/1 5/1/1 9/1/1
f 11/1/1 2/1/1 6/1/1
f 11/2/1 6/2/1 10/2/1
f 12/1/1 2/1/1 11/1/1
f 13/3/2 14/3/2 15/3/2
f 15/3/2 14/3/2 16/3/2
f 19/1/3 18/1/3 17/1/3
f 20/1/3 18/1/3 19/1/3
f 21/1/3 18/1/3 20/1/3
f 22/4/3 20/4/3 19/4/3
f 23/3/3 21/3/3 20/3/3
f 23/4/3 20/4/3 22/4/3
f 24/3/3 21/3/3 23/3/3
f 25/1/3 23/1/3 22/1/3
f 25/4/3 24/4/3 23/4/3
f 26/4/3 24/4/3 25/4/3
f 27/1/3 25/1/3 22/1/3
f 27/1/3 26/1/3 25/1/3
f 28/1/3 26/1/3 27/1/3
f 29/1/3 26/1/3 28/1/3
f 30/4/3 28/4/3 27/4/3
f 31/3/3 29/3/3 28/3/3
f 31/4/3 28/4/3 30/4/3
f 32/3/3 29/3/3 31/3/3
f 33/1/3 31/1/3 30/1/3
f 33/1/3 32/1/3 31/1/3
f 34/1/3 32/1/3 33/1/3
f 35/1/3 32/1/3 34/1/3
f 36/4/3 34/4/3 33/4/3
f 37/3/3 35/3/3 34/3/3
f 37/4/3 34/4/3 36/4/3
f 38/3/3 35/3/3 37/3/3
f 39/1/3 37/1/3 36/1/3
f 39/2/3 38/2/3 37/2/3
f 40/2/3 38/2/3 39/2/3
f 41/1/3 39/1/3 36/1/3
f 41/1/3 40/1/3 39/1/3
f 42/1/3 40/1/3 41/1/3
f 43/3/3 42/3/3 41/3/3
f 44/3/3 42/3/3 43/3/3
f 45/1/4 46/1/4 47/1/4
f 47/1/4 46/1/4 48/1/4
f 47/4/4 48/4/4 49/4/4
f 49/4/4 48/4/4 50/4/4
f 49/1/4 50/1/4 51/1/4
f 51/1/4 50/1/4 52/1/4
f 49/1/4 51/1/4 53/1/4
f 51/2/4 52/2/4 53/2/4
f 53/2/4 52/2/4 54/2/4
f 49/1/4 53/1/4 55/1/4
f 53/1/4 54/1/4 55/1/4
f 55/1/4 54/1/4 56/1/4
f 56/1/4 54/1/4 57/1/4
f 55/4/4 56/4/4 58/4/4
f 56/3/4 57/3/4 59/3/4
f 58/4/4 56/4/4 59/4/4
f 59/3/4 57/3/4 60/3/4
f 58/1/4 59/1/4 61/1/4
f 59/1/4 60/1/4 61/1/4
f 61/1/4 60/1/4 62/1/4
f 58/1/4 61/1/4 63/1/4
f 61/2/4 62/2/4 64/2/4
f 63/1/4 61/1/4 64/1/4
f 64/2/4 62/2/4 65/2/4
f 63/4/4 64/4/4 66/4/4
f 64/4/4 65/4/4 66/4/4
f 66/4/4 65/4/4 67/4/4
f 66/1/4 67/1/4 68/1/4
f 68/1/4 67/1/4 69/1/4
f 68/3/4 69/3/4 70/3/4
f 70/3/4 69/3/4 71/3/4
f 81/1/5 73/1/5 72/1/5
f 82/4/5 74/4/5 73/4/5
f 82/1/5 73/1/5 81/1/5
f 83/1/5 75/1/5 74/1/5
f 83/4/5 74/4/5 82/4/5
f 84/4/5 76/4/5 75/4/5
f 84/1/5 75/1/5 83/1/5
f 85/1/5 77/1/5 76/1/5
f 85/4/5 76/4/5 84/4/5
f 86/4/5 78/4/5 77/4/5
f 86/1/5 77/1/5 85/1/5
f 87/1/5 79/1/5 78/1/5
f 87/4/5 78/4/5 86/4/5
f 88/3/5 80/3/5 79/3/5
f 88/1/5 79/1/5 87/1/5
f 89/3/5 80/3/5 88/3/5
f 91/3/6 92/3/6 101/3/6
f 92/4/6 93/4/6 101/4/6
f 93/1/6 94/1/6 102/1/6
f 101/4/6 93/4/6 102/4/6
f 94/3/6 95/3/6 103/3/6
f 95/1/6 96/1/6 103/1/6
f 103/1/6 96/1/6 104/1/6
f 98/1/6 99/1/6 105/1/6
f 97/2/6 98/2/6 105/2/6
f 105/1/6 99/1/6 106/1/6
f 102/1/6 94/1/6 107/1/6
f 101/2/6 102/2/6 107/2/6
f 107/1/6 94/1/6 108/1/6
f 103/4/6 104/4/6 109/4/6
f 94/3/6 103/3/6 109/3/6
f 109/4/6 104/4/6 110/4/6
f 96/3/6 97/3/6 111/3/6
f 97/2/6 105/2/6 111/2/6
f 105/4/6 106/4/6 112/4/6
f 111/2/6 105/2/6 112/2/6
f 106/1/6 99/1/6 113/1/6
f 112/4/6 106/4/6 113/4/6
f 91/3/6 101/3/6 114/3/6
f 107/2/6 108/2/6 114/2/6
f 101/2/6 107/2/6 114/2/6
f 114/2/6 108/2/6 115/2/6
f 110/4/6 104/4/6 116/4/6
f 109/2/6 110/2/6 116/2/6
f 104/1/6 96/1/6 117/1/6
f 116/4/6 104/4/6 117/4/6
f 90/1/6 91/1/6 118/1/6
f 118/1/6 91/1/6 119/1/6
f 119/1/6 91/1/6 120/1/6
f 114/4/6 115/4/6 121/4/6
f 91/3/6 114/3/6 121/3/6
f 115/2/6 108/2/6 122/2/6
f 121/4/6 115/4/6 122/4/6
f 111/1/6 112/1/6 123/1/6
f 112/1/6 113/1/6 123/1/6
f 113/1/6 99/1/6 124/1/6
f 123/1/6 113/1/6 124/1/6
f 118/4/6 119/4/6 125/4/6
f 119/2/6 120/2/6 126/2/6
f 125/4/6 119/4/6 126/4/6
f 122/2/6 108/2/6 127/2/6
f 121/1/6 122/1/6 127/1/6
f 108/1/6 94/1/6 128/1/6
f 127/2/6 108/2/6 128/2/6
f 117/1/6 96/1/6 129/1/6
f 116/1/6 117/1/6 129/1/6
f 96/3/6 111/3/6 130/3/6
f 129/1/6 96/1/6 130/1/6
f 111/1/6 123/1/6 131/1/6
f 130/3/6 111/3/6 131/3/6
f 123/2/6 124/2/6 132/2/6
f 131/1/6 123/1/6 132/1/6
f 126/2/6 120/2/6 133/2/6
f 125/1/6 126/1/6 133/1/6
f 120/1/6 91/1/6 134/1/6
f 133/2/6 120/2/6 134/2/6
f 109/2/6 116/2/6 135/2/6
f 94/3/6 109/3/6 135/3/6
f 116/1/6 129/1/6 136/1/6
f 135/2/6 116/2/6 136/2/6
f 131/4/6 132/4/6 137/4/6
f 130/3/6 131/3/6 137/3/6
f 132/2/6 124/2/6 138/2/6
f 137/4/6 132/4/6 138/4/6
f 129/2/6 130/2/6 139/2/6
f 136/1/6 129/1/6 139/1/6
f 135/1/6 136/1/6 139/1/6
f 130/3/6 137/3/6 140/3/6
f 139/2/6 130/2/6 140/2/6
f 137/2/6 138/2/6 141/2/6
f 140/3/6 137/3/6 141/3/6
f 138/2/6 124/2/6 142/2/6
f 141/2/6 138/2/6 142/2/6
f 124/1/6 99/1/6 143/1/6
f 142/2/6 124/2/6 143/2/6
f 99/3/6 100/3/6 144/3/6
f 143/1/6 99/1/6 144/1/6
f 125/1/6 133/1/6 145/1/6
f 133/4/6 134/4/6 145/4/6
f 134/1/6 91/1/6 146/1/6
f 145/4/6 134/4/6 146/4/6
f 91/3/6 121/3/6 147/3/6
f 146/1/6 91/1/6 147/1/6
f 135/1/6 139/1/6 148/1/6
f 139/1/6 140/1/6 148/1/6
f 148/1/6 140/1/6 149/1/6
f 142/2/6 143/2/6 150/2/6
f 141/1/6 142/1/6 150/1/6
f 143/4/6 144/4/6 151/4/6
f 150/2/6 143/2/6 151/2/6
f 144/3/6 100/3/6 152/3/6
f 151/4/6 144/4/6 152/4/6
f 121/1/6 127/1/6 153/1/6
f 127/1/6 128/1/6 153/1/6
f 128/1/6 94/1/6 154/1/6
f 153/1/6 128/1/6 154/1/6
f 148/2/6 149/2/6 155/2/6
f 135/1/6 148/1/6 155/1/6
f 149/1/6 140/1/6 156/1/6
f 155/2/6 149/2/6 156/2/6
f 145/1/6 146/1/6 157/1/6
f 146/2/6 147/2/6 157/2/6
f 147/3/6 121/3/6 158/3/6
f 157/2/6 147/2/6 158/2/6
f 121/1/6 153/1/6 159/1/6
f 153/2/6 154/2/6 159/2/6
f 154/1/6 94/1/6 160/1/6
f 159/2/6 154/2/6 160/2/6
f 94/3/6 135/3/6 161/3/6
f 160/1/6 94/1/6 161/1/6
f 135/1/6 155/1/6 162/1/6
f 161/3/6 135/3/6 162/3/6
f 155/4/6 156/4/6 163/4/6
f 162/1/6 155/1/6 163/1/6
f 156/1/6 140/1/6 164/1/6
f 163/4/6 156/4/6 164/4/6
f 159/4/6 160/4/6 165/4/6
f 121/1/6 159/1/6 165/1/6
f 160/2/6 161/2/6 166/2/6
f 165/4/6 160/4/6 166/4/6
f 161/3/6 162/3/6 167/3/6
f 166/2/6 161/2/6 167/2/6
f 162/4/6 163/4/6 168/4/6
f 167/3/6 162/3/6 168/3/6
f 163/2/6 164/2/6 169/2/6
f 168/4/6 163/4/6 169/4/6
f 140/3/6 141/3/6 170/3/6
f 150/1/6 151/1/6 170/1/6
f 141/1/6 150/1/6 170/1/6
f 151/1/6 152/1/6 170/1/6
f 170/1/6 152/1/6 171/1/6
f 171/1/6 152/1/6 172/1/6
f 152/3/6 100/3/6 173/3/6
f 172/1/6 152/1/6 173/1/6
f 125/1/6 145/1/6 174/1/6
f 145/1/6 157/1/6 174/1/6
f 157/1/6 158/1/6 174/1/6
f 174/1/6 158/1/6 175/1/6
f 168/2/6 169/2/6 176/2/6
f 167/3/6 168/3/6 176/3/6
f 169/2/6 164/2/6 177/2/6
f 176/2/6 169/2/6 177/2/6
f 164/1/6 140/1/6 177/1/6
f 170/2/6 171/2/6 178/2/6
f 140/3/6 170/3/6 178/3/6
f 171/1/6 172/1/6 179/1/6
f 178/2/6 171/2/6 179/2/6
f 172/2/6 173/2/6 180/2/6
f 179/1/6 172/1/6 180/1/6
f 125/1/6 174/1/6 181/1/6
f 174/2/6 175/2/6 182/2/6
f 181/1/6 174/1/6 182/1/6
f 121/1/6 165/1/6 183/1/6
f 166/1/6 167/1/6 183/1/6
f 165/1/6 166/1/6 183/1/6
f 183/1/6 167/1/6 184/1/6
f 178/1/6 179/1/6 185/1/6
f 179/4/6 180/4/6 185/4/6
f 180/2/6 173/2/6 186/2/6
f 185/4/6 180/4/6 186/4/6
f 182/2/6 175/2/6 187/2/6
f 181/2/6 182/2/6 187/2/6
f 175/1/6 158/1/6 187/1/6
f 158/3/6 121/3/6 188/3/6
f 187/1/6 158/1/6 188/1/6
f 183/4/6 184/4/6 189/4/6
f 121/1/6 183/1/6 189/1/6
f 184/1/6 167/1/6 190/1/6
f 189/4/6 184/4/6 190/4/6
f 177/1/6 140/1/6 191/1/6
f 176/1/6 177/1/6 191/1/6
f 140/3/6 178/3/6 192/3/6
f 191/1/6 140/1/6 192/1/6
f 186/2/6 173/2/6 193/2/6
f 185/1/6 186/1/6 193/1/6
f 173/3/6 100/3/6 194/3/6
f 193/2/6 173/2/6 194/2/6
f 181/2/6 187/2/6 195/2/6
f 187/2/6 188/2/6 195/2/6
f 188/3/6 121/3/6 196/3/6
f 195/2/6 188/2/6 196/2/6
f 121/1/6 189/1/6 197/1/6
f 196/3/6 121/3/6 197/3/6
f 192/3/6 178/3/6 198/3/6
f 191/2/6 192/2/6 198/2/6
f 185/1/6 193/1/6 199/1/6
f 198/3/6 178/3/6 199/3/6
f 178/1/6 185/1/6 199/1/6
f 193/1/6 194/1/6 199/1/6
f 195/1/6 196/1/6 200/1/6
f 196/4/6 197/4/6 201/4/6
f 200/1/6 196/1/6 201/1/6
f 197/1/6 189/1/6 202/1/6
f 201/4/6 197/4/6 202/4/6
f 189/2/6 190/2/6 203/2/6
f 202/1/6 189/1/6 203/1/6
f 190/1/6 167/1/6 204/1/6
f 203/2/6 190/2/6 204/2/6
f 167/3/6 176/3/6 205/3/6
f 204/1/6 167/1/6 205/1/6
f 176/1/6 191/1/6 206/1/6
f 205/3/6 176/3/6 206/3/6
f 191/2/6 198/2/6 207/2/6
f 206/1/6 191/1/6 207/1/6
f 198/4/6 199/4/6 208/4/6
f 207/2/6 198/2/6 208/2/6
f 199/1/6 194/1/6 209/1/6
f 208/4/6 199/4/6 209/4/6
f 194/3/6 100/3/6 210/3/6
f 209/1/6 194/1/6 210/1/6
f 210/3/6 100/3/6 211/3/6
