# MagicaVoxel @ Ephtracy

# group
o 

# material
mtllib Water.mtl
usemtl palette

# normals
vn -1 0 0
vn 1 0 0
vn 0 0 1
vn 0 0 -1
vn 0 -1 0
vn 0 1 0

# texcoords
vt 0.939453 0.5
vt 0.943359 0.5
vt 0.947266 0.5
vt 0.951172 0.5
vt 0.955078 0.5
vt 0.958984 0.5

# verts
v -0.8 0 0.8
v -0.8 0 0.7
v -0.8 0 0.6
v -0.8 0 0.5
v -0.8 0 0.3
v -0.8 0 0.2
v -0.8 0 0.1
v -0.8 0 -5.96046e-08
v -0.8 0 -0.1
v -0.8 0 -0.4
v -0.8 0 -0.6
v -0.8 0 -0.7
v -0.8 0 -0.8
v -0.8 0.2 0.8
v -0.8 0.2 0.7
v -0.8 0.2 0.6
v -0.8 0.2 0.5
v -0.8 0.2 0.3
v -0.8 0.2 0.2
v -0.8 0.2 0.1
v -0.8 0.2 -5.96046e-08
v -0.8 0.2 -0.1
v -0.8 0.2 -0.4
v -0.8 0.2 -0.6
v -0.8 0.2 -0.7
v -0.8 0.2 -0.8
v 0.8 0 0.8
v 0.8 0 0.4
v 0.8 0 0.2
v 0.8 0 -5.96046e-08
v 0.8 0 -0.2
v 0.8 0 -0.3
v 0.8 0 -0.5
v 0.8 0 -0.7
v 0.8 0 -0.8
v 0.8 0.2 0.8
v 0.8 0.2 0.4
v 0.8 0.2 0.2
v 0.8 0.2 -5.96046e-08
v 0.8 0.2 -0.2
v 0.8 0.2 -0.3
v 0.8 0.2 -0.5
v 0.8 0.2 -0.7
v 0.8 0.2 -0.8
v -0.8 0 0.8
v -0.8 0.2 0.8
v -0.7 0 0.8
v -0.7 0.2 0.8
v -0.6 0 0.8
v -0.6 0.2 0.8
v -0.4 0 0.8
v -0.4 0.2 0.8
v -0.3 0 0.8
v -0.3 0.2 0.8
v -0.1 0 0.8
v -0.1 0.2 0.8
v 5.96046e-08 0 0.8
v 5.96046e-08 0.2 0.8
v 0.2 0 0.8
v 0.2 0.2 0.8
v 0.3 0 0.8
v 0.3 0.2 0.8
v 0.8 0 0.8
v 0.8 0.2 0.8
v -0.8 0 -0.8
v -0.8 0.2 -0.8
v -0.7 0 -0.8
v -0.7 0.2 -0.8
v -0.4 0 -0.8
v -0.4 0.2 -0.8
v -0.1 0 -0.8
v -0.1 0.2 -0.8
v 0.4 0 -0.8
v 0.4 0.2 -0.8
v 0.5 0 -0.8
v 0.5 0.2 -0.8
v 0.8 0 -0.8
v 0.8 0.2 -0.8
v -0.8 0 0.8
v -0.7 0 0.8
v -0.6 0 0.8
v -0.4 0 0.8
v -0.3 0 0.8
v -0.1 0 0.8
v 5.96046e-08 0 0.8
v 0.2 0 0.8
v 0.3 0 0.8
v 0.8 0 0.8
v -0.8 0 0.7
v -0.7 0 0.7
v -0.6 0 0.7
v -0.4 0 0.7
v -0.3 0 0.7
v -0.1 0 0.7
v 5.96046e-08 0 0.7
v 0.1 0 0.7
v 0.2 0 0.7
v 0.3 0 0.7
v 0.4 0 0.7
v 0.5 0 0.7
v 0.6 0 0.7
v -0.8 0 0.6
v -0.7 0 0.6
v 0.1 0 0.6
v 0.2 0 0.6
v 0.4 0 0.6
v 0.5 0 0.6
v 0.6 0 0.6
v -0.8 0 0.5
v -0.7 0 0.5
v 0.2 0 0.5
v 0.3 0 0.5
v 0.4 0 0.5
v 0.5 0 0.5
v 0.3 0 0.4
v 0.4 0 0.4
v 0.7 0 0.4
v 0.8 0 0.4
v -0.8 0 0.3
v -0.7 0 0.3
v -0.3 0 0.3
v -0.2 0 0.3
v 0.1 0 0.3
v 0.3 0 0.3
v 0.4 0 0.3
v 0.7 0 0.3
v -0.8 0 0.2
v -0.7 0 0.2
v -0.3 0 0.2
v -0.2 0 0.2
v 0.1 0 0.2
v 0.3 0 0.2
v 0.4 0 0.2
v 0.5 0 0.2
v 0.6 0 0.2
v 0.8 0 0.2
v -0.8 0 0.1
v -0.6 0 0.1
v -0.5 0 0.1
v -0.4 0 0.1
v -0.3 0 0.1
v -0.2 0 0.1
v 5.96046e-08 0 0.1
v 0.1 0 0.1
v 0.2 0 0.1
v 0.3 0 0.1
v 0.5 0 0.1
v 0.6 0 0.1
v 0.7 0 0.1
v -0.8 0 -5.96046e-08
v -0.6 0 -5.96046e-08
v -0.5 0 -5.96046e-08
v -0.4 0 -5.96046e-08
v -0.3 0 -5.96046e-08
v -0.2 0 -5.96046e-08
v -0.1 0 -5.96046e-08
v 5.96046e-08 0 -5.96046e-08
v 0.1 0 -5.96046e-08
v 0.2 0 -5.96046e-08
v 0.3 0 -5.96046e-08
v 0.5 0 -5.96046e-08
v 0.6 0 -5.96046e-08
v 0.7 0 -5.96046e-08
v 0.8 0 -5.96046e-08
v -0.8 0 -0.1
v -0.7 0 -0.1
v -0.5 0 -0.1
v -0.2 0 -0.1
v -0.1 0 -0.1
v 0.4 0 -0.1
v 0.6 0 -0.1
v 0.7 0 -0.1
v -0.7 0 -0.2
v -0.6 0 -0.2
v -0.5 0 -0.2
v -0.4 0 -0.2
v -0.2 0 -0.2
v -0.1 0 -0.2
v 0.2 0 -0.2
v 0.3 0 -0.2
v 0.4 0 -0.2
v 0.5 0 -0.2
v 0.6 0 -0.2
v 0.7 0 -0.2
v 0.8 0 -0.2
v -0.5 0 -0.3
v -0.4 0 -0.3
v -0.3 0 -0.3
v -0.2 0 -0.3
v -0.1 0 -0.3
v 0.1 0 -0.3
v 0.2 0 -0.3
v 0.3 0 -0.3
v 0.5 0 -0.3
v 0.8 0 -0.3
v -0.8 0 -0.4
v -0.7 0 -0.4
v -0.6 0 -0.4
v -0.4 0 -0.4
v -0.3 0 -0.4
v -0.1 0 -0.4
v 0.1 0 -0.4
v 0.2 0 -0.4
v 0.4 0 -0.4
v 0.5 0 -0.4
v -0.7 0 -0.5
v -0.6 0 -0.5
v -0.4 0 -0.5
v -0.3 0 -0.5
v -0.1 0 -0.5
v 5.96046e-08 0 -0.5
v 0.4 0 -0.5
v 0.5 0 -0.5
v 0.6 0 -0.5
v 0.8 0 -0.5
v -0.8 0 -0.6
v -0.6 0 -0.6
v -0.4 0 -0.6
v 5.96046e-08 0 -0.6
v 0.2 0 -0.6
v 0.5 0 -0.6
v 0.6 0 -0.6
v -0.8 0 -0.7
v -0.7 0 -0.7
v -0.4 0 -0.7
v -0.1 0 -0.7
v 0.2 0 -0.7
v 0.4 0 -0.7
v 0.5 0 -0.7
v 0.8 0 -0.7
v -0.8 0 -0.8
v -0.7 0 -0.8
v -0.4 0 -0.8
v -0.1 0 -0.8
v 0.4 0 -0.8
v 0.5 0 -0.8
v 0.8 0 -0.8
v -0.8 0.2 0.8
v -0.7 0.2 0.8
v -0.6 0.2 0.8
v -0.4 0.2 0.8
v -0.3 0.2 0.8
v -0.1 0.2 0.8
v 5.96046e-08 0.2 0.8
v 0.2 0.2 0.8
v 0.3 0.2 0.8
v 0.8 0.2 0.8
v -0.8 0.2 0.7
v -0.7 0.2 0.7
v -0.6 0.2 0.7
v -0.4 0.2 0.7
v -0.3 0.2 0.7
v -0.1 0.2 0.7
v 5.96046e-08 0.2 0.7
v 0.1 0.2 0.7
v 0.2 0.2 0.7
v 0.3 0.2 0.7
v 0.4 0.2 0.7
v 0.5 0.2 0.7
v 0.6 0.2 0.7
v -0.8 0.2 0.6
v -0.7 0.2 0.6
v 0.1 0.2 0.6
v 0.2 0.2 0.6
v 0.4 0.2 0.6
v 0.5 0.2 0.6
v 0.6 0.2 0.6
v -0.8 0.2 0.5
v -0.7 0.2 0.5
v 0.2 0.2 0.5
v 0.3 0.2 0.5
v 0.4 0.2 0.5
v 0.5 0.2 0.5
v 0.3 0.2 0.4
v 0.4 0.2 0.4
v 0.7 0.2 0.4
v 0.8 0.2 0.4
v -0.8 0.2 0.3
v -0.7 0.2 0.3
v -0.3 0.2 0.3
v -0.2 0.2 0.3
v 0.1 0.2 0.3
v 0.3 0.2 0.3
v 0.4 0.2 0.3
v 0.7 0.2 0.3
v -0.8 0.2 0.2
v -0.7 0.2 0.2
v -0.3 0.2 0.2
v -0.2 0.2 0.2
v 0.1 0.2 0.2
v 0.3 0.2 0.2
v 0.4 0.2 0.2
v 0.5 0.2 0.2
v 0.6 0.2 0.2
v 0.8 0.2 0.2
v -0.8 0.2 0.1
v -0.6 0.2 0.1
v -0.5 0.2 0.1
v -0.4 0.2 0.1
v -0.3 0.2 0.1
v -0.2 0.2 0.1
v 5.96046e-08 0.2 0.1
v 0.1 0.2 0.1
v 0.2 0.2 0.1
v 0.3 0.2 0.1
v 0.5 0.2 0.1
v 0.6 0.2 0.1
v 0.7 0.2 0.1
v -0.8 0.2 -5.96046e-08
v -0.6 0.2 -5.96046e-08
v -0.5 0.2 -5.96046e-08
v -0.4 0.2 -5.96046e-08
v -0.3 0.2 -5.96046e-08
v -0.2 0.2 -5.96046e-08
v -0.1 0.2 -5.96046e-08
v 5.96046e-08 0.2 -5.96046e-08
v 0.1 0.2 -5.96046e-08
v 0.2 0.2 -5.96046e-08
v 0.3 0.2 -5.96046e-08
v 0.5 0.2 -5.96046e-08
v 0.6 0.2 -5.96046e-08
v 0.7 0.2 -5.96046e-08
v 0.8 0.2 -5.96046e-08
v -0.8 0.2 -0.1
v -0.7 0.2 -0.1
v -0.5 0.2 -0.1
v -0.2 0.2 -0.1
v -0.1 0.2 -0.1
v 0.4 0.2 -0.1
v 0.6 0.2 -0.1
v 0.7 0.2 -0.1
v -0.7 0.2 -0.2
v -0.6 0.2 -0.2
v -0.5 0.2 -0.2
v -0.4 0.2 -0.2
v -0.2 0.2 -0.2
v -0.1 0.2 -0.2
v 0.2 0.2 -0.2
v 0.3 0.2 -0.2
v 0.4 0.2 -0.2
v 0.5 0.2 -0.2
v 0.6 0.2 -0.2
v 0.7 0.2 -0.2
v 0.8 0.2 -0.2
v -0.5 0.2 -0.3
v -0.4 0.2 -0.3
v -0.3 0.2 -0.3
v -0.2 0.2 -0.3
v -0.1 0.2 -0.3
v 0.1 0.2 -0.3
v 0.2 0.2 -0.3
v 0.3 0.2 -0.3
v 0.5 0.2 -0.3
v 0.8 0.2 -0.3
v -0.8 0.2 -0.4
v -0.7 0.2 -0.4
v -0.6 0.2 -0.4
v -0.4 0.2 -0.4
v -0.3 0.2 -0.4
v -0.1 0.2 -0.4
v 0.1 0.2 -0.4
v 0.2 0.2 -0.4
v 0.4 0.2 -0.4
v 0.5 0.2 -0.4
v -0.7 0.2 -0.5
v -0.6 0.2 -0.5
v -0.4 0.2 -0.5
v -0.3 0.2 -0.5
v -0.1 0.2 -0.5
v 5.96046e-08 0.2 -0.5
v 0.4 0.2 -0.5
v 0.5 0.2 -0.5
v 0.6 0.2 -0.5
v 0.8 0.2 -0.5
v -0.8 0.2 -0.6
v -0.6 0.2 -0.6
v -0.4 0.2 -0.6
v 5.96046e-08 0.2 -0.6
v 0.2 0.2 -0.6
v 0.5 0.2 -0.6
v 0.6 0.2 -0.6
v -0.8 0.2 -0.7
v -0.7 0.2 -0.7
v -0.4 0.2 -0.7
v -0.1 0.2 -0.7
v 0.2 0.2 -0.7
v 0.4 0.2 -0.7
v 0.5 0.2 -0.7
v 0.8 0.2 -0.7
v -0.8 0.2 -0.8
v -0.7 0.2 -0.8
v -0.4 0.2 -0.8
v -0.1 0.2 -0.8
v 0.4 0.2 -0.8
v 0.5 0.2 -0.8
v 0.8 0.2 -0.8

# faces
f 14/3/1 2/3/1 1/3/1
f 15/1/1 3/1/1 2/1/1
f 15/3/1 2/3/1 14/3/1
f 16/3/1 4/3/1 3/3/1
f 16/1/1 3/1/1 15/1/1
f 17/1/1 5/1/1 4/1/1
f 17/3/1 4/3/1 16/3/1
f 18/2/1 6/2/1 5/2/1
f 18/1/1 5/1/1 17/1/1
f 19/1/1 7/1/1 6/1/1
f 19/2/1 6/2/1 18/2/1
f 20/5/1 8/5/1 7/5/1
f 20/1/1 7/1/1 19/1/1
f 21/4/1 9/4/1 8/4/1
f 21/5/1 8/5/1 20/5/1
f 22/1/1 10/1/1 9/1/1
f 22/4/1 9/4/1 21/4/1
f 23/2/1 11/2/1 10/2/1
f 23/1/1 10/1/1 22/1/1
f 24/1/1 12/1/1 11/1/1
f 24/2/1 11/2/1 23/2/1
f 25/6/1 13/6/1 12/6/1
f 25/1/1 12/1/1 24/1/1
f 26/6/1 13/6/1 25/6/1
f 27/1/2 28/1/2 36/1/2
f 28/2/2 29/2/2 37/2/2
f 36/1/2 28/1/2 37/1/2
f 29/1/2 30/1/2 38/1/2
f 37/2/2 29/2/2 38/2/2
f 30/4/2 31/4/2 39/4/2
f 38/1/2 30/1/2 39/1/2
f 31/1/2 32/1/2 40/1/2
f 39/4/2 31/4/2 40/4/2
f 32/2/2 33/2/2 41/2/2
f 40/1/2 32/1/2 41/1/2
f 33/1/2 34/1/2 42/1/2
f 41/2/2 33/2/2 42/2/2
f 34/3/2 35/3/2 43/3/2
f 42/1/2 34/1/2 43/1/2
f 43/3/2 35/3/2 44/3/2
f 47/3/3 46/3/3 45/3/3
f 48/3/3 46/3/3 47/3/3
f 49/2/3 48/2/3 47/2/3
f 50/2/3 48/2/3 49/2/3
f 51/3/3 50/3/3 49/3/3
f 52/3/3 50/3/3 51/3/3
f 53/4/3 52/4/3 51/4/3
f 54/4/3 52/4/3 53/4/3
f 55/5/3 54/5/3 53/5/3
f 56/5/3 54/5/3 55/5/3
f 57/4/3 56/4/3 55/4/3
f 58/4/3 56/4/3 57/4/3
f 59/1/3 58/1/3 57/1/3
f 60/1/3 58/1/3 59/1/3
f 61/4/3 60/4/3 59/4/3
f 62/4/3 60/4/3 61/4/3
f 63/1/3 62/1/3 61/1/3
f 64/1/3 62/1/3 63/1/3
f 65/6/4 66/6/4 67/6/4
f 67/6/4 66/6/4 68/6/4
f 67/2/4 68/2/4 69/2/4
f 69/2/4 68/2/4 70/2/4
f 69/1/4 70/1/4 71/1/4
f 71/1/4 70/1/4 72/1/4
f 71/2/4 72/2/4 73/2/4
f 73/2/4 72/2/4 74/2/4
f 73/4/4 74/4/4 75/4/4
f 75/4/4 74/4/4 76/4/4
f 75/3/4 76/3/4 77/3/4
f 77/3/4 76/3/4 78/3/4
f 89/3/5 80/3/5 79/3/5
f 90/2/5 81/2/5 80/2/5
f 90/3/5 80/3/5 89/3/5
f 91/3/5 82/3/5 81/3/5
f 91/2/5 81/2/5 90/2/5
f 92/4/5 83/4/5 82/4/5
f 92/3/5 82/3/5 91/3/5
f 93/5/5 84/5/5 83/5/5
f 93/4/5 83/4/5 92/4/5
f 94/4/5 85/4/5 84/4/5
f 94/5/5 84/5/5 93/5/5
f 95/1/5 86/1/5 85/1/5
f 95/4/5 85/4/5 94/4/5
f 96/1/5 86/1/5 95/1/5
f 97/4/5 87/4/5 86/4/5
f 97/1/5 86/1/5 96/1/5
f 98/1/5 88/1/5 87/1/5
f 98/4/5 87/4/5 97/4/5
f 99/1/5 88/1/5 98/1/5
f 100/1/5 88/1/5 99/1/5
f 101/1/5 88/1/5 100/1/5
f 102/1/5 90/1/5 89/1/5
f 102/1/5 91/1/5 90/1/5
f 102/1/5 92/1/5 91/1/5
f 102/1/5 93/1/5 92/1/5
f 102/1/5 94/1/5 93/1/5
f 102/1/5 96/1/5 95/1/5
f 102/1/5 95/1/5 94/1/5
f 103/1/5 96/1/5 102/1/5
f 104/4/5 97/4/5 96/4/5
f 104/1/5 96/1/5 103/1/5
f 105/5/5 99/5/5 98/5/5
f 105/4/5 97/4/5 104/4/5
f 105/5/5 98/5/5 97/5/5
f 106/4/5 100/4/5 99/4/5
f 106/5/5 99/5/5 105/5/5
f 107/2/5 101/2/5 100/2/5
f 107/4/5 100/4/5 106/4/5
f 108/1/5 88/1/5 101/1/5
f 108/2/5 101/2/5 107/2/5
f 109/3/5 103/3/5 102/3/5
f 110/1/5 105/1/5 104/1/5
f 110/3/5 103/3/5 109/3/5
f 110/1/5 104/1/5 103/1/5
f 111/4/5 106/4/5 105/4/5
f 111/1/5 105/1/5 110/1/5
f 112/4/5 106/4/5 111/4/5
f 113/2/5 107/2/5 106/2/5
f 113/4/5 106/4/5 112/4/5
f 114/1/5 108/1/5 107/1/5
f 114/2/5 107/2/5 113/2/5
f 115/1/5 112/1/5 111/1/5
f 115/1/5 110/1/5 109/1/5
f 115/2/5 113/2/5 112/2/5
f 115/1/5 111/1/5 110/1/5
f 116/1/5 114/1/5 113/1/5
f 116/2/5 113/2/5 115/2/5
f 117/1/5 88/1/5 108/1/5
f 117/1/5 114/1/5 116/1/5
f 117/1/5 108/1/5 114/1/5
f 118/1/5 88/1/5 117/1/5
f 119/1/5 116/1/5 115/1/5
f 119/1/5 115/1/5 109/1/5
f 119/1/5 117/1/5 116/1/5
f 120/1/5 117/1/5 119/1/5
f 121/1/5 117/1/5 120/1/5
f 122/1/5 117/1/5 121/1/5
f 123/1/5 117/1/5 122/1/5
f 124/1/5 117/1/5 123/1/5
f 125/1/5 117/1/5 124/1/5
f 126/2/5 118/2/5 117/2/5
f 126/1/5 117/1/5 125/1/5
f 127/2/5 120/2/5 119/2/5
f 128/1/5 121/1/5 120/1/5
f 128/2/5 120/2/5 127/2/5
f 129/2/5 122/2/5 121/2/5
f 129/1/5 121/1/5 128/1/5
f 130/1/5 123/1/5 122/1/5
f 130/2/5 122/2/5 129/2/5
f 131/2/5 124/2/5 123/2/5
f 131/1/5 123/1/5 130/1/5
f 132/4/5 125/4/5 124/4/5
f 132/2/5 124/2/5 131/2/5
f 133/2/5 126/2/5 125/2/5
f 133/4/5 125/4/5 132/4/5
f 134/2/5 126/2/5 133/2/5
f 135/2/5 126/2/5 134/2/5
f 136/2/5 118/2/5 126/2/5
f 136/2/5 126/2/5 135/2/5
f 137/1/5 131/1/5 130/1/5
f 137/1/5 128/1/5 127/1/5
f 137/1/5 129/1/5 128/1/5
f 137/1/5 134/1/5 133/1/5
f 137/1/5 133/1/5 132/1/5
f 137/1/5 132/1/5 131/1/5
f 137/1/5 130/1/5 129/1/5
f 138/1/5 134/1/5 137/1/5
f 139/1/5 134/1/5 138/1/5
f 140/1/5 134/1/5 139/1/5
f 141/1/5 134/1/5 140/1/5
f 142/1/5 134/1/5 141/1/5
f 143/1/5 134/1/5 142/1/5
f 144/1/5 134/1/5 143/1/5
f 145/1/5 134/1/5 144/1/5
f 146/1/5 134/1/5 145/1/5
f 147/2/5 135/2/5 134/2/5
f 147/1/5 134/1/5 146/1/5
f 148/1/5 136/1/5 135/1/5
f 148/2/5 135/2/5 147/2/5
f 149/1/5 136/1/5 148/1/5
f 150/5/5 138/5/5 137/5/5
f 151/4/5 139/4/5 138/4/5
f 151/5/5 138/5/5 150/5/5
f 152/6/5 140/6/5 139/6/5
f 152/4/5 139/4/5 151/4/5
f 153/4/5 141/4/5 140/4/5
f 153/6/5 140/6/5 152/6/5
f 154/5/5 142/5/5 141/5/5
f 154/4/5 141/4/5 153/4/5
f 155/4/5 143/4/5 142/4/5
f 155/5/5 142/5/5 154/5/5
f 156/4/5 143/4/5 155/4/5
f 157/2/5 144/2/5 143/2/5
f 157/4/5 143/4/5 156/4/5
f 158/4/5 145/4/5 144/4/5
f 158/2/5 144/2/5 157/2/5
f 159/2/5 146/2/5 145/2/5
f 159/4/5 145/4/5 158/4/5
f 160/4/5 147/4/5 146/4/5
f 160/2/5 146/2/5 159/2/5
f 161/2/5 148/2/5 147/2/5
f 161/4/5 147/4/5 160/4/5
f 161/2/5 149/2/5 148/2/5
f 162/2/5 149/2/5 161/2/5
f 163/1/5 136/1/5 149/1/5
f 163/2/5 149/2/5 162/2/5
f 164/1/5 136/1/5 163/1/5
f 165/4/5 151/4/5 150/4/5
f 165/4/5 152/4/5 151/4/5
f 166/4/5 152/4/5 165/4/5
f 167/2/5 153/2/5 152/2/5
f 167/4/5 152/4/5 166/4/5
f 167/2/5 154/2/5 153/2/5
f 167/2/5 155/2/5 154/2/5
f 168/4/5 156/4/5 155/4/5
f 168/2/5 155/2/5 167/2/5
f 169/2/5 158/2/5 157/2/5
f 169/4/5 156/4/5 168/4/5
f 169/2/5 159/2/5 158/2/5
f 169/2/5 161/2/5 160/2/5
f 169/2/5 162/2/5 161/2/5
f 169/2/5 160/2/5 159/2/5
f 169/2/5 157/2/5 156/2/5
f 170/2/5 162/2/5 169/2/5
f 171/4/5 163/4/5 162/4/5
f 171/2/5 162/2/5 170/2/5
f 171/4/5 164/4/5 163/4/5
f 172/4/5 164/4/5 171/4/5
f 173/2/5 168/2/5 167/2/5
f 173/2/5 170/2/5 169/2/5
f 173/2/5 167/2/5 166/2/5
f 173/2/5 169/2/5 168/2/5
f 173/1/5 166/1/5 165/1/5
f 174/2/5 170/2/5 173/2/5
f 175/2/5 170/2/5 174/2/5
f 176/2/5 170/2/5 175/2/5
f 177/2/5 170/2/5 176/2/5
f 178/2/5 170/2/5 177/2/5
f 179/2/5 170/2/5 178/2/5
f 180/2/5 170/2/5 179/2/5
f 181/4/5 171/4/5 170/4/5
f 181/2/5 170/2/5 180/2/5
f 182/4/5 171/4/5 181/4/5
f 183/5/5 172/5/5 171/5/5
f 183/4/5 171/4/5 182/4/5
f 184/4/5 164/4/5 172/4/5
f 184/5/5 172/5/5 183/5/5
f 185/4/5 164/4/5 184/4/5
f 186/2/5 175/2/5 174/2/5
f 186/1/5 176/1/5 175/1/5
f 187/2/5 177/2/5 176/2/5
f 187/1/5 176/1/5 186/1/5
f 188/2/5 177/2/5 187/2/5
f 189/4/5 178/4/5 177/4/5
f 189/2/5 177/2/5 188/2/5
f 190/2/5 179/2/5 178/2/5
f 190/4/5 178/4/5 189/4/5
f 191/2/5 179/2/5 190/2/5
f 192/4/5 180/4/5 179/4/5
f 192/2/5 179/2/5 191/2/5
f 193/2/5 182/2/5 181/2/5
f 193/4/5 180/4/5 192/4/5
f 193/2/5 181/2/5 180/2/5
f 194/1/5 183/1/5 182/1/5
f 194/2/5 182/2/5 193/2/5
f 194/1/5 185/1/5 184/1/5
f 194/1/5 184/1/5 183/1/5
f 195/1/5 185/1/5 194/1/5
f 196/1/5 173/1/5 165/1/5
f 196/1/5 174/1/5 173/1/5
f 197/1/5 174/1/5 196/1/5
f 198/2/5 187/2/5 186/2/5
f 198/1/5 174/1/5 197/1/5
f 198/2/5 186/2/5 174/2/5
f 198/2/5 188/2/5 187/2/5
f 199/2/5 188/2/5 198/2/5
f 200/1/5 191/1/5 190/1/5
f 200/2/5 188/2/5 199/2/5
f 200/1/5 189/1/5 188/1/5
f 200/1/5 190/1/5 189/1/5
f 201/1/5 191/1/5 200/1/5
f 202/2/5 192/2/5 191/2/5
f 202/1/5 191/1/5 201/1/5
f 203/1/5 193/1/5 192/1/5
f 203/2/5 192/2/5 202/2/5
f 203/1/5 194/1/5 193/1/5
f 204/1/5 194/1/5 203/1/5
f 205/2/5 195/2/5 194/2/5
f 205/1/5 194/1/5 204/1/5
f 206/1/5 199/1/5 198/1/5
f 206/2/5 197/2/5 196/2/5
f 206/1/5 198/1/5 197/1/5
f 207/1/5 199/1/5 206/1/5
f 208/2/5 200/2/5 199/2/5
f 208/1/5 199/1/5 207/1/5
f 209/4/5 201/4/5 200/4/5
f 209/2/5 200/2/5 208/2/5
f 210/2/5 202/2/5 201/2/5
f 210/4/5 201/4/5 209/4/5
f 210/2/5 203/2/5 202/2/5
f 211/2/5 203/2/5 210/2/5
f 212/4/5 204/4/5 203/4/5
f 212/2/5 205/2/5 204/2/5
f 213/2/5 195/2/5 205/2/5
f 213/2/5 205/2/5 212/2/5
f 214/2/5 195/2/5 213/2/5
f 215/2/5 195/2/5 214/2/5
f 216/2/5 207/2/5 206/2/5
f 216/2/5 206/2/5 196/2/5
f 217/1/5 209/1/5 208/1/5
f 217/2/5 207/2/5 216/2/5
f 217/1/5 208/1/5 207/1/5
f 217/1/5 211/1/5 210/1/5
f 217/1/5 210/1/5 209/1/5
f 218/1/5 211/1/5 217/1/5
f 219/2/5 203/2/5 211/2/5
f 219/1/5 211/1/5 218/1/5
f 220/4/5 212/4/5 203/4/5
f 220/2/5 203/2/5 219/2/5
f 220/4/5 213/4/5 212/4/5
f 221/2/5 214/2/5 213/2/5
f 221/4/5 213/4/5 220/4/5
f 222/1/5 215/1/5 214/1/5
f 222/2/5 214/2/5 221/2/5
f 223/1/5 218/1/5 217/1/5
f 223/1/5 217/1/5 216/1/5
f 224/1/5 218/1/5 223/1/5
f 225/2/5 220/2/5 219/2/5
f 225/1/5 218/1/5 224/1/5
f 225/2/5 219/2/5 218/2/5
f 226/2/5 220/2/5 225/2/5
f 227/1/5 222/1/5 221/1/5
f 227/2/5 220/2/5 226/2/5
f 227/1/5 221/1/5 220/1/5
f 228/1/5 222/1/5 227/1/5
f 229/1/5 222/1/5 228/1/5
f 230/1/5 215/1/5 222/1/5
f 230/1/5 222/1/5 229/1/5
f 231/6/5 224/6/5 223/6/5
f 232/2/5 225/2/5 224/2/5
f 232/6/5 224/6/5 231/6/5
f 233/1/5 226/1/5 225/1/5
f 233/2/5 225/2/5 232/2/5
f 234/2/5 227/2/5 226/2/5
f 234/1/5 226/1/5 233/1/5
f 234/2/5 228/2/5 227/2/5
f 235/4/5 229/4/5 228/4/5
f 235/2/5 228/2/5 234/2/5
f 236/3/5 230/3/5 229/3/5
f 236/4/5 229/4/5 235/4/5
f 237/3/5 230/3/5 236/3/5
f 238/3/6 239/3/6 248/3/6
f 239/2/6 240/2/6 249/2/6
f 248/3/6 239/3/6 249/3/6
f 240/3/6 241/3/6 250/3/6
f 249/2/6 240/2/6 250/2/6
f 241/4/6 242/4/6 251/4/6
f 250/3/6 241/3/6 251/3/6
f 242/5/6 243/5/6 252/5/6
f 251/4/6 242/4/6 252/4/6
f 243/4/6 244/4/6 253/4/6
f 252/5/6 243/5/6 253/5/6
f 244/1/6 245/1/6 254/1/6
f 253/4/6 244/4/6 254/4/6
f 254/1/6 245/1/6 255/1/6
f 245/4/6 246/4/6 256/4/6
f 255/1/6 245/1/6 256/1/6
f 246/1/6 247/1/6 257/1/6
f 256/4/6 246/4/6 257/4/6
f 257/1/6 247/1/6 258/1/6
f 258/1/6 247/1/6 259/1/6
f 259/1/6 247/1/6 260/1/6
f 248/1/6 249/1/6 261/1/6
f 249/1/6 250/1/6 261/1/6
f 250/1/6 251/1/6 261/1/6
f 251/1/6 252/1/6 261/1/6
f 252/1/6 253/1/6 261/1/6
f 254/1/6 255/1/6 261/1/6
f 253/1/6 254/1/6 261/1/6
f 261/1/6 255/1/6 262/1/6
f 255/4/6 256/4/6 263/4/6
f 262/1/6 255/1/6 263/1/6
f 257/5/6 258/5/6 264/5/6
f 263/4/6 256/4/6 264/4/6
f 256/5/6 257/5/6 264/5/6
f 258/4/6 259/4/6 265/4/6
f 264/5/6 258/5/6 265/5/6
f 259/2/6 260/2/6 266/2/6
f 265/4/6 259/4/6 266/4/6
f 260/1/6 247/1/6 267/1/6
f 266/2/6 260/2/6 267/2/6
f 261/3/6 262/3/6 268/3/6
f 263/1/6 264/1/6 269/1/6
f 268/3/6 262/3/6 269/3/6
f 262/1/6 263/1/6 269/1/6
f 264/4/6 265/4/6 270/4/6
f 269/1/6 264/1/6 270/1/6
f 270/4/6 265/4/6 271/4/6
f 265/2/6 266/2/6 272/2/6
f 271/4/6 265/4/6 272/4/6
f 266/1/6 267/1/6 273/1/6
f 272/2/6 266/2/6 273/2/6
f 270/1/6 271/1/6 274/1/6
f 268/1/6 269/1/6 274/1/6
f 271/2/6 272/2/6 274/2/6
f 269/1/6 270/1/6 274/1/6
f 272/1/6 273/1/6 275/1/6
f 274/2/6 272/2/6 275/2/6
f 267/1/6 247/1/6 276/1/6
f 275/1/6 273/1/6 276/1/6
f 273/1/6 267/1/6 276/1/6
f 276/1/6 247/1/6 277/1/6
f 274/1/6 275/1/6 278/1/6
f 268/1/6 274/1/6 278/1/6
f 275/1/6 276/1/6 278/1/6
f 278/1/6 276/1/6 279/1/6
f 279/1/6 276/1/6 280/1/6
f 280/1/6 276/1/6 281/1/6
f 281/1/6 276/1/6 282/1/6
f 282/1/6 276/1/6 283/1/6
f 283/1/6 276/1/6 284/1/6
f 276/2/6 277/2/6 285/2/6
f 284/1/6 276/1/6 285/1/6
f 278/2/6 279/2/6 286/2/6
f 279/1/6 280/1/6 287/1/6
f 286/2/6 279/2/6 287/2/6
f 280/2/6 281/2/6 288/2/6
f 287/1/6 280/1/6 288/1/6
f 281/1/6 282/1/6 289/1/6
f 288/2/6 281/2/6 289/2/6
f 282/2/6 283/2/6 290/2/6
f 289/1/6 282/1/6 290/1/6
f 283/4/6 284/4/6 291/4/6
f 290/2/6 283/2/6 291/2/6
f 284/2/6 285/2/6 292/2/6
f 291/4/6 284/4/6 292/4/6
f 292/2/6 285/2/6 293/2/6
f 293/2/6 285/2/6 294/2/6
f 285/2/6 277/2/6 295/2/6
f 294/2/6 285/2/6 295/2/6
f 289/1/6 290/1/6 296/1/6
f 286/1/6 287/1/6 296/1/6
f 287/1/6 288/1/6 296/1/6
f 292/1/6 293/1/6 296/1/6
f 291/1/6 292/1/6 296/1/6
f 290/1/6 291/1/6 296/1/6
f 288/1/6 289/1/6 296/1/6
f 296/1/6 293/1/6 297/1/6
f 297/1/6 293/1/6 298/1/6
f 298/1/6 293/1/6 299/1/6
f 299/1/6 293/1/6 300/1/6
f 300/1/6 293/1/6 301/1/6
f 301/1/6 293/1/6 302/1/6
f 302/1/6 293/1/6 303/1/6
f 303/1/6 293/1/6 304/1/6
f 304/1/6 293/1/6 305/1/6
f 293/2/6 294/2/6 306/2/6
f 305/1/6 293/1/6 306/1/6
f 294/1/6 295/1/6 307/1/6
f 306/2/6 294/2/6 307/2/6
f 307/1/6 295/1/6 308/1/6
f 296/5/6 297/5/6 309/5/6
f 297/4/6 298/4/6 310/4/6
f 309/5/6 297/5/6 310/5/6
f 298/6/6 299/6/6 311/6/6
f 310/4/6 298/4/6 311/4/6
f 299/4/6 300/4/6 312/4/6
f 311/6/6 299/6/6 312/6/6
f 300/5/6 301/5/6 313/5/6
f 312/4/6 300/4/6 313/4/6
f 301/4/6 302/4/6 314/4/6
f 313/5/6 301/5/6 314/5/6
f 314/4/6 302/4/6 315/4/6
f 302/2/6 303/2/6 316/2/6
f 315/4/6 302/4/6 316/4/6
f 303/4/6 304/4/6 317/4/6
f 316/2/6 303/2/6 317/2/6
f 304/2/6 305/2/6 318/2/6
f 317/4/6 304/4/6 318/4/6
f 305/4/6 306/4/6 319/4/6
f 318/2/6 305/2/6 319/2/6
f 306/2/6 307/2/6 320/2/6
f 319/4/6 306/4/6 320/4/6
f 307/2/6 308/2/6 320/2/6
f 320/2/6 308/2/6 321/2/6
f 308/1/6 295/1/6 322/1/6
f 321/2/6 308/2/6 322/2/6
f 322/1/6 295/1/6 323/1/6
f 309/4/6 310/4/6 324/4/6
f 310/4/6 311/4/6 324/4/6
f 324/4/6 311/4/6 325/4/6
f 311/2/6 312/2/6 326/2/6
f 325/4/6 311/4/6 326/4/6
f 312/2/6 313/2/6 326/2/6
f 313/2/6 314/2/6 326/2/6
f 314/4/6 315/4/6 327/4/6
f 326/2/6 314/2/6 327/2/6
f 316/2/6 317/2/6 328/2/6
f 327/4/6 315/4/6 328/4/6
f 317/2/6 318/2/6 328/2/6
f 319/2/6 320/2/6 328/2/6
f 320/2/6 321/2/6 328/2/6
f 318/2/6 319/2/6 328/2/6
f 315/2/6 316/2/6 328/2/6
f 328/2/6 321/2/6 329/2/6
f 321/4/6 322/4/6 330/4/6
f 329/2/6 321/2/6 330/2/6
f 322/4/6 323/4/6 330/4/6
f 330/4/6 323/4/6 331/4/6
f 326/2/6 327/2/6 332/2/6
f 328/2/6 329/2/6 332/2/6
f 325/2/6 326/2/6 332/2/6
f 327/2/6 328/2/6 332/2/6
f 324/1/6 325/1/6 332/1/6
f 332/2/6 329/2/6 333/2/6
f 333/2/6 329/2/6 334/2/6
f 334/2/6 329/2/6 335/2/6
f 335/2/6 329/2/6 336/2/6
f 336/2/6 329/2/6 337/2/6
f 337/2/6 329/2/6 338/2/6
f 338/2/6 329/2/6 339/2/6
f 329/4/6 330/4/6 340/4/6
f 339/2/6 329/2/6 340/2/6
f 340/4/6 330/4/6 341/4/6
f 330/5/6 331/5/6 342/5/6
f 341/4/6 330/4/6 342/4/6
f 331/4/6 323/4/6 343/4/6
f 342/5/6 331/5/6 343/5/6
f 343/4/6 323/4/6 344/4/6
f 333/2/6 334/2/6 345/2/6
f 334/1/6 335/1/6 345/1/6
f 335/2/6 336/2/6 346/2/6
f 345/1/6 335/1/6 346/1/6
f 346/2/6 336/2/6 347/2/6
f 336/4/6 337/4/6 348/4/6
f 347/2/6 336/2/6 348/2/6
f 337/2/6 338/2/6 349/2/6
f 348/4/6 337/4/6 349/4/6
f 349/2/6 338/2/6 350/2/6
f 338/4/6 339/4/6 351/4/6
f 350/2/6 338/2/6 351/2/6
f 340/2/6 341/2/6 352/2/6
f 351/4/6 339/4/6 352/4/6
f 339/2/6 340/2/6 352/2/6
f 341/1/6 342/1/6 353/1/6
f 352/2/6 341/2/6 353/2/6
f 343/1/6 344/1/6 353/1/6
f 342/1/6 343/1/6 353/1/6
f 353/1/6 344/1/6 354/1/6
f 324/1/6 332/1/6 355/1/6
f 332/1/6 333/1/6 355/1/6
f 355/1/6 333/1/6 356/1/6
f 345/2/6 346/2/6 357/2/6
f 356/1/6 333/1/6 357/1/6
f 333/2/6 345/2/6 357/2/6
f 346/2/6 347/2/6 357/2/6
f 357/2/6 347/2/6 358/2/6
f 349/1/6 350/1/6 359/1/6
f 358/2/6 347/2/6 359/2/6
f 347/1/6 348/1/6 359/1/6
f 348/1/6 349/1/6 359/1/6
f 359/1/6 350/1/6 360/1/6
f 350/2/6 351/2/6 361/2/6
f 360/1/6 350/1/6 361/1/6
f 351/1/6 352/1/6 362/1/6
f 361/2/6 351/2/6 362/2/6
f 352/1/6 353/1/6 362/1/6
f 362/1/6 353/1/6 363/1/6
f 353/2/6 354/2/6 364/2/6
f 363/1/6 353/1/6 364/1/6
f 357/1/6 358/1/6 365/1/6
f 355/2/6 356/2/6 365/2/6
f 356/1/6 357/1/6 365/1/6
f 365/1/6 358/1/6 366/1/6
f 358/2/6 359/2/6 367/2/6
f 366/1/6 358/1/6 367/1/6
f 359/4/6 360/4/6 368/4/6
f 367/2/6 359/2/6 368/2/6
f 360/2/6 361/2/6 369/2/6
f 368/4/6 360/4/6 369/4/6
f 361/2/6 362/2/6 369/2/6
f 369/2/6 362/2/6 370/2/6
f 362/4/6 363/4/6 371/4/6
f 363/2/6 364/2/6 371/2/6
f 364/2/6 354/2/6 372/2/6
f 371/2/6 364/2/6 372/2/6
f 372/2/6 354/2/6 373/2/6
f 373/2/6 354/2/6 374/2/6
f 365/2/6 366/2/6 375/2/6
f 355/2/6 365/2/6 375/2/6
f 367/1/6 368/1/6 376/1/6
f 375/2/6 366/2/6 376/2/6
f 366/1/6 367/1/6 376/1/6
f 369/1/6 370/1/6 376/1/6
f 368/1/6 369/1/6 376/1/6
f 376/1/6 370/1/6 377/1/6
f 370/2/6 362/2/6 378/2/6
f 377/1/6 370/1/6 378/1/6
f 362/4/6 371/4/6 379/4/6
f 378/2/6 362/2/6 379/2/6
f 371/4/6 372/4/6 379/4/6
f 372/2/6 373/2/6 380/2/6
f 379/4/6 372/4/6 380/4/6
f 373/1/6 374/1/6 381/1/6
f 380/2/6 373/2/6 381/2/6
f 376/1/6 377/1/6 382/1/6
f 375/1/6 376/1/6 382/1/6
f 382/1/6 377/1/6 383/1/6
f 378/2/6 379/2/6 384/2/6
f 383/1/6 377/1/6 384/1/6
f 377/2/6 378/2/6 384/2/6
f 384/2/6 379/2/6 385/2/6
f 380/1/6 381/1/6 386/1/6
f 385/2/6 379/2/6 386/2/6
f 379/1/6 380/1/6 386/1/6
f 386/1/6 381/1/6 387/1/6
f 387/1/6 381/1/6 388/1/6
f 381/1/6 374/1/6 389/1/6
f 388/1/6 381/1/6 389/1/6
f 382/6/6 383/6/6 390/6/6
f 383/2/6 384/2/6 391/2/6
f 390/6/6 383/6/6 391/6/6
f 384/1/6 385/1/6 392/1/6
f 391/2/6 384/2/6 392/2/6
f 385/2/6 386/2/6 393/2/6
f 392/1/6 385/1/6 393/1/6
f 386/2/6 387/2/6 393/2/6
f 387/4/6 388/4/6 394/4/6
f 393/2/6 387/2/6 394/2/6
f 388/3/6 389/3/6 395/3/6
f 394/4/6 388/4/6 395/4/6
f 395/3/6 389/3/6 396/3/6
