# MagicaVoxel @ Ephtracy

# group
o 

# material
mtllib EnderWall.mtl
usemtl palette

# normals
vn -1 0 0
vn 1 0 0
vn 0 0 1
vn 0 0 -1
vn 0 -1 0
vn 0 1 0

# texcoords
vt 0.939453 0.5
vt 0.943359 0.5
vt 0.970703 0.5
vt 0.974609 0.5
vt 0.978516 0.5
vt 0.986328 0.5
vt 0.990234 0.5

# verts
v -0.2 0 0.8
v -0.2 0 0.7
v -0.2 0 0.6
v -0.2 0 0.5
v -0.2 0 0.2
v -0.2 0 0.1
v -0.2 0 -5.96046e-08
v -0.2 0 -0.1
v -0.2 0 -0.2
v -0.2 0 -0.3
v -0.2 0 -0.5
v -0.2 0 -0.6
v -0.2 0 -0.7
v -0.2 0 -0.8
v -0.2 0.1 0.8
v -0.2 0.1 0.7
v -0.2 0.1 0.6
v -0.2 0.1 0.5
v -0.2 0.1 0.4
v -0.2 0.1 0.3
v -0.2 0.1 0.2
v -0.2 0.1 0.1
v -0.2 0.1 -0.1
v -0.2 0.1 -0.2
v -0.2 0.1 -0.3
v -0.2 0.1 -0.5
v -0.2 0.1 -0.6
v -0.2 0.1 -0.7
v -0.2 0.2 0.8
v -0.2 0.2 0.7
v -0.2 0.2 0.5
v -0.2 0.2 0.3
v -0.2 0.2 0.2
v -0.2 0.2 0.1
v -0.2 0.2 -5.96046e-08
v -0.2 0.2 -0.2
v -0.2 0.2 -0.3
v -0.2 0.2 -0.5
v -0.2 0.2 -0.6
v -0.2 0.2 -0.7
v -0.2 0.3 0.8
v -0.2 0.3 0.7
v -0.2 0.3 0.5
v -0.2 0.3 0.4
v -0.2 0.3 0.2
v -0.2 0.3 0.1
v -0.2 0.3 -5.96046e-08
v -0.2 0.3 -0.1
v -0.2 0.3 -0.2
v -0.2 0.3 -0.3
v -0.2 0.3 -0.4
v -0.2 0.3 -0.5
v -0.2 0.3 -0.6
v -0.2 0.3 -0.7
v -0.2 0.3 -0.8
v -0.2 0.4 0.7
v -0.2 0.4 0.5
v -0.2 0.4 0.4
v -0.2 0.4 0.3
v -0.2 0.4 0.2
v -0.2 0.4 0.1
v -0.2 0.4 -0.1
v -0.2 0.4 -0.2
v -0.2 0.4 -0.3
v -0.2 0.4 -0.5
v -0.2 0.4 -0.6
v -0.2 0.4 -0.7
v -0.2 0.4 -0.8
v -0.2 0.5 0.8
v -0.2 0.5 0.7
v -0.2 0.5 0.6
v -0.2 0.5 0.5
v -0.2 0.5 0.4
v -0.2 0.5 0.3
v -0.2 0.5 0.2
v -0.2 0.5 0.1
v -0.2 0.5 -0.1
v -0.2 0.5 -0.2
v -0.2 0.5 -0.3
v -0.2 0.5 -0.4
v -0.2 0.5 -0.5
v -0.2 0.5 -0.6
v -0.2 0.5 -0.8
v -0.2 0.6 0.8
v -0.2 0.6 0.7
v -0.2 0.6 0.6
v -0.2 0.6 0.5
v -0.2 0.6 0.4
v -0.2 0.6 0.3
v -0.2 0.6 0.2
v -0.2 0.6 0.1
v -0.2 0.6 -0.2
v -0.2 0.6 -0.3
v -0.2 0.6 -0.4
v -0.2 0.6 -0.5
v -0.2 0.6 -0.6
v -0.2 0.6 -0.8
v -0.2 0.7 0.8
v -0.2 0.7 0.7
v -0.2 0.7 0.6
v -0.2 0.7 0.5
v -0.2 0.7 0.4
v -0.2 0.7 0.3
v -0.2 0.7 0.2
v -0.2 0.7 0.1
v -0.2 0.7 -5.96046e-08
v -0.2 0.7 -0.1
v -0.2 0.7 -0.2
v -0.2 0.7 -0.3
v -0.2 0.7 -0.4
v -0.2 0.7 -0.5
v -0.2 0.7 -0.8
v -0.2 0.8 0.8
v -0.2 0.8 0.7
v -0.2 0.8 0.6
v -0.2 0.8 0.4
v -0.2 0.8 0.3
v -0.2 0.8 -5.96046e-08
v -0.2 0.8 -0.1
v -0.2 0.8 -0.2
v -0.2 0.8 -0.3
v -0.2 0.8 -0.7
v -0.2 0.9 0.4
v -0.2 0.9 0.3
v -0.2 0.9 0.2
v -0.2 0.9 0.1
v -0.2 0.9 -5.96046e-08
v -0.2 0.9 -0.1
v -0.2 0.9 -0.2
v -0.2 0.9 -0.3
v -0.2 0.9 -0.4
v -0.2 0.9 -0.5
v -0.2 0.9 -0.6
v -0.2 1 0.7
v -0.2 1 0.6
v -0.2 1 0.5
v -0.2 1 0.4
v -0.2 1 0.3
v -0.2 1 0.2
v -0.2 1 0.1
v -0.2 1 -5.96046e-08
v -0.2 1 -0.1
v -0.2 1 -0.2
v -0.2 1 -0.4
v -0.2 1 -0.5
v -0.2 1 -0.6
v -0.2 1.1 0.6
v -0.2 1.1 0.5
v -0.2 1.1 0.4
v -0.2 1.1 0.2
v -0.2 1.1 0.1
v -0.2 1.1 -5.96046e-08
v -0.2 1.1 -0.1
v -0.2 1.1 -0.2
v -0.2 1.1 -0.3
v -0.2 1.1 -0.4
v -0.2 1.1 -0.5
v -0.2 1.1 -0.6
v -0.2 1.2 0.6
v -0.2 1.2 0.5
v -0.2 1.2 0.4
v -0.2 1.2 0.3
v -0.2 1.2 0.2
v -0.2 1.2 0.1
v -0.2 1.2 -5.96046e-08
v -0.2 1.2 -0.1
v -0.2 1.2 -0.2
v -0.2 1.2 -0.3
v -0.2 1.2 -0.5
v -0.2 1.2 -0.6
v -0.2 1.3 0.7
v -0.2 1.3 0.6
v -0.2 1.3 0.5
v -0.2 1.3 0.4
v -0.2 1.3 0.3
v -0.2 1.3 0.2
v -0.2 1.3 0.1
v -0.2 1.3 -0.2
v -0.2 1.3 -0.3
v -0.2 1.3 -0.4
v -0.2 1.3 -0.5
v -0.2 1.3 -0.6
v -0.2 1.3 -0.7
v -0.2 1.4 0.7
v -0.2 1.4 0.6
v -0.2 1.4 0.5
v -0.2 1.4 0.4
v -0.2 1.4 0.3
v -0.2 1.4 0.2
v -0.2 1.4 0.1
v -0.2 1.4 -5.96046e-08
v -0.2 1.4 -0.1
v -0.2 1.4 -0.2
v -0.2 1.4 -0.3
v -0.2 1.4 -0.4
v -0.2 1.4 -0.5
v -0.2 1.4 -0.6
v -0.2 1.4 -0.7
v -0.2 1.5 0.8
v -0.2 1.5 0.6
v -0.2 1.5 0.5
v -0.2 1.5 0.2
v -0.2 1.5 0.1
v -0.2 1.5 -0.3
v -0.2 1.5 -0.4
v -0.2 1.5 -0.5
v -0.2 1.5 -0.6
v -0.2 1.5 -0.7
v -0.0999999 0 -5.96046e-08
v -0.0999999 0 -0.1
v -0.0999999 0.1 -0.1
v -0.0999999 0.2 -5.96046e-08
v -0.0999999 0.3 -5.96046e-08
v -0.0999999 0.3 -0.1
v -0.0999999 0.4 -5.96046e-08
v -0.0999999 0.4 -0.1
v -0.0999999 0.5 -5.96046e-08
v -0.0999999 0.5 -0.1
v -0.0999999 0.7 0.8
v -0.0999999 0.7 0.7
v -0.0999999 0.7 0.6
v -0.0999999 0.7 0.5
v -0.0999999 0.7 0.4
v -0.0999999 0.7 0.3
v -0.0999999 0.7 0.2
v -0.0999999 0.7 0.1
v -0.0999999 0.7 -5.96046e-08
v -0.0999999 0.7 -0.1
v -0.0999999 0.7 -0.2
v -0.0999999 0.7 -0.3
v -0.0999999 0.7 -0.4
v -0.0999999 0.7 -0.5
v -0.0999999 0.7 -0.6
v -0.0999999 0.7 -0.7
v -0.0999999 0.7 -0.8
v -0.0999999 0.8 0.8
v -0.0999999 0.8 0.7
v -0.0999999 0.8 0.6
v -0.0999999 0.8 0.5
v -0.0999999 0.8 0.4
v -0.0999999 0.8 0.3
v -0.0999999 0.8 0.1
v -0.0999999 0.8 -5.96046e-08
v -0.0999999 0.8 -0.1
v -0.0999999 0.8 -0.2
v -0.0999999 0.8 -0.3
v -0.0999999 0.8 -0.6
v -0.0999999 0.8 -0.7
v -0.0999999 1 -0.7
v -0.0999999 1 -0.8
v -0.0999999 1.1 -0.7
v -0.0999999 1.1 -0.8
v -0.0999999 1.3 -0.7
v -0.0999999 1.4 -0.7
v -0.0999999 1.4 -0.8
v -0.0999999 1.5 0.8
v -0.0999999 1.5 0.6
v -0.0999999 1.5 0.5
v -0.0999999 1.5 0.2
v -0.0999999 1.5 0.1
v -0.0999999 1.5 -0.3
v -0.0999999 1.5 -0.4
v -0.0999999 1.5 -0.5
v -0.0999999 1.5 -0.6
v -0.0999999 1.5 -0.7
v -0.0999999 1.5 -0.8
v -0.0999999 1.6 0.8
v -0.0999999 1.6 0.2
v -0.0999999 1.6 0.1
v -0.0999999 1.6 -0.6
v -0.0999999 1.6 -0.7
v -0.0999999 1.6 -0.8
v 0.2 0 0.8
v 0.2 0 -0.8
v 0.2 1.6 0.8
v 0.2 1.6 -0.8
v -0.2 0 0.8
v -0.2 0.1 0.8
v -0.2 0.2 0.8
v -0.2 0.3 0.8
v -0.2 0.5 0.8
v -0.2 0.6 0.8
v -0.2 0.7 0.8
v -0.2 0.8 0.8
v -0.2 1.5 0.8
v -0.0999999 0 0.8
v -0.0999999 0.1 0.8
v -0.0999999 0.2 0.8
v -0.0999999 0.3 0.8
v -0.0999999 0.5 0.8
v -0.0999999 0.6 0.8
v -0.0999999 0.7 0.8
v -0.0999999 0.8 0.8
v -0.0999999 1.2 0.8
v -0.0999999 1.5 0.8
v -0.0999999 1.6 0.8
v 5.96046e-08 0 0.8
v 5.96046e-08 0.7 0.8
v 5.96046e-08 1.2 0.8
v 5.96046e-08 1.6 0.8
v 0.2 0 0.8
v 0.2 1.6 0.8
v -0.2 0 -0.1
v -0.2 0.1 -0.1
v -0.2 0.3 -0.1
v -0.2 0.4 -0.1
v -0.2 0.5 -0.1
v -0.2 0.7 -0.1
v -0.0999999 0 -0.1
v -0.0999999 0.1 -0.1
v -0.0999999 0.3 -0.1
v -0.0999999 0.4 -0.1
v -0.0999999 0.5 -0.1
v -0.0999999 0.7 -0.1
v -0.2 0 -5.96046e-08
v -0.2 0.2 -5.96046e-08
v -0.2 0.3 -5.96046e-08
v -0.2 0.7 -5.96046e-08
v -0.0999999 0 -5.96046e-08
v -0.0999999 0.2 -5.96046e-08
v -0.0999999 0.3 -5.96046e-08
v -0.0999999 0.4 -5.96046e-08
v -0.0999999 0.5 -5.96046e-08
v -0.0999999 0.7 -5.96046e-08
v -0.2 0.8 -0.7
v -0.2 1.3 -0.7
v -0.2 1.4 -0.7
v -0.2 1.5 -0.7
v -0.0999999 0.8 -0.7
v -0.0999999 1 -0.7
v -0.0999999 1.1 -0.7
v -0.0999999 1.3 -0.7
v -0.0999999 1.4 -0.7
v -0.0999999 1.5 -0.7
v -0.2 0 -0.8
v -0.2 0.3 -0.8
v -0.2 0.4 -0.8
v -0.2 0.5 -0.8
v -0.2 0.6 -0.8
v -0.2 0.7 -0.8
v -0.0999999 0 -0.8
v -0.0999999 0.3 -0.8
v -0.0999999 0.4 -0.8
v -0.0999999 0.5 -0.8
v -0.0999999 0.6 -0.8
v -0.0999999 0.7 -0.8
v -0.0999999 1 -0.8
v -0.0999999 1.1 -0.8
v -0.0999999 1.4 -0.8
v -0.0999999 1.5 -0.8
v -0.0999999 1.6 -0.8
v 5.96046e-08 0 -0.8
v 5.96046e-08 1 -0.8
v 5.96046e-08 1.1 -0.8
v 5.96046e-08 1.4 -0.8
v 5.96046e-08 1.5 -0.8
v 5.96046e-08 1.6 -0.8
v 0.2 0 -0.8
v 0.2 1.6 -0.8
v -0.2 0 0.8
v -0.0999999 0 0.8
v 5.96046e-08 0 0.8
v 0.2 0 0.8
v -0.2 0 0.7
v -0.0999999 0 0.7
v -0.2 0 0.6
v -0.0999999 0 0.6
v -0.2 0 0.5
v -0.0999999 0 0.5
v -0.2 0 0.2
v -0.0999999 0 0.2
v -0.2 0 0.1
v -0.0999999 0 0.1
v -0.2 0 -5.96046e-08
v -0.0999999 0 -5.96046e-08
v -0.2 0 -0.1
v -0.0999999 0 -0.1
v -0.2 0 -0.2
v -0.0999999 0 -0.2
v -0.2 0 -0.3
v -0.0999999 0 -0.3
v -0.2 0 -0.5
v -0.0999999 0 -0.5
v -0.2 0 -0.6
v -0.0999999 0 -0.6
v -0.2 0 -0.7
v -0.0999999 0 -0.7
v -0.2 0 -0.8
v -0.0999999 0 -0.8
v 5.96046e-08 0 -0.8
v 0.2 0 -0.8
v -0.2 0.8 0.8
v -0.0999999 0.8 0.8
v -0.2 0.8 0.7
v -0.0999999 0.8 0.7
v -0.2 0.8 0.6
v -0.0999999 0.8 0.6
v -0.0999999 0.8 0.5
v -0.2 0.8 0.4
v -0.0999999 0.8 0.4
v -0.2 0.8 0.3
v -0.0999999 0.8 0.3
v -0.0999999 0.8 0.1
v -0.2 0.8 -5.96046e-08
v -0.0999999 0.8 -5.96046e-08
v -0.2 0.8 -0.1
v -0.0999999 0.8 -0.1
v -0.2 0.8 -0.2
v -0.0999999 0.8 -0.2
v -0.2 0.8 -0.3
v -0.0999999 0.8 -0.3
v -0.0999999 0.8 -0.6
v -0.2 0.8 -0.7
v -0.0999999 0.8 -0.7
v -0.2 0.7 0.8
v -0.0999999 0.7 0.8
v -0.2 0.7 0.7
v -0.0999999 0.7 0.7
v -0.2 0.7 0.6
v -0.0999999 0.7 0.6
v -0.2 0.7 0.5
v -0.0999999 0.7 0.5
v -0.2 0.7 0.4
v -0.0999999 0.7 0.4
v -0.2 0.7 0.3
v -0.0999999 0.7 0.3
v -0.2 0.7 0.2
v -0.0999999 0.7 0.2
v -0.2 0.7 0.1
v -0.0999999 0.7 0.1
v -0.2 0.7 -5.96046e-08
v -0.0999999 0.7 -5.96046e-08
v -0.2 0.7 -0.1
v -0.0999999 0.7 -0.1
v -0.2 0.7 -0.2
v -0.0999999 0.7 -0.2
v -0.2 0.7 -0.3
v -0.0999999 0.7 -0.3
v -0.2 0.7 -0.4
v -0.0999999 0.7 -0.4
v -0.2 0.7 -0.5
v -0.0999999 0.7 -0.5
v -0.0999999 0.7 -0.6
v -0.0999999 0.7 -0.7
v -0.2 0.7 -0.8
v -0.0999999 0.7 -0.8
v -0.2 1.5 0.8
v -0.0999999 1.5 0.8
v -0.2 1.5 0.6
v -0.0999999 1.5 0.6
v -0.2 1.5 0.5
v -0.0999999 1.5 0.5
v -0.2 1.5 0.2
v -0.0999999 1.5 0.2
v -0.2 1.5 0.1
v -0.0999999 1.5 0.1
v -0.2 1.5 -0.3
v -0.0999999 1.5 -0.3
v -0.2 1.5 -0.4
v -0.0999999 1.5 -0.4
v -0.2 1.5 -0.5
v -0.0999999 1.5 -0.5
v -0.2 1.5 -0.6
v -0.0999999 1.5 -0.6
v -0.2 1.5 -0.7
v -0.0999999 1.5 -0.7
v -0.0999999 1.6 0.8
v 5.96046e-08 1.6 0.8
v 0.2 1.6 0.8
v -0.0999999 1.6 0.2
v 5.96046e-08 1.6 0.2
v -0.0999999 1.6 0.1
v 5.96046e-08 1.6 0.1
v -0.0999999 1.6 -0.6
v 5.96046e-08 1.6 -0.6
v -0.0999999 1.6 -0.7
v 5.96046e-08 1.6 -0.7
v -0.0999999 1.6 -0.8
v 5.96046e-08 1.6 -0.8
v 0.2 1.6 -0.8

# faces
f 15/5/1 2/5/1 1/5/1
f 16/4/1 3/4/1 2/4/1
f 16/5/1 2/5/1 15/5/1
f 17/5/1 4/5/1 3/5/1
f 17/4/1 3/4/1 16/4/1
f 18/4/1 5/4/1 4/4/1
f 18/5/1 4/5/1 17/5/1
f 19/4/1 5/4/1 18/4/1
f 20/4/1 5/4/1 19/4/1
f 21/5/1 6/5/1 5/5/1
f 21/4/1 5/4/1 20/4/1
f 22/4/1 7/4/1 6/4/1
f 22/5/1 6/5/1 21/5/1
f 23/4/1 9/4/1 8/4/1
f 24/2/1 10/2/1 9/2/1
f 24/4/1 9/4/1 23/4/1
f 25/4/1 11/4/1 10/4/1
f 25/2/1 10/2/1 24/2/1
f 26/2/1 12/2/1 11/2/1
f 26/4/1 11/4/1 25/4/1
f 27/5/1 13/5/1 12/5/1
f 27/2/1 12/2/1 26/2/1
f 28/4/1 14/4/1 13/4/1
f 28/5/1 13/5/1 27/5/1
f 29/4/1 16/4/1 15/4/1
f 29/4/1 17/4/1 16/4/1
f 29/4/1 18/4/1 17/4/1
f 29/4/1 19/4/1 18/4/1
f 30/4/1 19/4/1 29/4/1
f 31/4/1 19/4/1 30/4/1
f 32/5/1 20/5/1 19/5/1
f 32/2/1 21/2/1 20/2/1
f 33/4/1 22/4/1 21/4/1
f 33/2/1 21/2/1 32/2/1
f 34/4/1 7/4/1 22/4/1
f 34/4/1 22/4/1 33/4/1
f 35/4/1 7/4/1 34/4/1
f 36/5/1 24/5/1 23/5/1
f 36/2/1 25/2/1 24/2/1
f 37/5/1 26/5/1 25/5/1
f 37/2/1 25/2/1 36/2/1
f 38/4/1 27/4/1 26/4/1
f 38/5/1 26/5/1 37/5/1
f 38/4/1 28/4/1 27/4/1
f 39/4/1 28/4/1 38/4/1
f 40/4/1 14/4/1 28/4/1
f 40/4/1 28/4/1 39/4/1
f 41/2/1 30/2/1 29/2/1
f 42/5/1 31/5/1 30/5/1
f 42/2/1 30/2/1 41/2/1
f 43/4/1 19/4/1 31/4/1
f 43/5/1 31/5/1 42/5/1
f 44/5/1 33/5/1 32/5/1
f 44/4/1 19/4/1 43/4/1
f 44/5/1 32/5/1 19/5/1
f 45/4/1 34/4/1 33/4/1
f 45/5/1 33/5/1 44/5/1
f 46/5/1 35/5/1 34/5/1
f 46/4/1 34/4/1 45/4/1
f 47/5/1 35/5/1 46/5/1
f 48/5/1 36/5/1 23/5/1
f 49/4/1 37/4/1 36/4/1
f 49/5/1 36/5/1 48/5/1
f 49/4/1 39/4/1 38/4/1
f 49/4/1 38/4/1 37/4/1
f 50/4/1 39/4/1 49/4/1
f 51/4/1 39/4/1 50/4/1
f 52/4/1 39/4/1 51/4/1
f 53/2/1 40/2/1 39/2/1
f 53/4/1 39/4/1 52/4/1
f 54/4/1 14/4/1 40/4/1
f 54/2/1 40/2/1 53/2/1
f 55/4/1 14/4/1 54/4/1
f 56/4/1 42/4/1 41/4/1
f 56/4/1 43/4/1 42/4/1
f 56/4/1 45/4/1 44/4/1
f 56/4/1 44/4/1 43/4/1
f 57/4/1 45/4/1 56/4/1
f 58/4/1 45/4/1 57/4/1
f 59/4/1 45/4/1 58/4/1
f 60/2/1 46/2/1 45/2/1
f 60/4/1 45/4/1 59/4/1
f 61/4/1 47/4/1 46/4/1
f 61/2/1 46/2/1 60/2/1
f 62/4/1 49/4/1 48/4/1
f 63/5/1 50/5/1 49/5/1
f 63/4/1 49/4/1 62/4/1
f 64/4/1 51/4/1 50/4/1
f 64/5/1 50/5/1 63/5/1
f 65/2/1 53/2/1 52/2/1
f 65/5/1 52/5/1 51/5/1
f 66/4/1 54/4/1 53/4/1
f 66/2/1 53/2/1 65/2/1
f 67/5/1 55/5/1 54/5/1
f 67/4/1 54/4/1 66/4/1
f 68/5/1 55/5/1 67/5/1
f 69/4/1 56/4/1 41/4/1
f 70/5/1 57/5/1 56/5/1
f 70/4/1 56/4/1 69/4/1
f 71/5/1 57/5/1 70/5/1
f 72/4/1 58/4/1 57/4/1
f 72/5/1 57/5/1 71/5/1
f 73/2/1 59/2/1 58/2/1
f 73/4/1 58/4/1 72/4/1
f 74/4/1 60/4/1 59/4/1
f 74/2/1 59/2/1 73/2/1
f 75/5/1 61/5/1 60/5/1
f 75/4/1 60/4/1 74/4/1
f 76/4/1 47/4/1 61/4/1
f 76/5/1 61/5/1 75/5/1
f 77/5/1 63/5/1 62/5/1
f 78/4/1 64/4/1 63/4/1
f 78/5/1 63/5/1 77/5/1
f 79/4/1 51/4/1 64/4/1
f 79/4/1 64/4/1 78/4/1
f 80/5/1 65/5/1 51/5/1
f 80/4/1 51/4/1 79/4/1
f 81/7/1 66/7/1 65/7/1
f 81/5/1 65/5/1 80/5/1
f 82/4/1 67/4/1 66/4/1
f 82/7/1 66/7/1 81/7/1
f 82/4/1 68/4/1 67/4/1
f 83/4/1 68/4/1 82/4/1
f 84/5/1 70/5/1 69/5/1
f 85/2/1 71/2/1 70/2/1
f 85/5/1 70/5/1 84/5/1
f 86/4/1 72/4/1 71/4/1
f 86/2/1 71/2/1 85/2/1
f 86/4/1 73/4/1 72/4/1
f 86/4/1 74/4/1 73/4/1
f 87/4/1 74/4/1 86/4/1
f 88/4/1 74/4/1 87/4/1
f 89/5/1 75/5/1 74/5/1
f 89/4/1 74/4/1 88/4/1
f 90/4/1 76/4/1 75/4/1
f 90/5/1 75/5/1 89/5/1
f 91/4/1 47/4/1 76/4/1
f 91/4/1 76/4/1 90/4/1
f 92/4/1 78/4/1 77/4/1
f 92/7/1 79/7/1 78/7/1
f 93/5/1 80/5/1 79/5/1
f 93/7/1 79/7/1 92/7/1
f 94/4/1 82/4/1 81/4/1
f 94/5/1 80/5/1 93/5/1
f 94/4/1 81/4/1 80/4/1
f 95/4/1 82/4/1 94/4/1
f 96/5/1 83/5/1 82/5/1
f 96/4/1 82/4/1 95/4/1
f 97/5/1 83/5/1 96/5/1
f 98/4/1 85/4/1 84/4/1
f 99/5/1 86/5/1 85/5/1
f 99/4/1 85/4/1 98/4/1
f 100/4/1 87/4/1 86/4/1
f 100/5/1 86/5/1 99/5/1
f 101/7/1 88/7/1 87/7/1
f 101/4/1 87/4/1 100/4/1
f 102/4/1 89/4/1 88/4/1
f 102/7/1 88/7/1 101/7/1
f 103/7/1 90/7/1 89/7/1
f 103/4/1 89/4/1 102/4/1
f 104/5/1 91/5/1 90/5/1
f 104/7/1 90/7/1 103/7/1
f 105/4/1 47/4/1 91/4/1
f 105/5/1 91/5/1 104/5/1
f 106/4/1 47/4/1 105/4/1
f 107/4/1 92/4/1 77/4/1
f 108/5/1 93/5/1 92/5/1
f 108/4/1 92/4/1 107/4/1
f 109/7/1 94/7/1 93/7/1
f 109/5/1 93/5/1 108/5/1
f 110/5/1 95/5/1 94/5/1
f 110/7/1 94/7/1 109/7/1
f 111/4/1 96/4/1 95/4/1
f 111/5/1 95/5/1 110/5/1
f 111/4/1 97/4/1 96/4/1
f 112/4/1 97/4/1 111/4/1
f 123/4/1 116/4/1 115/4/1
f 123/2/1 117/2/1 116/2/1
f 124/4/1 118/4/1 117/4/1
f 124/2/1 117/2/1 123/2/1
f 125/4/1 118/4/1 124/4/1
f 126/4/1 118/4/1 125/4/1
f 127/5/1 119/5/1 118/5/1
f 127/4/1 118/4/1 126/4/1
f 128/2/1 120/2/1 119/2/1
f 128/5/1 119/5/1 127/5/1
f 129/5/1 121/5/1 120/5/1
f 129/2/1 120/2/1 128/2/1
f 130/4/1 122/4/1 121/4/1
f 130/5/1 121/5/1 129/5/1
f 131/4/1 122/4/1 130/4/1
f 132/4/1 122/4/1 131/4/1
f 133/4/1 122/4/1 132/4/1
f 134/4/1 114/4/1 113/4/1
f 134/5/1 115/5/1 114/5/1
f 135/4/1 123/4/1 115/4/1
f 135/5/1 115/5/1 134/5/1
f 135/4/1 124/4/1 123/4/1
f 136/4/1 124/4/1 135/4/1
f 137/4/1 124/4/1 136/4/1
f 138/5/1 125/5/1 124/5/1
f 138/4/1 124/4/1 137/4/1
f 139/4/1 126/4/1 125/4/1
f 139/5/1 125/5/1 138/5/1
f 140/5/1 127/5/1 126/5/1
f 140/4/1 126/4/1 139/4/1
f 141/4/1 128/4/1 127/4/1
f 141/5/1 127/5/1 140/5/1
f 142/5/1 129/5/1 128/5/1
f 142/4/1 128/4/1 141/4/1
f 143/4/1 130/4/1 129/4/1
f 143/5/1 129/5/1 142/5/1
f 144/7/1 132/7/1 131/7/1
f 144/5/1 131/5/1 130/5/1
f 145/5/1 133/5/1 132/5/1
f 145/7/1 132/7/1 144/7/1
f 146/4/1 122/4/1 133/4/1
f 146/5/1 133/5/1 145/5/1
f 147/4/1 135/4/1 134/4/1
f 147/4/1 136/4/1 135/4/1
f 148/7/1 137/7/1 136/7/1
f 148/4/1 136/4/1 147/4/1
f 149/5/1 138/5/1 137/5/1
f 149/7/1 137/7/1 148/7/1
f 150/4/1 140/4/1 139/4/1
f 150/4/1 139/4/1 138/4/1
f 151/7/1 141/7/1 140/7/1
f 151/4/1 140/4/1 150/4/1
f 152/5/1 142/5/1 141/5/1
f 152/7/1 141/7/1 151/7/1
f 153/4/1 143/4/1 142/4/1
f 153/5/1 142/5/1 152/5/1
f 154/4/1 130/4/1 143/4/1
f 154/4/1 143/4/1 153/4/1
f 155/5/1 144/5/1 130/5/1
f 155/4/1 130/4/1 154/4/1
f 156/4/1 145/4/1 144/4/1
f 156/5/1 144/5/1 155/5/1
f 156/4/1 146/4/1 145/4/1
f 157/4/1 146/4/1 156/4/1
f 158/4/1 122/4/1 146/4/1
f 158/4/1 146/4/1 157/4/1
f 159/7/1 148/7/1 147/7/1
f 159/4/1 147/4/1 134/4/1
f 160/4/1 149/4/1 148/4/1
f 160/7/1 148/7/1 159/7/1
f 161/5/1 138/5/1 149/5/1
f 161/4/1 149/4/1 160/4/1
f 162/4/1 150/4/1 138/4/1
f 162/5/1 138/5/1 161/5/1
f 163/5/1 151/5/1 150/5/1
f 163/4/1 150/4/1 162/4/1
f 164/4/1 153/4/1 152/4/1
f 164/5/1 151/5/1 163/5/1
f 164/4/1 152/4/1 151/4/1
f 165/4/1 153/4/1 164/4/1
f 166/7/1 154/7/1 153/7/1
f 166/4/1 153/4/1 165/4/1
f 167/4/1 155/4/1 154/4/1
f 167/7/1 154/7/1 166/7/1
f 167/4/1 156/4/1 155/4/1
f 167/4/1 157/4/1 156/4/1
f 168/4/1 157/4/1 167/4/1
f 169/7/1 158/7/1 157/7/1
f 169/4/1 157/4/1 168/4/1
f 170/4/1 122/4/1 158/4/1
f 170/7/1 158/7/1 169/7/1
f 171/4/1 160/4/1 159/4/1
f 171/4/1 134/4/1 113/4/1
f 171/4/1 159/4/1 134/4/1
f 172/4/1 160/4/1 171/4/1
f 173/5/1 161/5/1 160/5/1
f 173/4/1 160/4/1 172/4/1
f 174/4/1 163/4/1 162/4/1
f 174/5/1 161/5/1 173/5/1
f 174/4/1 162/4/1 161/4/1
f 175/4/1 163/4/1 174/4/1
f 176/7/1 164/7/1 163/7/1
f 176/4/1 163/4/1 175/4/1
f 177/4/1 165/4/1 164/4/1
f 177/7/1 164/7/1 176/7/1
f 178/4/1 167/4/1 166/4/1
f 178/5/1 168/5/1 167/5/1
f 179/4/1 169/4/1 168/4/1
f 179/5/1 168/5/1 178/5/1
f 180/4/1 169/4/1 179/4/1
f 181/5/1 170/5/1 169/5/1
f 181/4/1 169/4/1 180/4/1
f 182/4/1 122/4/1 170/4/1
f 182/5/1 170/5/1 181/5/1
f 183/4/1 122/4/1 182/4/1
f 184/5/1 172/5/1 171/5/1
f 184/4/1 171/4/1 113/4/1
f 185/4/1 173/4/1 172/4/1
f 185/5/1 172/5/1 184/5/1
f 185/4/1 174/4/1 173/4/1
f 186/4/1 174/4/1 185/4/1
f 187/5/1 175/5/1 174/5/1
f 187/4/1 174/4/1 186/4/1
f 188/7/1 176/7/1 175/7/1
f 188/5/1 175/5/1 187/5/1
f 189/4/1 177/4/1 176/4/1
f 189/7/1 176/7/1 188/7/1
f 190/4/1 165/4/1 177/4/1
f 190/4/1 177/4/1 189/4/1
f 191/5/1 166/5/1 165/5/1
f 191/4/1 165/4/1 190/4/1
f 192/4/1 178/4/1 166/4/1
f 192/5/1 166/5/1 191/5/1
f 193/7/1 179/7/1 178/7/1
f 193/4/1 178/4/1 192/4/1
f 194/4/1 180/4/1 179/4/1
f 194/7/1 179/7/1 193/7/1
f 195/6/1 181/6/1 180/6/1
f 195/4/1 180/4/1 194/4/1
f 196/4/1 182/4/1 181/4/1
f 196/6/1 181/6/1 195/6/1
f 197/5/1 183/5/1 182/5/1
f 197/4/1 182/4/1 196/4/1
f 198/5/1 183/5/1 197/5/1
f 199/4/1 184/4/1 113/4/1
f 199/4/1 185/4/1 184/4/1
f 200/2/1 186/2/1 185/2/1
f 200/4/1 185/4/1 199/4/1
f 201/4/1 187/4/1 186/4/1
f 201/2/1 186/2/1 200/2/1
f 201/4/1 189/4/1 188/4/1
f 201/4/1 188/4/1 187/4/1
f 202/5/1 190/5/1 189/5/1
f 202/4/1 189/4/1 201/4/1
f 203/4/1 194/4/1 193/4/1
f 203/5/1 190/5/1 202/5/1
f 203/4/1 193/4/1 192/4/1
f 203/4/1 192/4/1 191/4/1
f 203/4/1 191/4/1 190/4/1
f 204/5/1 195/5/1 194/5/1
f 204/4/1 194/4/1 203/4/1
f 205/4/1 196/4/1 195/4/1
f 205/5/1 195/5/1 204/5/1
f 206/5/1 197/5/1 196/5/1
f 206/4/1 196/4/1 205/4/1
f 207/4/1 198/4/1 197/4/1
f 207/5/1 197/5/1 206/5/1
f 208/4/1 198/4/1 207/4/1
f 211/1/1 210/1/1 209/1/1
f 212/1/1 211/1/1 209/1/1
f 213/1/1 211/1/1 212/1/1
f 214/1/1 211/1/1 213/1/1
f 215/1/1 214/1/1 213/1/1
f 216/1/1 214/1/1 215/1/1
f 217/3/1 216/3/1 215/3/1
f 218/3/1 216/3/1 217/3/1
f 227/1/1 218/1/1 217/1/1
f 228/1/1 218/1/1 227/1/1
f 236/3/1 220/3/1 219/3/1
f 237/1/1 221/1/1 220/1/1
f 237/3/1 220/3/1 236/3/1
f 237/1/1 222/1/1 221/1/1
f 238/1/1 222/1/1 237/1/1
f 239/3/1 223/3/1 222/3/1
f 239/1/1 222/1/1 238/1/1
f 240/1/1 226/1/1 225/1/1
f 240/3/1 223/3/1 239/3/1
f 240/1/1 225/1/1 224/1/1
f 240/1/1 224/1/1 223/1/1
f 241/1/1 226/1/1 240/1/1
f 242/3/1 227/3/1 226/3/1
f 242/1/1 226/1/1 241/1/1
f 243/1/1 228/1/1 227/1/1
f 243/3/1 227/3/1 242/3/1
f 243/1/1 233/1/1 232/1/1
f 243/1/1 229/1/1 228/1/1
f 243/1/1 232/1/1 231/1/1
f 243/1/1 231/1/1 230/1/1
f 243/1/1 230/1/1 229/1/1
f 244/1/1 233/1/1 243/1/1
f 245/1/1 233/1/1 244/1/1
f 246/1/1 233/1/1 245/1/1
f 247/3/1 234/3/1 233/3/1
f 247/1/1 233/1/1 246/1/1
f 248/1/1 235/1/1 234/1/1
f 248/3/1 234/3/1 247/3/1
f 249/1/1 235/1/1 248/1/1
f 250/1/1 235/1/1 249/1/1
f 251/3/1 250/3/1 249/3/1
f 252/3/1 250/3/1 251/3/1
f 253/1/1 252/1/1 251/1/1
f 254/1/1 252/1/1 253/1/1
f 255/1/1 252/1/1 254/1/1
f 265/3/1 255/3/1 254/3/1
f 266/3/1 255/3/1 265/3/1
f 267/1/1 257/1/1 256/1/1
f 267/1/1 258/1/1 257/1/1
f 267/1/1 259/1/1 258/1/1
f 268/3/1 260/3/1 259/3/1
f 268/1/1 259/1/1 267/1/1
f 269/1/1 264/1/1 263/1/1
f 269/3/1 260/3/1 268/3/1
f 269/1/1 261/1/1 260/1/1
f 269/1/1 262/1/1 261/1/1
f 269/1/1 263/1/1 262/1/1
f 270/3/1 265/3/1 264/3/1
f 270/1/1 264/1/1 269/1/1
f 271/1/1 266/1/1 265/1/1
f 271/3/1 265/3/1 270/3/1
f 272/1/1 266/1/1 271/1/1
f 273/3/2 274/3/2 275/3/2
f 275/3/2 274/3/2 276/3/2
f 286/5/3 278/5/3 277/5/3
f 287/4/3 279/4/3 278/4/3
f 287/5/3 278/5/3 286/5/3
f 288/2/3 280/2/3 279/2/3
f 288/4/3 279/4/3 287/4/3
f 289/4/3 281/4/3 280/4/3
f 289/2/3 280/2/3 288/2/3
f 290/5/3 282/5/3 281/5/3
f 290/4/3 281/4/3 289/4/3
f 291/4/3 283/4/3 282/4/3
f 291/5/3 282/5/3 290/5/3
f 292/4/3 283/4/3 291/4/3
f 293/4/3 285/4/3 284/4/3
f 294/4/3 285/4/3 293/4/3
f 295/4/3 285/4/3 294/4/3
f 297/1/3 292/1/3 291/1/3
f 297/1/3 287/1/3 286/1/3
f 297/1/3 288/1/3 287/1/3
f 297/1/3 289/1/3 288/1/3
f 297/1/3 290/1/3 289/1/3
f 297/1/3 291/1/3 290/1/3
f 298/3/3 294/3/3 293/3/3
f 298/1/3 292/1/3 297/1/3
f 298/3/3 293/3/3 292/3/3
f 299/1/3 296/1/3 295/1/3
f 299/3/3 294/3/3 298/3/3
f 299/1/3 295/1/3 294/1/3
f 300/1/3 296/1/3 299/1/3
f 301/3/3 298/3/3 297/3/3
f 301/3/3 299/3/3 298/3/3
f 301/3/3 300/3/3 299/3/3
f 302/3/3 300/3/3 301/3/3
f 309/4/3 304/4/3 303/4/3
f 310/5/3 305/5/3 304/5/3
f 310/4/3 304/4/3 309/4/3
f 311/4/3 306/4/3 305/4/3
f 311/5/3 305/5/3 310/5/3
f 312/5/3 307/5/3 306/5/3
f 312/4/3 306/4/3 311/4/3
f 313/4/3 308/4/3 307/4/3
f 313/5/3 307/5/3 312/5/3
f 314/4/3 308/4/3 313/4/3
f 315/4/4 316/4/4 319/4/4
f 316/5/4 317/5/4 320/5/4
f 319/4/4 316/4/4 320/4/4
f 317/4/4 318/4/4 321/4/4
f 320/5/4 317/5/4 321/5/4
f 321/4/4 318/4/4 322/4/4
f 322/4/4 318/4/4 323/4/4
f 323/4/4 318/4/4 324/4/4
f 325/4/4 326/4/4 329/4/4
f 329/4/4 326/4/4 330/4/4
f 330/4/4 326/4/4 331/4/4
f 326/5/4 327/5/4 332/5/4
f 331/4/4 326/4/4 332/4/4
f 327/4/4 328/4/4 333/4/4
f 332/5/4 327/5/4 333/5/4
f 333/4/4 328/4/4 334/4/4
f 335/4/4 336/4/4 341/4/4
f 336/5/4 337/5/4 342/5/4
f 341/4/4 336/4/4 342/4/4
f 337/4/4 338/4/4 343/4/4
f 342/5/4 337/5/4 343/5/4
f 338/5/4 339/5/4 344/5/4
f 343/4/4 338/4/4 344/4/4
f 339/4/4 340/4/4 345/4/4
f 344/5/4 339/5/4 345/5/4
f 345/4/4 340/4/4 346/4/4
f 343/1/4 344/1/4 352/1/4
f 341/1/4 342/1/4 352/1/4
f 342/1/4 343/1/4 352/1/4
f 344/1/4 345/1/4 352/1/4
f 345/1/4 346/1/4 352/1/4
f 346/1/4 347/1/4 352/1/4
f 347/3/4 348/3/4 353/3/4
f 352/1/4 347/1/4 353/1/4
f 348/1/4 349/1/4 354/1/4
f 353/3/4 348/3/4 354/3/4
f 349/3/4 350/3/4 355/3/4
f 354/1/4 349/1/4 355/1/4
f 350/1/4 351/1/4 356/1/4
f 355/3/4 350/3/4 356/3/4
f 356/1/4 351/1/4 357/1/4
f 354/3/4 355/3/4 358/3/4
f 353/3/4 354/3/4 358/3/4
f 356/3/4 357/3/4 358/3/4
f 355/3/4 356/3/4 358/3/4
f 352/3/4 353/3/4 358/3/4
f 358/3/4 357/3/4 359/3/4
f 364/5/5 361/5/5 360/5/5
f 365/1/5 362/1/5 361/1/5
f 365/5/5 361/5/5 364/5/5
f 366/4/5 365/4/5 364/4/5
f 367/1/5 362/1/5 365/1/5
f 367/4/5 365/4/5 366/4/5
f 368/5/5 367/5/5 366/5/5
f 369/1/5 362/1/5 367/1/5
f 369/5/5 367/5/5 368/5/5
f 370/4/5 369/4/5 368/4/5
f 371/1/5 362/1/5 369/1/5
f 371/4/5 369/4/5 370/4/5
f 372/5/5 371/5/5 370/5/5
f 373/1/5 362/1/5 371/1/5
f 373/5/5 371/5/5 372/5/5
f 374/4/5 373/4/5 372/4/5
f 375/1/5 362/1/5 373/1/5
f 375/4/5 373/4/5 374/4/5
f 377/1/5 362/1/5 375/1/5
f 378/4/5 377/4/5 376/4/5
f 379/1/5 362/1/5 377/1/5
f 379/4/5 377/4/5 378/4/5
f 380/2/5 379/2/5 378/2/5
f 381/1/5 362/1/5 379/1/5
f 381/2/5 379/2/5 380/2/5
f 382/4/5 381/4/5 380/4/5
f 383/1/5 362/1/5 381/1/5
f 383/4/5 381/4/5 382/4/5
f 384/2/5 383/2/5 382/2/5
f 385/1/5 362/1/5 383/1/5
f 385/2/5 383/2/5 384/2/5
f 386/5/5 385/5/5 384/5/5
f 387/1/5 362/1/5 385/1/5
f 387/5/5 385/5/5 386/5/5
f 388/4/5 387/4/5 386/4/5
f 389/1/5 362/1/5 387/1/5
f 389/4/5 387/4/5 388/4/5
f 390/3/5 363/3/5 362/3/5
f 390/1/5 362/1/5 389/1/5
f 391/3/5 363/3/5 390/3/5
f 394/4/5 393/4/5 392/4/5
f 395/4/5 393/4/5 394/4/5
f 396/5/5 395/5/5 394/5/5
f 397/5/5 395/5/5 396/5/5
f 398/4/5 397/4/5 396/4/5
f 399/4/5 398/4/5 396/4/5
f 400/4/5 398/4/5 399/4/5
f 401/2/5 400/2/5 399/2/5
f 402/2/5 400/2/5 401/2/5
f 403/4/5 402/4/5 401/4/5
f 404/4/5 403/4/5 401/4/5
f 405/4/5 403/4/5 404/4/5
f 406/5/5 405/5/5 404/5/5
f 407/5/5 405/5/5 406/5/5
f 408/2/5 407/2/5 406/2/5
f 409/2/5 407/2/5 408/2/5
f 410/5/5 409/5/5 408/5/5
f 411/5/5 409/5/5 410/5/5
f 412/4/5 411/4/5 410/4/5
f 413/4/5 412/4/5 410/4/5
f 414/4/5 412/4/5 413/4/5
f 415/4/6 416/4/6 417/4/6
f 417/4/6 416/4/6 418/4/6
f 417/5/6 418/5/6 419/5/6
f 419/5/6 418/5/6 420/5/6
f 419/4/6 420/4/6 421/4/6
f 421/4/6 420/4/6 422/4/6
f 421/7/6 422/7/6 423/7/6
f 423/7/6 422/7/6 424/7/6
f 423/4/6 424/4/6 425/4/6
f 425/4/6 424/4/6 426/4/6
f 425/7/6 426/7/6 427/7/6
f 427/7/6 426/7/6 428/7/6
f 427/5/6 428/5/6 429/5/6
f 429/5/6 428/5/6 430/5/6
f 429/4/6 430/4/6 431/4/6
f 431/4/6 430/4/6 432/4/6
f 433/4/6 434/4/6 435/4/6
f 435/4/6 434/4/6 436/4/6
f 435/5/6 436/5/6 437/5/6
f 437/5/6 436/5/6 438/5/6
f 437/7/6 438/7/6 439/7/6
f 439/7/6 438/7/6 440/7/6
f 439/5/6 440/5/6 441/5/6
f 441/5/6 440/5/6 442/5/6
f 441/4/6 442/4/6 443/4/6
f 441/4/6 443/4/6 444/4/6
f 441/4/6 444/4/6 445/4/6
f 445/4/6 444/4/6 446/4/6
f 447/4/6 448/4/6 449/4/6
f 449/4/6 448/4/6 450/4/6
f 449/2/6 450/2/6 451/2/6
f 451/2/6 450/2/6 452/2/6
f 451/4/6 452/4/6 453/4/6
f 453/4/6 452/4/6 454/4/6
f 453/5/6 454/5/6 455/5/6
f 455/5/6 454/5/6 456/5/6
f 455/4/6 456/4/6 457/4/6
f 457/4/6 456/4/6 458/4/6
f 457/5/6 458/5/6 459/5/6
f 459/5/6 458/5/6 460/5/6
f 459/4/6 460/4/6 461/4/6
f 461/4/6 460/4/6 462/4/6
f 461/5/6 462/5/6 463/5/6
f 463/5/6 462/5/6 464/5/6
f 463/4/6 464/4/6 465/4/6
f 465/4/6 464/4/6 466/4/6
f 467/1/6 468/1/6 470/1/6
f 468/3/6 469/3/6 471/3/6
f 470/1/6 468/1/6 471/1/6
f 470/3/6 471/3/6 472/3/6
f 471/3/6 469/3/6 473/3/6
f 472/3/6 471/3/6 473/3/6
f 472/1/6 473/1/6 474/1/6
f 473/3/6 469/3/6 475/3/6
f 474/1/6 473/1/6 475/1/6
f 474/3/6 475/3/6 476/3/6
f 475/3/6 469/3/6 477/3/6
f 476/3/6 475/3/6 477/3/6
f 476/1/6 477/1/6 478/1/6
f 477/3/6 469/3/6 479/3/6
f 478/1/6 477/1/6 479/1/6
f 479/3/6 469/3/6 480/3/6
