# MagicaVoxel @ Ephtracy

# group
o 

# material
mtllib EnderGround.mtl
usemtl palette

# normals
vn -1 0 0
vn 1 0 0
vn 0 0 1
vn 0 0 -1
vn 0 -1 0
vn 0 1 0

# texcoords
vt 0.908203 0.5
vt 0.912109 0.5
vt 0.916016 0.5
vt 0.919922 0.5
vt 0.923828 0.5
vt 0.927734 0.5

# verts
v -0.8 0 0.8
v -0.8 0 -0.8
v -0.8 0.3 0.8
v -0.8 0.3 0.7
v -0.8 0.3 0.4
v -0.8 0.3 0.2
v -0.8 0.3 0.1
v -0.8 0.3 -5.96046e-08
v -0.8 0.3 -0.1
v -0.8 0.3 -0.3
v -0.8 0.3 -0.5
v -0.8 0.3 -0.7
v -0.8 0.3 -0.8
v -0.8 0.4 0.8
v -0.8 0.4 0.7
v -0.8 0.4 0.4
v -0.8 0.4 0.2
v -0.8 0.4 0.1
v -0.8 0.4 -5.96046e-08
v -0.8 0.4 -0.1
v -0.8 0.4 -0.3
v -0.8 0.4 -0.5
v -0.8 0.4 -0.7
v -0.8 0.4 -0.8
v 0.8 0 0.8
v 0.8 0 -0.8
v 0.8 0.3 0.8
v 0.8 0.3 -0.8
v 0.8 0.4 0.8
v 0.8 0.4 -0.8
v -0.8 0 0.8
v -0.8 0.3 0.8
v -0.8 0.4 0.8
v 0.8 0 0.8
v 0.8 0.3 0.8
v 0.8 0.4 0.8
v -0.8 0 -0.8
v -0.8 0.3 -0.8
v -0.8 0.4 -0.8
v -0.5 0.3 -0.8
v -0.5 0.4 -0.8
v -0.3 0.3 -0.8
v -0.3 0.4 -0.8
v -0.2 0.3 -0.8
v -0.2 0.4 -0.8
v -0.1 0.3 -0.8
v -0.1 0.4 -0.8
v 5.96046e-08 0.3 -0.8
v 5.96046e-08 0.4 -0.8
v 0.1 0.3 -0.8
v 0.1 0.4 -0.8
v 0.4 0.3 -0.8
v 0.4 0.4 -0.8
v 0.7 0.3 -0.8
v 0.7 0.4 -0.8
v 0.8 0 -0.8
v 0.8 0.3 -0.8
v 0.8 0.4 -0.8
v -0.8 0 0.8
v 0.8 0 0.8
v -0.8 0 -0.8
v 0.8 0 -0.8
v -0.8 0.4 0.8
v 0.8 0.4 0.8
v -0.8 0.4 0.7
v -0.7 0.4 0.7
v -0.1 0.4 0.7
v 5.96046e-08 0.4 0.7
v 0.1 0.4 0.7
v 0.2 0.4 0.7
v 0.7 0.4 0.7
v -0.4 0.4 0.6
v -0.3 0.4 0.6
v -0.2 0.4 0.6
v -0.1 0.4 0.6
v 5.96046e-08 0.4 0.6
v 0.1 0.4 0.6
v 0.3 0.4 0.6
v 0.4 0.4 0.6
v 0.5 0.4 0.6
v -0.7 0.4 0.5
v -0.6 0.4 0.5
v 5.96046e-08 0.4 0.5
v 0.1 0.4 0.5
v 0.2 0.4 0.5
v 0.3 0.4 0.5
v 0.4 0.4 0.5
v 0.5 0.4 0.5
v -0.8 0.4 0.4
v -0.7 0.4 0.4
v -0.3 0.4 0.4
v -0.2 0.4 0.4
v -0.1 0.4 0.4
v 0.2 0.4 0.4
v 0.3 0.4 0.4
v 0.6 0.4 0.4
v 0.7 0.4 0.4
v -0.7 0.4 0.3
v -0.6 0.4 0.3
v -0.4 0.4 0.3
v -0.2 0.4 0.3
v 0.5 0.4 0.3
v 0.6 0.4 0.3
v -0.8 0.4 0.2
v -0.7 0.4 0.2
v -0.6 0.4 0.2
v -0.4 0.4 0.2
v 0.4 0.4 0.2
v 0.7 0.4 0.2
v -0.8 0.4 0.1
v -0.7 0.4 0.1
v -0.6 0.4 0.1
v -0.5 0.4 0.1
v -0.4 0.4 0.1
v -0.2 0.4 0.1
v -0.1 0.4 0.1
v 5.96046e-08 0.4 0.1
v 0.1 0.4 0.1
v 0.3 0.4 0.1
v 0.5 0.4 0.1
v 0.7 0.4 0.1
v -0.8 0.4 -5.96046e-08
v -0.6 0.4 -5.96046e-08
v -0.5 0.4 -5.96046e-08
v -0.4 0.4 -5.96046e-08
v -0.2 0.4 -5.96046e-08
v -0.1 0.4 -5.96046e-08
v 5.96046e-08 0.4 -5.96046e-08
v 0.1 0.4 -5.96046e-08
v 0.3 0.4 -5.96046e-08
v 0.5 0.4 -5.96046e-08
v 0.7 0.4 -5.96046e-08
v -0.8 0.4 -0.1
v -0.7 0.4 -0.1
v -0.6 0.4 -0.1
v -0.1 0.4 -0.1
v 5.96046e-08 0.4 -0.1
v 0.1 0.4 -0.1
v 0.7 0.4 -0.1
v -0.7 0.4 -0.2
v -0.6 0.4 -0.2
v 0.1 0.4 -0.2
v 0.3 0.4 -0.2
v 0.4 0.4 -0.2
v 0.6 0.4 -0.2
v -0.8 0.4 -0.3
v -0.7 0.4 -0.3
v -0.3 0.4 -0.3
v 5.96046e-08 0.4 -0.3
v 0.1 0.4 -0.3
v 0.3 0.4 -0.3
v 0.4 0.4 -0.3
v 0.6 0.4 -0.3
v -0.6 0.4 -0.4
v -0.5 0.4 -0.4
v -0.4 0.4 -0.4
v -0.3 0.4 -0.4
v -0.1 0.4 -0.4
v 0.6 0.4 -0.4
v 0.7 0.4 -0.4
v -0.8 0.4 -0.5
v -0.7 0.4 -0.5
v -0.6 0.4 -0.5
v -0.5 0.4 -0.5
v -0.4 0.4 -0.5
v -0.3 0.4 -0.5
v -0.1 0.4 -0.5
v 5.96046e-08 0.4 -0.5
v 0.1 0.4 -0.5
v 0.3 0.4 -0.5
v 0.4 0.4 -0.5
v 0.6 0.4 -0.5
v 0.7 0.4 -0.5
v -0.8 0.4 -0.7
v -0.7 0.4 -0.7
v -0.5 0.4 -0.7
v -0.3 0.4 -0.7
v -0.2 0.4 -0.7
v -0.1 0.4 -0.7
v 5.96046e-08 0.4 -0.7
v 0.1 0.4 -0.7
v 0.4 0.4 -0.7
v 0.7 0.4 -0.7
v -0.8 0.4 -0.8
v -0.5 0.4 -0.8
v -0.3 0.4 -0.8
v -0.2 0.4 -0.8
v -0.1 0.4 -0.8
v 5.96046e-08 0.4 -0.8
v 0.1 0.4 -0.8
v 0.4 0.4 -0.8
v 0.7 0.4 -0.8
v 0.8 0.4 -0.8

# faces
f 3/1/1 2/1/1 1/1/1
f 4/1/1 2/1/1 3/1/1
f 5/1/1 2/1/1 4/1/1
f 6/1/1 2/1/1 5/1/1
f 7/1/1 2/1/1 6/1/1
f 8/1/1 2/1/1 7/1/1
f 9/1/1 2/1/1 8/1/1
f 10/1/1 2/1/1 9/1/1
f 11/1/1 2/1/1 10/1/1
f 12/1/1 2/1/1 11/1/1
f 13/1/1 2/1/1 12/1/1
f 14/2/1 4/2/1 3/2/1
f 15/5/1 5/5/1 4/5/1
f 15/2/1 4/2/1 14/2/1
f 16/4/1 6/4/1 5/4/1
f 16/5/1 5/5/1 15/5/1
f 17/5/1 7/5/1 6/5/1
f 17/4/1 6/4/1 16/4/1
f 18/4/1 8/4/1 7/4/1
f 18/5/1 7/5/1 17/5/1
f 19/2/1 9/2/1 8/2/1
f 19/4/1 8/4/1 18/4/1
f 20/5/1 10/5/1 9/5/1
f 20/2/1 9/2/1 19/2/1
f 21/4/1 11/4/1 10/4/1
f 21/5/1 10/5/1 20/5/1
f 22/5/1 12/5/1 11/5/1
f 22/4/1 11/4/1 21/4/1
f 23/4/1 13/4/1 12/4/1
f 23/5/1 12/5/1 22/5/1
f 24/4/1 13/4/1 23/4/1
f 25/1/2 26/1/2 27/1/2
f 27/1/2 26/1/2 28/1/2
f 27/2/2 28/2/2 29/2/2
f 29/2/2 28/2/2 30/2/2
f 34/1/3 32/1/3 31/1/3
f 35/2/3 33/2/3 32/2/3
f 35/1/3 32/1/3 34/1/3
f 36/2/3 33/2/3 35/2/3
f 37/1/4 38/1/4 40/1/4
f 38/4/4 39/4/4 40/4/4
f 40/4/4 39/4/4 41/4/4
f 37/1/4 40/1/4 42/1/4
f 40/5/4 41/5/4 42/5/4
f 42/5/4 41/5/4 43/5/4
f 37/1/4 42/1/4 44/1/4
f 42/4/4 43/4/4 44/4/4
f 44/4/4 43/4/4 45/4/4
f 37/1/4 44/1/4 46/1/4
f 44/5/4 45/5/4 46/5/4
f 46/5/4 45/5/4 47/5/4
f 37/1/4 46/1/4 48/1/4
f 46/2/4 47/2/4 48/2/4
f 48/2/4 47/2/4 49/2/4
f 37/1/4 48/1/4 50/1/4
f 48/4/4 49/4/4 50/4/4
f 50/4/4 49/4/4 51/4/4
f 37/1/4 50/1/4 52/1/4
f 50/5/4 51/5/4 52/5/4
f 52/5/4 51/5/4 53/5/4
f 37/1/4 52/1/4 54/1/4
f 52/4/4 53/4/4 54/4/4
f 54/4/4 53/4/4 55/4/4
f 37/1/4 54/1/4 56/1/4
f 54/2/4 55/2/4 57/2/4
f 56/1/4 54/1/4 57/1/4
f 57/2/4 55/2/4 58/2/4
f 61/1/5 60/1/5 59/1/5
f 62/1/5 60/1/5 61/1/5
f 63/2/6 64/2/6 65/2/6
f 65/2/6 64/2/6 66/2/6
f 66/2/6 64/2/6 67/2/6
f 67/2/6 64/2/6 68/2/6
f 68/2/6 64/2/6 69/2/6
f 69/2/6 64/2/6 70/2/6
f 70/2/6 64/2/6 71/2/6
f 66/3/6 67/3/6 72/3/6
f 72/3/6 67/3/6 73/3/6
f 73/3/6 67/3/6 74/3/6
f 67/2/6 68/2/6 75/2/6
f 74/3/6 67/3/6 75/3/6
f 68/5/6 69/5/6 76/5/6
f 75/2/6 68/2/6 76/2/6
f 69/6/6 70/6/6 77/6/6
f 76/5/6 69/5/6 77/5/6
f 70/3/6 71/3/6 78/3/6
f 78/3/6 71/3/6 79/3/6
f 79/3/6 71/3/6 80/3/6
f 65/5/6 66/5/6 81/5/6
f 66/3/6 72/3/6 81/3/6
f 81/3/6 72/3/6 82/3/6
f 75/2/6 76/2/6 83/2/6
f 76/4/6 77/4/6 83/4/6
f 77/6/6 70/6/6 84/6/6
f 83/4/6 77/4/6 84/4/6
f 70/3/6 78/3/6 85/3/6
f 84/6/6 70/6/6 85/6/6
f 78/6/6 79/6/6 86/6/6
f 85/3/6 78/3/6 86/3/6
f 79/1/6 80/1/6 87/1/6
f 86/6/6 79/6/6 87/6/6
f 80/3/6 71/3/6 88/3/6
f 87/1/6 80/1/6 88/1/6
f 65/5/6 81/5/6 89/5/6
f 81/6/6 82/6/6 90/6/6
f 89/5/6 81/5/6 90/5/6
f 73/3/6 74/3/6 91/3/6
f 72/6/6 73/6/6 91/6/6
f 74/6/6 75/6/6 92/6/6
f 91/3/6 74/3/6 92/3/6
f 75/2/6 83/2/6 93/2/6
f 92/6/6 75/6/6 93/6/6
f 85/6/6 86/6/6 94/6/6
f 84/1/6 85/1/6 94/1/6
f 86/1/6 87/1/6 95/1/6
f 94/6/6 86/6/6 95/6/6
f 88/3/6 71/3/6 96/3/6
f 71/2/6 64/2/6 97/2/6
f 96/3/6 71/3/6 97/3/6
f 90/6/6 82/6/6 98/6/6
f 89/4/6 90/4/6 98/4/6
f 82/3/6 72/3/6 99/3/6
f 98/6/6 82/6/6 99/6/6
f 72/6/6 91/6/6 100/6/6
f 99/3/6 72/3/6 100/3/6
f 91/6/6 92/6/6 100/6/6
f 92/1/6 93/1/6 101/1/6
f 100/6/6 92/6/6 101/6/6
f 88/3/6 96/3/6 102/3/6
f 87/6/6 88/6/6 102/6/6
f 96/6/6 97/6/6 103/6/6
f 102/3/6 96/3/6 103/3/6
f 89/4/6 98/4/6 104/4/6
f 98/1/6 99/1/6 105/1/6
f 104/4/6 98/4/6 105/4/6
f 99/6/6 100/6/6 106/6/6
f 105/1/6 99/1/6 106/1/6
f 100/1/6 101/1/6 107/1/6
f 106/6/6 100/6/6 107/6/6
f 94/1/6 95/1/6 108/1/6
f 87/6/6 102/6/6 108/6/6
f 95/1/6 87/1/6 108/1/6
f 102/6/6 103/6/6 108/6/6
f 97/2/6 64/2/6 109/2/6
f 108/6/6 103/6/6 109/6/6
f 103/6/6 97/6/6 109/6/6
f 104/5/6 105/5/6 110/5/6
f 105/1/6 106/1/6 111/1/6
f 110/5/6 105/5/6 111/5/6
f 106/1/6 107/1/6 111/1/6
f 111/1/6 107/1/6 112/1/6
f 112/1/6 107/1/6 113/1/6
f 107/1/6 101/1/6 114/1/6
f 113/1/6 107/1/6 114/1/6
f 101/1/6 93/1/6 115/1/6
f 114/1/6 101/1/6 115/1/6
f 93/2/6 83/2/6 116/2/6
f 115/1/6 93/1/6 116/1/6
f 83/5/6 84/5/6 117/5/6
f 116/2/6 83/2/6 117/2/6
f 84/1/6 94/1/6 118/1/6
f 117/5/6 84/5/6 118/5/6
f 94/1/6 108/1/6 118/1/6
f 108/1/6 109/1/6 118/1/6
f 118/1/6 109/1/6 119/1/6
f 119/1/6 109/1/6 120/1/6
f 109/2/6 64/2/6 121/2/6
f 120/1/6 109/1/6 121/1/6
f 111/4/6 112/4/6 122/4/6
f 110/4/6 111/4/6 122/4/6
f 112/5/6 113/5/6 123/5/6
f 122/4/6 112/4/6 123/4/6
f 113/4/6 114/4/6 124/4/6
f 123/5/6 113/5/6 124/5/6
f 114/5/6 115/5/6 125/5/6
f 124/4/6 114/4/6 125/4/6
f 115/4/6 116/4/6 126/4/6
f 125/5/6 115/5/6 126/5/6
f 116/2/6 117/2/6 127/2/6
f 126/4/6 116/4/6 127/4/6
f 117/4/6 118/4/6 128/4/6
f 127/2/6 117/2/6 128/2/6
f 118/5/6 119/5/6 129/5/6
f 128/4/6 118/4/6 129/4/6
f 119/4/6 120/4/6 130/4/6
f 129/5/6 119/5/6 130/5/6
f 120/5/6 121/5/6 131/5/6
f 130/4/6 120/4/6 131/4/6
f 121/2/6 64/2/6 132/2/6
f 131/5/6 121/5/6 132/5/6
f 125/2/6 126/2/6 133/2/6
f 122/2/6 123/2/6 133/2/6
f 131/2/6 132/2/6 133/2/6
f 127/2/6 128/2/6 133/2/6
f 126/2/6 127/2/6 133/2/6
f 128/2/6 129/2/6 133/2/6
f 124/2/6 125/2/6 133/2/6
f 130/2/6 131/2/6 133/2/6
f 129/2/6 130/2/6 133/2/6
f 123/2/6 124/2/6 133/2/6
f 133/2/6 132/2/6 134/2/6
f 134/2/6 132/2/6 135/2/6
f 135/2/6 132/2/6 136/2/6
f 136/2/6 132/2/6 137/2/6
f 137/2/6 132/2/6 138/2/6
f 132/2/6 64/2/6 139/2/6
f 138/2/6 132/2/6 139/2/6
f 133/5/6 134/5/6 140/5/6
f 134/1/6 135/1/6 140/1/6
f 135/3/6 136/3/6 141/3/6
f 140/1/6 135/1/6 141/1/6
f 137/5/6 138/5/6 142/5/6
f 138/3/6 139/3/6 142/3/6
f 142/3/6 139/3/6 143/3/6
f 143/3/6 139/3/6 144/3/6
f 144/3/6 139/3/6 145/3/6
f 133/5/6 140/5/6 146/5/6
f 140/3/6 141/3/6 147/3/6
f 146/5/6 140/5/6 147/5/6
f 141/3/6 136/3/6 148/3/6
f 147/3/6 141/3/6 148/3/6
f 136/2/6 137/2/6 149/2/6
f 137/5/6 142/5/6 149/5/6
f 142/6/6 143/6/6 150/6/6
f 149/5/6 142/5/6 150/5/6
f 143/3/6 144/3/6 151/3/6
f 150/6/6 143/6/6 151/6/6
f 144/6/6 145/6/6 152/6/6
f 151/3/6 144/3/6 152/3/6
f 145/3/6 139/3/6 153/3/6
f 152/6/6 145/6/6 153/6/6
f 147/6/6 148/6/6 154/6/6
f 154/6/6 148/6/6 155/6/6
f 155/6/6 148/6/6 156/6/6
f 148/3/6 136/3/6 157/3/6
f 156/6/6 148/6/6 157/6/6
f 136/2/6 149/2/6 158/2/6
f 157/3/6 136/3/6 158/3/6
f 153/3/6 139/3/6 159/3/6
f 152/1/6 153/1/6 159/1/6
f 139/2/6 64/2/6 160/2/6
f 159/3/6 139/3/6 160/3/6
f 146/4/6 147/4/6 161/4/6
f 147/6/6 154/6/6 162/6/6
f 161/4/6 147/4/6 162/4/6
f 154/1/6 155/1/6 163/1/6
f 162/6/6 154/6/6 163/6/6
f 155/6/6 156/6/6 164/6/6
f 163/1/6 155/1/6 164/1/6
f 156/1/6 157/1/6 165/1/6
f 164/6/6 156/6/6 165/6/6
f 157/6/6 158/6/6 166/6/6
f 165/1/6 157/1/6 166/1/6
f 158/2/6 149/2/6 167/2/6
f 166/6/6 158/6/6 167/6/6
f 149/4/6 150/4/6 168/4/6
f 167/2/6 149/2/6 168/2/6
f 150/1/6 151/1/6 169/1/6
f 168/4/6 150/4/6 169/4/6
f 151/6/6 152/6/6 170/6/6
f 169/1/6 151/1/6 170/1/6
f 152/1/6 159/1/6 171/1/6
f 170/6/6 152/6/6 171/6/6
f 159/6/6 160/6/6 172/6/6
f 171/1/6 159/1/6 172/1/6
f 160/2/6 64/2/6 173/2/6
f 172/6/6 160/6/6 173/6/6
f 161/5/6 162/5/6 174/5/6
f 162/1/6 163/1/6 175/1/6
f 174/5/6 162/5/6 175/5/6
f 165/1/6 166/1/6 175/1/6
f 163/1/6 164/1/6 175/1/6
f 166/1/6 167/1/6 175/1/6
f 164/1/6 165/1/6 175/1/6
f 175/1/6 167/1/6 176/1/6
f 176/1/6 167/1/6 177/1/6
f 177/1/6 167/1/6 178/1/6
f 167/2/6 168/2/6 179/2/6
f 178/1/6 167/1/6 179/1/6
f 168/5/6 169/5/6 180/5/6
f 179/2/6 168/2/6 180/2/6
f 171/1/6 172/1/6 181/1/6
f 180/5/6 169/5/6 181/5/6
f 169/1/6 170/1/6 181/1/6
f 172/1/6 173/1/6 181/1/6
f 170/1/6 171/1/6 181/1/6
f 181/1/6 173/1/6 182/1/6
f 173/2/6 64/2/6 183/2/6
f 182/1/6 173/1/6 183/1/6
f 175/4/6 176/4/6 184/4/6
f 174/4/6 175/4/6 184/4/6
f 176/5/6 177/5/6 185/5/6
f 184/4/6 176/4/6 185/4/6
f 177/4/6 178/4/6 186/4/6
f 185/5/6 177/5/6 186/5/6
f 178/5/6 179/5/6 187/5/6
f 186/4/6 178/4/6 187/4/6
f 179/2/6 180/2/6 188/2/6
f 187/5/6 179/5/6 188/5/6
f 180/4/6 181/4/6 189/4/6
f 188/2/6 180/2/6 189/2/6
f 181/5/6 182/5/6 190/5/6
f 189/4/6 181/4/6 190/4/6
f 182/4/6 183/4/6 191/4/6
f 190/5/6 182/5/6 191/5/6
f 183/2/6 64/2/6 192/2/6
f 191/4/6 183/4/6 192/4/6
f 192/2/6 64/2/6 193/2/6
