# MagicaVoxel @ Ephtracy

# group
o 

# material
mtllib Arrow.mtl
usemtl palette

# normals
vn -1 0 0
vn 1 0 0
vn 0 0 1
vn 0 0 -1
vn 0 -1 0
vn 0 1 0

# texcoords
vt 0.306641 0.5
vt 0.310547 0.5
vt 0.935547 0.5
vt 0.966797 0.5
vt 0.990234 0.5

# verts
v -1 0 0.8
v -1 0 0.7
v -1 0 0.6
v -1 0.1 0.8
v -1 0.1 0.7
v -1 0.1 0.6
v -0.9 0 0.9
v -0.9 0 0.8
v -0.9 0 0.6
v -0.9 0 0.5
v -0.9 0.1 0.9
v -0.9 0.1 0.8
v -0.9 0.1 0.6
v -0.9 0.1 0.5
v -0.7 0 0.5
v -0.7 0 0.4
v -0.7 0.1 0.5
v -0.7 0.1 0.4
v -0.6 0 0.4
v -0.6 0 0.3
v -0.6 0.1 0.4
v -0.6 0.1 0.3
v -0.5 0 0.3
v -0.5 0 0.2
v -0.5 0.1 0.3
v -0.5 0.1 0.2
v -0.4 0 0.2
v -0.4 0 0.1
v -0.4 0.1 0.2
v -0.4 0.1 0.1
v -0.3 0 0.1
v -0.3 0 0
v -0.3 0 -0.2
v -0.3 0 -0.3
v -0.3 0.1 0.1
v -0.3 0.1 0
v -0.3 0.1 -0.2
v -0.3 0.1 -0.3
v -0.2 0 0
v -0.2 0 -0.1
v -0.2 0 -0.2
v -0.2 0.1 0
v -0.2 0.1 -0.1
v -0.2 0.1 -0.2
v 1.19209e-07 0 0.1
v 1.19209e-07 0 0
v 1.19209e-07 0 -0.3
v 1.19209e-07 0 -0.4
v 1.19209e-07 0.1 0.1
v 1.19209e-07 0.1 0
v 1.19209e-07 0.1 -0.3
v 1.19209e-07 0.1 -0.4
v -0.8 0 0.9
v -0.8 0 0.8
v -0.8 0.1 0.9
v -0.8 0.1 0.8
v -0.7 0 0.8
v -0.7 0 0.7
v -0.7 0.1 0.8
v -0.7 0.1 0.7
v -0.6 0 0.7
v -0.6 0 0.6
v -0.6 0 0.5
v -0.6 0.1 0.7
v -0.6 0.1 0.6
v -0.6 0.1 0.5
v -0.5 0 0.5
v -0.5 0 0.4
v -0.5 0.1 0.5
v -0.5 0.1 0.4
v -0.4 0 0.4
v -0.4 0 0.3
v -0.4 0.1 0.4
v -0.4 0.1 0.3
v -0.3 0 0.3
v -0.3 0 0.2
v -0.3 0.1 0.3
v -0.3 0.1 0.2
v -0.2 0 0.2
v -0.2 0 0.1
v -0.2 0.1 0.2
v -0.2 0.1 0.1
v -0.0999999 0 0.1
v -0.0999999 0 0
v -0.0999999 0.1 0.1
v -0.0999999 0.1 0
v 0.1 0 0.1
v 0.1 0 0
v 0.1 0.1 0.1
v 0.1 0.1 0
v 0.2 0 0
v 0.2 0 -0.2
v 0.2 0.1 0
v 0.2 0.1 -0.2
v 0.3 0 -0.2
v 0.3 0 -0.4
v 0.3 0.1 -0.2
v 0.3 0.1 -0.4
v -0.9 0 0.9
v -0.9 0.1 0.9
v -0.8 0 0.9
v -0.8 0.1 0.9
v -1 0 0.8
v -1 0.1 0.8
v -0.9 0 0.8
v -0.9 0.1 0.8
v -0.8 0 0.8
v -0.8 0.1 0.8
v -0.7 0 0.8
v -0.7 0.1 0.8
v -0.7 0 0.7
v -0.7 0.1 0.7
v -0.6 0 0.7
v -0.6 0.1 0.7
v -0.6 0 0.5
v -0.6 0.1 0.5
v -0.5 0 0.5
v -0.5 0.1 0.5
v -0.5 0 0.4
v -0.5 0.1 0.4
v -0.4 0 0.4
v -0.4 0.1 0.4
v -0.4 0 0.3
v -0.4 0.1 0.3
v -0.3 0 0.3
v -0.3 0.1 0.3
v -0.3 0 0.2
v -0.3 0.1 0.2
v -0.2 0 0.2
v -0.2 0.1 0.2
v -0.2 0 0.1
v -0.2 0.1 0.1
v -0.0999999 0 0.1
v -0.0999999 0.1 0.1
v 1.19209e-07 0 0.1
v 1.19209e-07 0.1 0.1
v 0.1 0 0.1
v 0.1 0.1 0.1
v -0.0999999 0 0
v -0.0999999 0.1 0
v 1.19209e-07 0 0
v 1.19209e-07 0.1 0
v 0.1 0 0
v 0.1 0.1 0
v 0.2 0 0
v 0.2 0.1 0
v -0.3 0 -0.2
v -0.3 0.1 -0.2
v -0.2 0 -0.2
v -0.2 0.1 -0.2
v 0.2 0 -0.2
v 0.2 0.1 -0.2
v 0.3 0 -0.2
v 0.3 0.1 -0.2
v -1 0 0.6
v -1 0.1 0.6
v -0.9 0 0.6
v -0.9 0.1 0.6
v -0.9 0 0.5
v -0.9 0.1 0.5
v -0.8 0 0.5
v -0.8 0.1 0.5
v -0.7 0 0.5
v -0.7 0.1 0.5
v -0.7 0 0.4
v -0.7 0.1 0.4
v -0.6 0 0.4
v -0.6 0.1 0.4
v -0.6 0 0.3
v -0.6 0.1 0.3
v -0.5 0 0.3
v -0.5 0.1 0.3
v -0.5 0 0.2
v -0.5 0.1 0.2
v -0.4 0 0.2
v -0.4 0.1 0.2
v -0.4 0 0.1
v -0.4 0.1 0.1
v -0.3 0 0.1
v -0.3 0.1 0.1
v -0.3 0 0
v -0.3 0.1 0
v -0.2 0 0
v -0.2 0.1 0
v -0.3 0 -0.3
v -0.3 0.1 -0.3
v -0.2 0 -0.3
v -0.2 0.1 -0.3
v -0.0999999 0 -0.3
v -0.0999999 0.1 -0.3
v 1.19209e-07 0 -0.3
v 1.19209e-07 0.1 -0.3
v 1.19209e-07 0 -0.4
v 1.19209e-07 0.1 -0.4
v 0.1 0 -0.4
v 0.1 0.1 -0.4
v 0.2 0 -0.4
v 0.2 0.1 -0.4
v 0.3 0 -0.4
v 0.3 0.1 -0.4
v -0.9 0 0.9
v -0.8 0 0.9
v -1 0 0.8
v -0.9 0 0.8
v -0.8 0 0.8
v -0.7 0 0.8
v -1 0 0.7
v -0.9 0 0.7
v -0.8 0 0.7
v -0.7 0 0.7
v -0.6 0 0.7
v -1 0 0.6
v -0.9 0 0.6
v -0.8 0 0.6
v -0.7 0 0.6
v -0.6 0 0.6
v -0.9 0 0.5
v -0.8 0 0.5
v -0.7 0 0.5
v -0.6 0 0.5
v -0.5 0 0.5
v -0.7 0 0.4
v -0.6 0 0.4
v -0.5 0 0.4
v -0.4 0 0.4
v -0.6 0 0.3
v -0.5 0 0.3
v -0.4 0 0.3
v -0.3 0 0.3
v -0.5 0 0.2
v -0.4 0 0.2
v -0.3 0 0.2
v -0.2 0 0.2
v -0.4 0 0.1
v -0.3 0 0.1
v -0.2 0 0.1
v -0.0999999 0 0.1
v 1.19209e-07 0 0.1
v 0.1 0 0.1
v -0.3 0 0
v -0.2 0 0
v -0.0999999 0 0
v 1.19209e-07 0 0
v 0.1 0 0
v 0.2 0 0
v -0.2 0 -0.1
v -0.0999999 0 -0.1
v 1.19209e-07 0 -0.1
v 0.1 0 -0.1
v -0.3 0 -0.2
v -0.2 0 -0.2
v -0.0999999 0 -0.2
v 1.19209e-07 0 -0.2
v 0.1 0 -0.2
v 0.2 0 -0.2
v 0.3 0 -0.2
v -0.3 0 -0.3
v -0.2 0 -0.3
v -0.0999999 0 -0.3
v 1.19209e-07 0 -0.3
v 0.1 0 -0.3
v 0.2 0 -0.3
v 1.19209e-07 0 -0.4
v 0.1 0 -0.4
v 0.2 0 -0.4
v 0.3 0 -0.4
v -0.9 0.1 0.9
v -0.8 0.1 0.9
v -1 0.1 0.8
v -0.9 0.1 0.8
v -0.8 0.1 0.8
v -0.7 0.1 0.8
v -1 0.1 0.7
v -0.9 0.1 0.7
v -0.8 0.1 0.7
v -0.7 0.1 0.7
v -0.6 0.1 0.7
v -1 0.1 0.6
v -0.9 0.1 0.6
v -0.8 0.1 0.6
v -0.7 0.1 0.6
v -0.6 0.1 0.6
v -0.9 0.1 0.5
v -0.8 0.1 0.5
v -0.7 0.1 0.5
v -0.6 0.1 0.5
v -0.5 0.1 0.5
v -0.7 0.1 0.4
v -0.6 0.1 0.4
v -0.5 0.1 0.4
v -0.4 0.1 0.4
v -0.6 0.1 0.3
v -0.5 0.1 0.3
v -0.4 0.1 0.3
v -0.3 0.1 0.3
v -0.5 0.1 0.2
v -0.4 0.1 0.2
v -0.3 0.1 0.2
v -0.2 0.1 0.2
v -0.4 0.1 0.1
v -0.3 0.1 0.1
v -0.2 0.1 0.1
v -0.0999999 0.1 0.1
v 1.19209e-07 0.1 0.1
v 0.1 0.1 0.1
v -0.3 0.1 0
v -0.2 0.1 0
v -0.0999999 0.1 0
v 1.19209e-07 0.1 0
v 0.1 0.1 0
v 0.2 0.1 0
v -0.2 0.1 -0.1
v -0.0999999 0.1 -0.1
v 1.19209e-07 0.1 -0.1
v 0.1 0.1 -0.1
v -0.3 0.1 -0.2
v -0.2 0.1 -0.2
v -0.0999999 0.1 -0.2
v 1.19209e-07 0.1 -0.2
v 0.1 0.1 -0.2
v 0.2 0.1 -0.2
v 0.3 0.1 -0.2
v -0.3 0.1 -0.3
v -0.2 0.1 -0.3
v -0.0999999 0.1 -0.3
v 1.19209e-07 0.1 -0.3
v 0.1 0.1 -0.3
v 0.2 0.1 -0.3
v 1.19209e-07 0.1 -0.4
v 0.1 0.1 -0.4
v 0.2 0.1 -0.4
v 0.3 0.1 -0.4

# faces
f 4/5/1 2/5/1 1/5/1
f 5/4/1 3/4/1 2/4/1
f 5/5/1 2/5/1 4/5/1
f 6/4/1 3/4/1 5/4/1
f 11/5/1 8/5/1 7/5/1
f 12/5/1 8/5/1 11/5/1
f 13/4/1 10/4/1 9/4/1
f 14/4/1 10/4/1 13/4/1
f 17/1/1 16/1/1 15/1/1
f 18/1/1 16/1/1 17/1/1
f 21/1/1 20/1/1 19/1/1
f 22/1/1 20/1/1 21/1/1
f 25/1/1 24/1/1 23/1/1
f 26/1/1 24/1/1 25/1/1
f 29/1/1 28/1/1 27/1/1
f 30/1/1 28/1/1 29/1/1
f 35/1/1 32/1/1 31/1/1
f 36/1/1 32/1/1 35/1/1
f 37/5/1 34/5/1 33/5/1
f 38/5/1 34/5/1 37/5/1
f 42/1/1 40/1/1 39/1/1
f 43/2/1 41/2/1 40/2/1
f 43/1/1 40/1/1 42/1/1
f 44/2/1 41/2/1 43/2/1
f 49/5/1 46/5/1 45/5/1
f 50/5/1 46/5/1 49/5/1
f 51/3/1 48/3/1 47/3/1
f 52/3/1 48/3/1 51/3/1
f 53/5/2 54/5/2 55/5/2
f 55/5/2 54/5/2 56/5/2
f 57/5/2 58/5/2 59/5/2
f 59/5/2 58/5/2 60/5/2
f 61/5/2 62/5/2 64/5/2
f 62/2/2 63/2/2 65/2/2
f 64/5/2 62/5/2 65/5/2
f 65/2/2 63/2/2 66/2/2
f 67/2/2 68/2/2 69/2/2
f 69/2/2 68/2/2 70/2/2
f 71/2/2 72/2/2 73/2/2
f 73/2/2 72/2/2 74/2/2
f 75/2/2 76/2/2 77/2/2
f 77/2/2 76/2/2 78/2/2
f 79/2/2 80/2/2 81/2/2
f 81/2/2 80/2/2 82/2/2
f 83/2/2 84/2/2 85/2/2
f 85/2/2 84/2/2 86/2/2
f 87/5/2 88/5/2 89/5/2
f 89/5/2 88/5/2 90/5/2
f 91/5/2 92/5/2 93/5/2
f 93/5/2 92/5/2 94/5/2
f 95/5/2 96/5/2 97/5/2
f 97/5/2 96/5/2 98/5/2
f 101/5/3 100/5/3 99/5/3
f 102/5/3 100/5/3 101/5/3
f 105/5/3 104/5/3 103/5/3
f 106/5/3 104/5/3 105/5/3
f 109/5/3 108/5/3 107/5/3
f 110/5/3 108/5/3 109/5/3
f 113/5/3 112/5/3 111/5/3
f 114/5/3 112/5/3 113/5/3
f 117/2/3 116/2/3 115/2/3
f 118/2/3 116/2/3 117/2/3
f 121/2/3 120/2/3 119/2/3
f 122/2/3 120/2/3 121/2/3
f 125/2/3 124/2/3 123/2/3
f 126/2/3 124/2/3 125/2/3
f 129/2/3 128/2/3 127/2/3
f 130/2/3 128/2/3 129/2/3
f 133/2/3 132/2/3 131/2/3
f 134/2/3 132/2/3 133/2/3
f 137/5/3 136/5/3 135/5/3
f 138/5/3 136/5/3 137/5/3
f 141/2/3 140/2/3 139/2/3
f 142/2/3 140/2/3 141/2/3
f 145/5/3 144/5/3 143/5/3
f 146/5/3 144/5/3 145/5/3
f 149/5/3 148/5/3 147/5/3
f 150/5/3 148/5/3 149/5/3
f 153/5/3 152/5/3 151/5/3
f 154/5/3 152/5/3 153/5/3
f 155/4/4 156/4/4 157/4/4
f 157/4/4 156/4/4 158/4/4
f 159/4/4 160/4/4 161/4/4
f 161/4/4 160/4/4 162/4/4
f 161/3/4 162/3/4 163/3/4
f 163/3/4 162/3/4 164/3/4
f 165/1/4 166/1/4 167/1/4
f 167/1/4 166/1/4 168/1/4
f 169/1/4 170/1/4 171/1/4
f 171/1/4 170/1/4 172/1/4
f 173/1/4 174/1/4 175/1/4
f 175/1/4 174/1/4 176/1/4
f 177/1/4 178/1/4 179/1/4
f 179/1/4 178/1/4 180/1/4
f 181/1/4 182/1/4 183/1/4
f 183/1/4 182/1/4 184/1/4
f 185/5/4 186/5/4 187/5/4
f 187/5/4 186/5/4 188/5/4
f 187/3/4 188/3/4 189/3/4
f 189/3/4 188/3/4 190/3/4
f 189/4/4 190/4/4 191/4/4
f 191/4/4 190/4/4 192/4/4
f 193/3/4 194/3/4 195/3/4
f 195/3/4 194/3/4 196/3/4
f 195/4/4 196/4/4 197/4/4
f 197/4/4 196/4/4 198/4/4
f 197/5/4 198/5/4 199/5/4
f 199/5/4 198/5/4 200/5/4
f 204/5/5 202/5/5 201/5/5
f 205/5/5 202/5/5 204/5/5
f 207/5/5 204/5/5 203/5/5
f 208/4/5 205/4/5 204/4/5
f 208/5/5 204/5/5 207/5/5
f 209/5/5 206/5/5 205/5/5
f 209/4/5 205/4/5 208/4/5
f 210/5/5 206/5/5 209/5/5
f 212/4/5 208/4/5 207/4/5
f 213/3/5 209/3/5 208/3/5
f 213/4/5 208/4/5 212/4/5
f 214/4/5 210/4/5 209/4/5
f 214/3/5 209/3/5 213/3/5
f 215/5/5 211/5/5 210/5/5
f 215/4/5 210/4/5 214/4/5
f 216/5/5 211/5/5 215/5/5
f 217/4/5 214/4/5 213/4/5
f 218/3/5 215/3/5 214/3/5
f 218/4/5 214/4/5 217/4/5
f 219/2/5 216/2/5 215/2/5
f 219/3/5 215/3/5 218/3/5
f 220/2/5 216/2/5 219/2/5
f 222/1/5 220/1/5 219/1/5
f 223/2/5 221/2/5 220/2/5
f 223/1/5 220/1/5 222/1/5
f 224/2/5 221/2/5 223/2/5
f 226/1/5 224/1/5 223/1/5
f 227/2/5 225/2/5 224/2/5
f 227/1/5 224/1/5 226/1/5
f 228/2/5 225/2/5 227/2/5
f 230/1/5 228/1/5 227/1/5
f 231/2/5 229/2/5 228/2/5
f 231/1/5 228/1/5 230/1/5
f 232/2/5 229/2/5 231/2/5
f 234/1/5 232/1/5 231/1/5
f 235/2/5 233/2/5 232/2/5
f 235/1/5 232/1/5 234/1/5
f 236/2/5 233/2/5 235/2/5
f 240/1/5 236/1/5 235/1/5
f 241/2/5 237/2/5 236/2/5
f 241/1/5 236/1/5 240/1/5
f 242/2/5 237/2/5 241/2/5
f 243/5/5 239/5/5 238/5/5
f 244/5/5 239/5/5 243/5/5
f 246/1/5 242/1/5 241/1/5
f 247/2/5 243/2/5 242/2/5
f 247/1/5 242/1/5 246/1/5
f 248/3/5 244/3/5 243/3/5
f 248/2/5 243/2/5 247/2/5
f 249/5/5 245/5/5 244/5/5
f 249/3/5 244/3/5 248/3/5
f 251/2/5 247/2/5 246/2/5
f 252/1/5 248/1/5 247/1/5
f 252/2/5 247/2/5 251/2/5
f 253/4/5 249/4/5 248/4/5
f 253/1/5 248/1/5 252/1/5
f 254/5/5 245/5/5 249/5/5
f 254/4/5 249/4/5 253/4/5
f 255/5/5 245/5/5 254/5/5
f 257/5/5 251/5/5 250/5/5
f 258/3/5 252/3/5 251/3/5
f 258/5/5 251/5/5 257/5/5
f 259/4/5 253/4/5 252/4/5
f 259/3/5 252/3/5 258/3/5
f 259/4/5 254/4/5 253/4/5
f 260/4/5 254/4/5 259/4/5
f 261/3/5 255/3/5 254/3/5
f 261/4/5 254/4/5 260/4/5
f 262/5/5 256/5/5 255/5/5
f 262/3/5 255/3/5 261/3/5
f 263/3/5 261/3/5 260/3/5
f 264/4/5 262/4/5 261/4/5
f 264/3/5 261/3/5 263/3/5
f 265/5/5 256/5/5 262/5/5
f 265/4/5 262/4/5 264/4/5
f 266/5/5 256/5/5 265/5/5
f 267/5/6 268/5/6 270/5/6
f 270/5/6 268/5/6 271/5/6
f 269/5/6 270/5/6 273/5/6
f 270/4/6 271/4/6 274/4/6
f 273/5/6 270/5/6 274/5/6
f 271/5/6 272/5/6 275/5/6
f 274/4/6 271/4/6 275/4/6
f 275/5/6 272/5/6 276/5/6
f 273/4/6 274/4/6 278/4/6
f 274/3/6 275/3/6 279/3/6
f 278/4/6 274/4/6 279/4/6
f 275/4/6 276/4/6 280/4/6
f 279/3/6 275/3/6 280/3/6
f 276/5/6 277/5/6 281/5/6
f 280/4/6 276/4/6 281/4/6
f 281/5/6 277/5/6 282/5/6
f 279/4/6 280/4/6 283/4/6
f 280/3/6 281/3/6 284/3/6
f 283/4/6 280/4/6 284/4/6
f 281/2/6 282/2/6 285/2/6
f 284/3/6 281/3/6 285/3/6
f 285/2/6 282/2/6 286/2/6
f 285/1/6 286/1/6 288/1/6
f 286/2/6 287/2/6 289/2/6
f 288/1/6 286/1/6 289/1/6
f 289/2/6 287/2/6 290/2/6
f 289/1/6 290/1/6 292/1/6
f 290/2/6 291/2/6 293/2/6
f 292/1/6 290/1/6 293/1/6
f 293/2/6 291/2/6 294/2/6
f 293/1/6 294/1/6 296/1/6
f 294/2/6 295/2/6 297/2/6
f 296/1/6 294/1/6 297/1/6
f 297/2/6 295/2/6 298/2/6
f 297/1/6 298/1/6 300/1/6
f 298/2/6 299/2/6 301/2/6
f 300/1/6 298/1/6 301/1/6
f 301/2/6 299/2/6 302/2/6
f 301/1/6 302/1/6 306/1/6
f 302/2/6 303/2/6 307/2/6
f 306/1/6 302/1/6 307/1/6
f 307/2/6 303/2/6 308/2/6
f 304/5/6 305/5/6 309/5/6
f 309/5/6 305/5/6 310/5/6
f 307/1/6 308/1/6 312/1/6
f 308/2/6 309/2/6 313/2/6
f 312/1/6 308/1/6 313/1/6
f 309/3/6 310/3/6 314/3/6
f 313/2/6 309/2/6 314/2/6
f 310/5/6 311/5/6 315/5/6
f 314/3/6 310/3/6 315/3/6
f 312/2/6 313/2/6 317/2/6
f 313/1/6 314/1/6 318/1/6
f 317/2/6 313/2/6 318/2/6
f 314/4/6 315/4/6 319/4/6
f 318/1/6 314/1/6 319/1/6
f 315/5/6 311/5/6 320/5/6
f 319/4/6 315/4/6 320/4/6
f 320/5/6 311/5/6 321/5/6
f 316/5/6 317/5/6 323/5/6
f 317/3/6 318/3/6 324/3/6
f 323/5/6 317/5/6 324/5/6
f 318/4/6 319/4/6 325/4/6
f 324/3/6 318/3/6 325/3/6
f 319/4/6 320/4/6 325/4/6
f 325/4/6 320/4/6 326/4/6
f 320/3/6 321/3/6 327/3/6
f 326/4/6 320/4/6 327/4/6
f 321/5/6 322/5/6 328/5/6
f 327/3/6 321/3/6 328/3/6
f 326/3/6 327/3/6 329/3/6
f 327/4/6 328/4/6 330/4/6
f 329/3/6 327/3/6 330/3/6
f 328/5/6 322/5/6 331/5/6
f 330/4/6 328/4/6 331/4/6
f 331/5/6 322/5/6 332/5/6
