# MagicaVoxel @ Ephtracy

# group
o 

# material
mtllib Arrow.mtl
usemtl palette

# normals
vn -1 0 0
vn 1 0 0
vn 0 0 1
vn 0 0 -1
vn 0 -1 0
vn 0 1 0

# texcoords
vt 0.306641 0.5
vt 0.310547 0.5
vt 0.935547 0.5
vt 0.966797 0.5
vt 0.990234 0.5

# verts
v -0.3 0 0.4
v -0.3 0 0.2
v -0.3 0.1 0.4
v -0.3 0.1 0.2
v -0.2 0 0.2
v -0.2 0 0
v -0.2 0.1 0.2
v -0.2 0.1 0
v -0.1 0 0
v -0.1 0 -0.1
v -0.1 0.1 0
v -0.1 0.1 -0.1
v 0.1 0 0
v 0.1 0 -0.1
v 0.1 0.1 0
v 0.1 0.1 -0.1
v 0.2 0 -0.1
v 0.2 0 -0.2
v 0.2 0.1 -0.1
v 0.2 0.1 -0.2
v 0.3 0 -0.2
v 0.3 0 -0.3
v 0.3 0.1 -0.2
v 0.3 0.1 -0.3
v 0.4 0 -0.3
v 0.4 0 -0.4
v 0.4 0.1 -0.3
v 0.4 0.1 -0.4
v 0.5 0 -0.4
v 0.5 0 -0.5
v 0.5 0.1 -0.4
v 0.5 0.1 -0.5
v 0.6 0 -0.5
v 0.6 0 -0.6
v 0.6 0 -0.7
v 0.6 0.1 -0.5
v 0.6 0.1 -0.6
v 0.6 0.1 -0.7
v 0.7 0 -0.7
v 0.7 0 -0.8
v 0.7 0.1 -0.7
v 0.7 0.1 -0.8
v 0.8 0 -0.8
v 0.8 0 -0.9
v 0.8 0.1 -0.8
v 0.8 0.1 -0.9
v 2.98023e-08 0 0.4
v 2.98023e-08 0 0.3
v 2.98023e-08 0 0
v 2.98023e-08 0 -0.1
v 2.98023e-08 0.1 0.4
v 2.98023e-08 0.1 0.3
v 2.98023e-08 0.1 0
v 2.98023e-08 0.1 -0.1
v 0.2 0 0.2
v 0.2 0 0.1
v 0.2 0 0
v 0.2 0.1 0.2
v 0.2 0.1 0.1
v 0.2 0.1 0
v 0.3 0 0.3
v 0.3 0 0.2
v 0.3 0 0
v 0.3 0 -0.1
v 0.3 0.1 0.3
v 0.3 0.1 0.2
v 0.3 0.1 0
v 0.3 0.1 -0.1
v 0.4 0 -0.1
v 0.4 0 -0.2
v 0.4 0.1 -0.1
v 0.4 0.1 -0.2
v 0.5 0 -0.2
v 0.5 0 -0.3
v 0.5 0.1 -0.2
v 0.5 0.1 -0.3
v 0.6 0 -0.3
v 0.6 0 -0.4
v 0.6 0.1 -0.3
v 0.6 0.1 -0.4
v 0.7 0 -0.4
v 0.7 0 -0.5
v 0.7 0.1 -0.4
v 0.7 0.1 -0.5
v 0.9 0 -0.5
v 0.9 0 -0.6
v 0.9 0 -0.8
v 0.9 0 -0.9
v 0.9 0.1 -0.5
v 0.9 0.1 -0.6
v 0.9 0.1 -0.8
v 0.9 0.1 -0.9
v 1 0 -0.6
v 1 0 -0.7
v 1 0 -0.8
v 1 0.1 -0.6
v 1 0.1 -0.7
v 1 0.1 -0.8
v -0.3 0 0.4
v -0.3 0.1 0.4
v -0.2 0 0.4
v -0.2 0.1 0.4
v -0.1 0 0.4
v -0.1 0.1 0.4
v 2.98023e-08 0 0.4
v 2.98023e-08 0.1 0.4
v 2.98023e-08 0 0.3
v 2.98023e-08 0.1 0.3
v 0.1 0 0.3
v 0.1 0.1 0.3
v 0.2 0 0.3
v 0.2 0.1 0.3
v 0.3 0 0.3
v 0.3 0.1 0.3
v 0.2 0 0
v 0.2 0.1 0
v 0.3 0 0
v 0.3 0.1 0
v 0.3 0 -0.1
v 0.3 0.1 -0.1
v 0.4 0 -0.1
v 0.4 0.1 -0.1
v 0.4 0 -0.2
v 0.4 0.1 -0.2
v 0.5 0 -0.2
v 0.5 0.1 -0.2
v 0.5 0 -0.3
v 0.5 0.1 -0.3
v 0.6 0 -0.3
v 0.6 0.1 -0.3
v 0.6 0 -0.4
v 0.6 0.1 -0.4
v 0.7 0 -0.4
v 0.7 0.1 -0.4
v 0.7 0 -0.5
v 0.7 0.1 -0.5
v 0.8 0 -0.5
v 0.8 0.1 -0.5
v 0.9 0 -0.5
v 0.9 0.1 -0.5
v 0.9 0 -0.6
v 0.9 0.1 -0.6
v 1 0 -0.6
v 1 0.1 -0.6
v -0.3 0 0.2
v -0.3 0.1 0.2
v -0.2 0 0.2
v -0.2 0.1 0.2
v 0.2 0 0.2
v 0.2 0.1 0.2
v 0.3 0 0.2
v 0.3 0.1 0.2
v -0.2 0 0
v -0.2 0.1 0
v -0.1 0 0
v -0.1 0.1 0
v 2.98023e-08 0 0
v 2.98023e-08 0.1 0
v 0.1 0 0
v 0.1 0.1 0
v -0.1 0 -0.1
v -0.1 0.1 -0.1
v 2.98023e-08 0 -0.1
v 2.98023e-08 0.1 -0.1
v 0.1 0 -0.1
v 0.1 0.1 -0.1
v 0.2 0 -0.1
v 0.2 0.1 -0.1
v 0.2 0 -0.2
v 0.2 0.1 -0.2
v 0.3 0 -0.2
v 0.3 0.1 -0.2
v 0.3 0 -0.3
v 0.3 0.1 -0.3
v 0.4 0 -0.3
v 0.4 0.1 -0.3
v 0.4 0 -0.4
v 0.4 0.1 -0.4
v 0.5 0 -0.4
v 0.5 0.1 -0.4
v 0.5 0 -0.5
v 0.5 0.1 -0.5
v 0.6 0 -0.5
v 0.6 0.1 -0.5
v 0.6 0 -0.7
v 0.6 0.1 -0.7
v 0.7 0 -0.7
v 0.7 0.1 -0.7
v 0.7 0 -0.8
v 0.7 0.1 -0.8
v 0.8 0 -0.8
v 0.8 0.1 -0.8
v 0.9 0 -0.8
v 0.9 0.1 -0.8
v 1 0 -0.8
v 1 0.1 -0.8
v 0.8 0 -0.9
v 0.8 0.1 -0.9
v 0.9 0 -0.9
v 0.9 0.1 -0.9
v -0.3 0 0.4
v -0.2 0 0.4
v -0.1 0 0.4
v 2.98023e-08 0 0.4
v -0.2 0 0.3
v -0.1 0 0.3
v 2.98023e-08 0 0.3
v 0.1 0 0.3
v 0.2 0 0.3
v 0.3 0 0.3
v -0.3 0 0.2
v -0.2 0 0.2
v -0.1 0 0.2
v 2.98023e-08 0 0.2
v 0.1 0 0.2
v 0.2 0 0.2
v 0.3 0 0.2
v -0.1 0 0.1
v 2.98023e-08 0 0.1
v 0.1 0 0.1
v 0.2 0 0.1
v -0.2 0 0
v -0.1 0 0
v 2.98023e-08 0 0
v 0.1 0 0
v 0.2 0 0
v 0.3 0 0
v -0.1 0 -0.1
v 2.98023e-08 0 -0.1
v 0.1 0 -0.1
v 0.2 0 -0.1
v 0.3 0 -0.1
v 0.4 0 -0.1
v 0.2 0 -0.2
v 0.3 0 -0.2
v 0.4 0 -0.2
v 0.5 0 -0.2
v 0.3 0 -0.3
v 0.4 0 -0.3
v 0.5 0 -0.3
v 0.6 0 -0.3
v 0.4 0 -0.4
v 0.5 0 -0.4
v 0.6 0 -0.4
v 0.7 0 -0.4
v 0.5 0 -0.5
v 0.6 0 -0.5
v 0.7 0 -0.5
v 0.8 0 -0.5
v 0.9 0 -0.5
v 0.6 0 -0.6
v 0.7 0 -0.6
v 0.8 0 -0.6
v 0.9 0 -0.6
v 1 0 -0.6
v 0.6 0 -0.7
v 0.7 0 -0.7
v 0.8 0 -0.7
v 0.9 0 -0.7
v 1 0 -0.7
v 0.7 0 -0.8
v 0.8 0 -0.8
v 0.9 0 -0.8
v 1 0 -0.8
v 0.8 0 -0.9
v 0.9 0 -0.9
v -0.3 0.1 0.4
v -0.2 0.1 0.4
v -0.1 0.1 0.4
v 2.98023e-08 0.1 0.4
v -0.2 0.1 0.3
v -0.1 0.1 0.3
v 2.98023e-08 0.1 0.3
v 0.1 0.1 0.3
v 0.2 0.1 0.3
v 0.3 0.1 0.3
v -0.3 0.1 0.2
v -0.2 0.1 0.2
v -0.1 0.1 0.2
v 2.98023e-08 0.1 0.2
v 0.1 0.1 0.2
v 0.2 0.1 0.2
v 0.3 0.1 0.2
v -0.1 0.1 0.1
v 2.98023e-08 0.1 0.1
v 0.1 0.1 0.1
v 0.2 0.1 0.1
v -0.2 0.1 0
v -0.1 0.1 0
v 2.98023e-08 0.1 0
v 0.1 0.1 0
v 0.2 0.1 0
v 0.3 0.1 0
v -0.1 0.1 -0.1
v 2.98023e-08 0.1 -0.1
v 0.1 0.1 -0.1
v 0.2 0.1 -0.1
v 0.3 0.1 -0.1
v 0.4 0.1 -0.1
v 0.2 0.1 -0.2
v 0.3 0.1 -0.2
v 0.4 0.1 -0.2
v 0.5 0.1 -0.2
v 0.3 0.1 -0.3
v 0.4 0.1 -0.3
v 0.5 0.1 -0.3
v 0.6 0.1 -0.3
v 0.4 0.1 -0.4
v 0.5 0.1 -0.4
v 0.6 0.1 -0.4
v 0.7 0.1 -0.4
v 0.5 0.1 -0.5
v 0.6 0.1 -0.5
v 0.7 0.1 -0.5
v 0.8 0.1 -0.5
v 0.9 0.1 -0.5
v 0.6 0.1 -0.6
v 0.7 0.1 -0.6
v 0.8 0.1 -0.6
v 0.9 0.1 -0.6
v 1 0.1 -0.6
v 0.6 0.1 -0.7
v 0.7 0.1 -0.7
v 0.8 0.1 -0.7
v 0.9 0.1 -0.7
v 1 0.1 -0.7
v 0.7 0.1 -0.8
v 0.8 0.1 -0.8
v 0.9 0.1 -0.8
v 1 0.1 -0.8
v 0.8 0.1 -0.9
v 0.9 0.1 -0.9

# faces
f 3/5/1 2/5/1 1/5/1
f 4/5/1 2/5/1 3/5/1
f 7/5/1 6/5/1 5/5/1
f 8/5/1 6/5/1 7/5/1
f 11/5/1 10/5/1 9/5/1
f 12/5/1 10/5/1 11/5/1
f 15/2/1 14/2/1 13/2/1
f 16/2/1 14/2/1 15/2/1
f 19/2/1 18/2/1 17/2/1
f 20/2/1 18/2/1 19/2/1
f 23/2/1 22/2/1 21/2/1
f 24/2/1 22/2/1 23/2/1
f 27/2/1 26/2/1 25/2/1
f 28/2/1 26/2/1 27/2/1
f 31/2/1 30/2/1 29/2/1
f 32/2/1 30/2/1 31/2/1
f 36/2/1 34/2/1 33/2/1
f 37/5/1 35/5/1 34/5/1
f 37/2/1 34/2/1 36/2/1
f 38/5/1 35/5/1 37/5/1
f 41/5/1 40/5/1 39/5/1
f 42/5/1 40/5/1 41/5/1
f 45/5/1 44/5/1 43/5/1
f 46/5/1 44/5/1 45/5/1
f 47/3/2 48/3/2 51/3/2
f 51/3/2 48/3/2 52/3/2
f 49/5/2 50/5/2 53/5/2
f 53/5/2 50/5/2 54/5/2
f 55/2/2 56/2/2 58/2/2
f 56/1/2 57/1/2 59/1/2
f 58/2/2 56/2/2 59/2/2
f 59/1/2 57/1/2 60/1/2
f 61/5/2 62/5/2 65/5/2
f 65/5/2 62/5/2 66/5/2
f 63/1/2 64/1/2 67/1/2
f 67/1/2 64/1/2 68/1/2
f 69/1/2 70/1/2 71/1/2
f 71/1/2 70/1/2 72/1/2
f 73/1/2 74/1/2 75/1/2
f 75/1/2 74/1/2 76/1/2
f 77/1/2 78/1/2 79/1/2
f 79/1/2 78/1/2 80/1/2
f 81/1/2 82/1/2 83/1/2
f 83/1/2 82/1/2 84/1/2
f 85/4/2 86/4/2 89/4/2
f 89/4/2 86/4/2 90/4/2
f 87/5/2 88/5/2 91/5/2
f 91/5/2 88/5/2 92/5/2
f 93/4/2 94/4/2 96/4/2
f 94/5/2 95/5/2 97/5/2
f 96/4/2 94/4/2 97/4/2
f 97/5/2 95/5/2 98/5/2
f 101/5/3 100/5/3 99/5/3
f 102/5/3 100/5/3 101/5/3
f 103/4/3 102/4/3 101/4/3
f 104/4/3 102/4/3 103/4/3
f 105/3/3 104/3/3 103/3/3
f 106/3/3 104/3/3 105/3/3
f 109/4/3 108/4/3 107/4/3
f 110/4/3 108/4/3 109/4/3
f 111/3/3 110/3/3 109/3/3
f 112/3/3 110/3/3 111/3/3
f 113/5/3 112/5/3 111/5/3
f 114/5/3 112/5/3 113/5/3
f 117/1/3 116/1/3 115/1/3
f 118/1/3 116/1/3 117/1/3
f 121/1/3 120/1/3 119/1/3
f 122/1/3 120/1/3 121/1/3
f 125/1/3 124/1/3 123/1/3
f 126/1/3 124/1/3 125/1/3
f 129/1/3 128/1/3 127/1/3
f 130/1/3 128/1/3 129/1/3
f 133/1/3 132/1/3 131/1/3
f 134/1/3 132/1/3 133/1/3
f 137/3/3 136/3/3 135/3/3
f 138/3/3 136/3/3 137/3/3
f 139/4/3 138/4/3 137/4/3
f 140/4/3 138/4/3 139/4/3
f 143/4/3 142/4/3 141/4/3
f 144/4/3 142/4/3 143/4/3
f 145/5/4 146/5/4 147/5/4
f 147/5/4 146/5/4 148/5/4
f 149/5/4 150/5/4 151/5/4
f 151/5/4 150/5/4 152/5/4
f 153/5/4 154/5/4 155/5/4
f 155/5/4 154/5/4 156/5/4
f 157/2/4 158/2/4 159/2/4
f 159/2/4 158/2/4 160/2/4
f 161/5/4 162/5/4 163/5/4
f 163/5/4 162/5/4 164/5/4
f 165/2/4 166/2/4 167/2/4
f 167/2/4 166/2/4 168/2/4
f 169/2/4 170/2/4 171/2/4
f 171/2/4 170/2/4 172/2/4
f 173/2/4 174/2/4 175/2/4
f 175/2/4 174/2/4 176/2/4
f 177/2/4 178/2/4 179/2/4
f 179/2/4 178/2/4 180/2/4
f 181/2/4 182/2/4 183/2/4
f 183/2/4 182/2/4 184/2/4
f 185/5/4 186/5/4 187/5/4
f 187/5/4 186/5/4 188/5/4
f 189/5/4 190/5/4 191/5/4
f 191/5/4 190/5/4 192/5/4
f 193/5/4 194/5/4 195/5/4
f 195/5/4 194/5/4 196/5/4
f 197/5/4 198/5/4 199/5/4
f 199/5/4 198/5/4 200/5/4
f 205/5/5 202/5/5 201/5/5
f 205/4/5 203/4/5 202/4/5
f 206/3/5 204/3/5 203/3/5
f 206/4/5 203/4/5 205/4/5
f 207/3/5 204/3/5 206/3/5
f 211/5/5 205/5/5 201/5/5
f 212/3/5 206/3/5 205/3/5
f 212/5/5 205/5/5 211/5/5
f 213/4/5 207/4/5 206/4/5
f 213/3/5 206/3/5 212/3/5
f 213/4/5 208/4/5 207/4/5
f 214/4/5 208/4/5 213/4/5
f 215/3/5 209/3/5 208/3/5
f 215/4/5 208/4/5 214/4/5
f 216/5/5 210/5/5 209/5/5
f 216/3/5 209/3/5 215/3/5
f 217/5/5 210/5/5 216/5/5
f 218/4/5 214/4/5 213/4/5
f 218/5/5 213/5/5 212/5/5
f 219/1/5 215/1/5 214/1/5
f 219/4/5 214/4/5 218/4/5
f 220/2/5 216/2/5 215/2/5
f 220/1/5 215/1/5 219/1/5
f 221/2/5 216/2/5 220/2/5
f 222/5/5 218/5/5 212/5/5
f 223/3/5 219/3/5 218/3/5
f 223/5/5 218/5/5 222/5/5
f 224/2/5 220/2/5 219/2/5
f 224/3/5 219/3/5 223/3/5
f 225/1/5 221/1/5 220/1/5
f 225/2/5 220/2/5 224/2/5
f 226/1/5 221/1/5 225/1/5
f 228/5/5 224/5/5 223/5/5
f 229/5/5 224/5/5 228/5/5
f 230/2/5 226/2/5 225/2/5
f 231/1/5 227/1/5 226/1/5
f 231/2/5 226/2/5 230/2/5
f 232/1/5 227/1/5 231/1/5
f 234/2/5 232/2/5 231/2/5
f 235/1/5 233/1/5 232/1/5
f 235/2/5 232/2/5 234/2/5
f 236/1/5 233/1/5 235/1/5
f 238/2/5 236/2/5 235/2/5
f 239/1/5 237/1/5 236/1/5
f 239/2/5 236/2/5 238/2/5
f 240/1/5 237/1/5 239/1/5
f 242/2/5 240/2/5 239/2/5
f 243/1/5 241/1/5 240/1/5
f 243/2/5 240/2/5 242/2/5
f 244/1/5 241/1/5 243/1/5
f 246/2/5 244/2/5 243/2/5
f 247/1/5 245/1/5 244/1/5
f 247/2/5 244/2/5 246/2/5
f 248/1/5 245/1/5 247/1/5
f 251/2/5 248/2/5 247/2/5
f 252/3/5 249/3/5 248/3/5
f 252/2/5 248/2/5 251/2/5
f 253/4/5 250/4/5 249/4/5
f 253/3/5 249/3/5 252/3/5
f 254/4/5 250/4/5 253/4/5
f 256/5/5 252/5/5 251/5/5
f 257/4/5 253/4/5 252/4/5
f 257/5/5 252/5/5 256/5/5
f 258/3/5 254/3/5 253/3/5
f 258/4/5 253/4/5 257/4/5
f 259/4/5 255/4/5 254/4/5
f 259/3/5 254/3/5 258/3/5
f 260/4/5 255/4/5 259/4/5
f 261/5/5 258/5/5 257/5/5
f 262/4/5 259/4/5 258/4/5
f 262/5/5 258/5/5 261/5/5
f 263/5/5 260/5/5 259/5/5
f 263/4/5 259/4/5 262/4/5
f 264/5/5 260/5/5 263/5/5
f 265/5/5 263/5/5 262/5/5
f 266/5/5 263/5/5 265/5/5
f 267/5/6 268/5/6 271/5/6
f 268/4/6 269/4/6 271/4/6
f 269/3/6 270/3/6 272/3/6
f 271/4/6 269/4/6 272/4/6
f 272/3/6 270/3/6 273/3/6
f 267/5/6 271/5/6 277/5/6
f 271/3/6 272/3/6 278/3/6
f 277/5/6 271/5/6 278/5/6
f 272/4/6 273/4/6 279/4/6
f 278/3/6 272/3/6 279/3/6
f 273/4/6 274/4/6 279/4/6
f 279/4/6 274/4/6 280/4/6
f 274/3/6 275/3/6 281/3/6
f 280/4/6 274/4/6 281/4/6
f 275/5/6 276/5/6 282/5/6
f 281/3/6 275/3/6 282/3/6
f 282/5/6 276/5/6 283/5/6
f 279/4/6 280/4/6 284/4/6
f 278/5/6 279/5/6 284/5/6
f 280/1/6 281/1/6 285/1/6
f 284/4/6 280/4/6 285/4/6
f 281/2/6 282/2/6 286/2/6
f 285/1/6 281/1/6 286/1/6
f 286/2/6 282/2/6 287/2/6
f 278/5/6 284/5/6 288/5/6
f 284/3/6 285/3/6 289/3/6
f 288/5/6 284/5/6 289/5/6
f 285/2/6 286/2/6 290/2/6
f 289/3/6 285/3/6 290/3/6
f 286/1/6 287/1/6 291/1/6
f 290/2/6 286/2/6 291/2/6
f 291/1/6 287/1/6 292/1/6
f 289/5/6 290/5/6 294/5/6
f 294/5/6 290/5/6 295/5/6
f 291/2/6 292/2/6 296/2/6
f 292/1/6 293/1/6 297/1/6
f 296/2/6 292/2/6 297/2/6
f 297/1/6 293/1/6 298/1/6
f 297/2/6 298/2/6 300/2/6
f 298/1/6 299/1/6 301/1/6
f 300/2/6 298/2/6 301/2/6
f 301/1/6 299/1/6 302/1/6
f 301/2/6 302/2/6 304/2/6
f 302/1/6 303/1/6 305/1/6
f 304/2/6 302/2/6 305/2/6
f 305/1/6 303/1/6 306/1/6
f 305/2/6 306/2/6 308/2/6
f 306/1/6 307/1/6 309/1/6
f 308/2/6 306/2/6 309/2/6
f 309/1/6 307/1/6 310/1/6
f 309/2/6 310/2/6 312/2/6
f 310/1/6 311/1/6 313/1/6
f 312/2/6 310/2/6 313/2/6
f 313/1/6 311/1/6 314/1/6
f 313/2/6 314/2/6 317/2/6
f 314/3/6 315/3/6 318/3/6
f 317/2/6 314/2/6 318/2/6
f 315/4/6 316/4/6 319/4/6
f 318/3/6 315/3/6 319/3/6
f 319/4/6 316/4/6 320/4/6
f 317/5/6 318/5/6 322/5/6
f 318/4/6 319/4/6 323/4/6
f 322/5/6 318/5/6 323/5/6
f 319/3/6 320/3/6 324/3/6
f 323/4/6 319/4/6 324/4/6
f 320/4/6 321/4/6 325/4/6
f 324/3/6 320/3/6 325/3/6
f 325/4/6 321/4/6 326/4/6
f 323/5/6 324/5/6 327/5/6
f 324/4/6 325/4/6 328/4/6
f 327/5/6 324/5/6 328/5/6
f 325/5/6 326/5/6 329/5/6
f 328/4/6 325/4/6 329/4/6
f 329/5/6 326/5/6 330/5/6
f 328/5/6 329/5/6 331/5/6
f 331/5/6 329/5/6 332/5/6
