# MagicaVoxel @ Ephtracy

# group
o 

# material
mtllib ChargedSword.mtl
usemtl palette

# normals
vn -1 0 0
vn 1 0 0
vn 0 0 1
vn 0 0 -1
vn 0 -1 0
vn 0 1 0

# texcoords
vt 0.650391 0.5
vt 0.654297 0.5
vt 0.701172 0.5

# verts
v -0.5 0 0.5
v -0.5 0 0.2
v -0.5 0.1 0.5
v -0.5 0.1 0.2
v -0.4 0 0.2
v -0.4 0 0.1
v -0.4 0.1 0.2
v -0.4 0.1 0.1
v -0.3 0 0.1
v -0.3 0 0
v -0.3 0.1 0.1
v -0.3 0.1 0
v -0.2 0 0
v -0.2 0 -0.1
v -0.2 0.1 0
v -0.2 0.1 -0.1
v -0.1 0 -0.1
v -0.1 0 -0.2
v -0.1 0.1 -0.1
v -0.1 0.1 -0.2
v 0 0 -0.2
v 0 0 -0.3
v 0 0.1 -0.2
v 0 0.1 -0.3
v 0.1 0 -0.3
v 0.1 0 -0.4
v 0.1 0.1 -0.3
v 0.1 0.1 -0.4
v 0.2 0 -0.4
v 0.2 0 -0.5
v 0.2 0.1 -0.4
v 0.2 0.1 -0.5
v 0.3 0 -0.5
v 0.3 0 -0.6
v 0.3 0.1 -0.5
v 0.3 0.1 -0.6
v -0.2 0 0.5
v -0.2 0 0.4
v -0.2 0.1 0.5
v -0.2 0.1 0.4
v -0.1 0 0.4
v -0.1 0 0.3
v -0.1 0.1 0.4
v -0.1 0.1 0.3
v 0 0 0.3
v 0 0 0.2
v 0 0.1 0.3
v 0 0.1 0.2
v 0.1 0 0.2
v 0.1 0 0.1
v 0.1 0.1 0.2
v 0.1 0.1 0.1
v 0.2 0 0.1
v 0.2 0 0
v 0.2 0.1 0.1
v 0.2 0.1 0
v 0.3 0 0
v 0.3 0 -0.1
v 0.3 0.1 0
v 0.3 0.1 -0.1
v 0.4 0 -0.1
v 0.4 0 -0.2
v 0.4 0.1 -0.1
v 0.4 0.1 -0.2
v 0.5 0 -0.2
v 0.5 0 -0.3
v 0.5 0 -0.5
v 0.5 0 -0.6
v 0.5 0.1 -0.2
v 0.5 0.1 -0.3
v 0.5 0.1 -0.5
v 0.5 0.1 -0.6
v 0.6 0 -0.3
v 0.6 0 -0.4
v 0.6 0 -0.5
v 0.6 0.1 -0.3
v 0.6 0.1 -0.4
v 0.6 0.1 -0.5
v -0.5 0 0.5
v -0.5 0.1 0.5
v -0.2 0 0.5
v -0.2 0.1 0.5
v -0.2 0 0.4
v -0.2 0.1 0.4
v -0.1 0 0.4
v -0.1 0.1 0.4
v -0.1 0 0.3
v -0.1 0.1 0.3
v 0 0 0.3
v 0 0.1 0.3
v 0 0 0.2
v 0 0.1 0.2
v 0.1 0 0.2
v 0.1 0.1 0.2
v 0.1 0 0.1
v 0.1 0.1 0.1
v 0.2 0 0.1
v 0.2 0.1 0.1
v 0.2 0 0
v 0.2 0.1 0
v 0.3 0 0
v 0.3 0.1 0
v 0.3 0 -0.1
v 0.3 0.1 -0.1
v 0.4 0 -0.1
v 0.4 0.1 -0.1
v 0.4 0 -0.2
v 0.4 0.1 -0.2
v 0.5 0 -0.2
v 0.5 0.1 -0.2
v 0.5 0 -0.3
v 0.5 0.1 -0.3
v 0.6 0 -0.3
v 0.6 0.1 -0.3
v -0.5 0 0.2
v -0.5 0.1 0.2
v -0.4 0 0.2
v -0.4 0.1 0.2
v -0.4 0 0.1
v -0.4 0.1 0.1
v -0.3 0 0.1
v -0.3 0.1 0.1
v -0.3 0 0
v -0.3 0.1 0
v -0.2 0 0
v -0.2 0.1 0
v -0.2 0 -0.1
v -0.2 0.1 -0.1
v -0.1 0 -0.1
v -0.1 0.1 -0.1
v -0.1 0 -0.2
v -0.1 0.1 -0.2
v 0 0 -0.2
v 0 0.1 -0.2
v 0 0 -0.3
v 0 0.1 -0.3
v 0.1 0 -0.3
v 0.1 0.1 -0.3
v 0.1 0 -0.4
v 0.1 0.1 -0.4
v 0.2 0 -0.4
v 0.2 0.1 -0.4
v 0.2 0 -0.5
v 0.2 0.1 -0.5
v 0.3 0 -0.5
v 0.3 0.1 -0.5
v 0.5 0 -0.5
v 0.5 0.1 -0.5
v 0.6 0 -0.5
v 0.6 0.1 -0.5
v 0.3 0 -0.6
v 0.3 0.1 -0.6
v 0.4 0 -0.6
v 0.4 0.1 -0.6
v 0.5 0 -0.6
v 0.5 0.1 -0.6
v -0.5 0 0.5
v -0.2 0 0.5
v -0.4 0 0.4
v -0.3 0 0.4
v -0.2 0 0.4
v -0.1 0 0.4
v -0.4 0 0.3
v -0.3 0 0.3
v -0.2 0 0.3
v -0.1 0 0.3
v 0 0 0.3
v -0.5 0 0.2
v -0.4 0 0.2
v -0.3 0 0.2
v -0.2 0 0.2
v -0.1 0 0.2
v 0 0 0.2
v 0.1 0 0.2
v -0.4 0 0.1
v -0.3 0 0.1
v -0.2 0 0.1
v -0.1 0 0.1
v 0 0 0.1
v 0.1 0 0.1
v 0.2 0 0.1
v -0.3 0 0
v -0.2 0 0
v -0.1 0 0
v 0 0 0
v 0.1 0 0
v 0.2 0 0
v 0.3 0 0
v -0.2 0 -0.1
v -0.1 0 -0.1
v 0 0 -0.1
v 0.1 0 -0.1
v 0.2 0 -0.1
v 0.3 0 -0.1
v 0.4 0 -0.1
v -0.1 0 -0.2
v 0 0 -0.2
v 0.1 0 -0.2
v 0.2 0 -0.2
v 0.3 0 -0.2
v 0.4 0 -0.2
v 0.5 0 -0.2
v 0 0 -0.3
v 0.1 0 -0.3
v 0.2 0 -0.3
v 0.3 0 -0.3
v 0.4 0 -0.3
v 0.5 0 -0.3
v 0.6 0 -0.3
v 0.1 0 -0.4
v 0.2 0 -0.4
v 0.3 0 -0.4
v 0.4 0 -0.4
v 0.5 0 -0.4
v 0.6 0 -0.4
v 0.2 0 -0.5
v 0.3 0 -0.5
v 0.4 0 -0.5
v 0.5 0 -0.5
v 0.6 0 -0.5
v 0.3 0 -0.6
v 0.4 0 -0.6
v 0.5 0 -0.6
v -0.5 0.1 0.5
v -0.2 0.1 0.5
v -0.4 0.1 0.4
v -0.3 0.1 0.4
v -0.2 0.1 0.4
v -0.1 0.1 0.4
v -0.4 0.1 0.3
v -0.3 0.1 0.3
v -0.2 0.1 0.3
v -0.1 0.1 0.3
v 0 0.1 0.3
v -0.5 0.1 0.2
v -0.4 0.1 0.2
v -0.3 0.1 0.2
v -0.2 0.1 0.2
v -0.1 0.1 0.2
v 0 0.1 0.2
v 0.1 0.1 0.2
v -0.4 0.1 0.1
v -0.3 0.1 0.1
v -0.2 0.1 0.1
v -0.1 0.1 0.1
v 0 0.1 0.1
v 0.1 0.1 0.1
v 0.2 0.1 0.1
v -0.3 0.1 0
v -0.2 0.1 0
v -0.1 0.1 0
v 0 0.1 0
v 0.1 0.1 0
v 0.2 0.1 0
v 0.3 0.1 0
v -0.2 0.1 -0.1
v -0.1 0.1 -0.1
v 0 0.1 -0.1
v 0.1 0.1 -0.1
v 0.2 0.1 -0.1
v 0.3 0.1 -0.1
v 0.4 0.1 -0.1
v -0.1 0.1 -0.2
v 0 0.1 -0.2
v 0.1 0.1 -0.2
v 0.2 0.1 -0.2
v 0.3 0.1 -0.2
v 0.4 0.1 -0.2
v 0.5 0.1 -0.2
v 0 0.1 -0.3
v 0.1 0.1 -0.3
v 0.2 0.1 -0.3
v 0.3 0.1 -0.3
v 0.4 0.1 -0.3
v 0.5 0.1 -0.3
v 0.6 0.1 -0.3
v 0.1 0.1 -0.4
v 0.2 0.1 -0.4
v 0.3 0.1 -0.4
v 0.4 0.1 -0.4
v 0.5 0.1 -0.4
v 0.6 0.1 -0.4
v 0.2 0.1 -0.5
v 0.3 0.1 -0.5
v 0.4 0.1 -0.5
v 0.5 0.1 -0.5
v 0.6 0.1 -0.5
v 0.3 0.1 -0.6
v 0.4 0.1 -0.6
v 0.5 0.1 -0.6

# faces
f 3/3/1 2/3/1 1/3/1
f 4/3/1 2/3/1 3/3/1
f 7/3/1 6/3/1 5/3/1
f 8/3/1 6/3/1 7/3/1
f 11/3/1 10/3/1 9/3/1
f 12/3/1 10/3/1 11/3/1
f 15/3/1 14/3/1 13/3/1
f 16/3/1 14/3/1 15/3/1
f 19/3/1 18/3/1 17/3/1
f 20/3/1 18/3/1 19/3/1
f 23/3/1 22/3/1 21/3/1
f 24/3/1 22/3/1 23/3/1
f 27/3/1 26/3/1 25/3/1
f 28/3/1 26/3/1 27/3/1
f 31/3/1 30/3/1 29/3/1
f 32/3/1 30/3/1 31/3/1
f 35/3/1 34/3/1 33/3/1
f 36/3/1 34/3/1 35/3/1
f 37/3/2 38/3/2 39/3/2
f 39/3/2 38/3/2 40/3/2
f 41/3/2 42/3/2 43/3/2
f 43/3/2 42/3/2 44/3/2
f 45/3/2 46/3/2 47/3/2
f 47/3/2 46/3/2 48/3/2
f 49/3/2 50/3/2 51/3/2
f 51/3/2 50/3/2 52/3/2
f 53/3/2 54/3/2 55/3/2
f 55/3/2 54/3/2 56/3/2
f 57/3/2 58/3/2 59/3/2
f 59/3/2 58/3/2 60/3/2
f 61/3/2 62/3/2 63/3/2
f 63/3/2 62/3/2 64/3/2
f 65/3/2 66/3/2 69/3/2
f 69/3/2 66/3/2 70/3/2
f 67/2/2 68/2/2 71/2/2
f 71/2/2 68/2/2 72/2/2
f 73/3/2 74/3/2 76/3/2
f 74/2/2 75/2/2 77/2/2
f 76/3/2 74/3/2 77/3/2
f 77/2/2 75/2/2 78/2/2
f 81/3/3 80/3/3 79/3/3
f 82/3/3 80/3/3 81/3/3
f 85/3/3 84/3/3 83/3/3
f 86/3/3 84/3/3 85/3/3
f 89/3/3 88/3/3 87/3/3
f 90/3/3 88/3/3 89/3/3
f 93/3/3 92/3/3 91/3/3
f 94/3/3 92/3/3 93/3/3
f 97/3/3 96/3/3 95/3/3
f 98/3/3 96/3/3 97/3/3
f 101/3/3 100/3/3 99/3/3
f 102/3/3 100/3/3 101/3/3
f 105/3/3 104/3/3 103/3/3
f 106/3/3 104/3/3 105/3/3
f 109/3/3 108/3/3 107/3/3
f 110/3/3 108/3/3 109/3/3
f 113/3/3 112/3/3 111/3/3
f 114/3/3 112/3/3 113/3/3
f 115/3/4 116/3/4 117/3/4
f 117/3/4 116/3/4 118/3/4
f 119/3/4 120/3/4 121/3/4
f 121/3/4 120/3/4 122/3/4
f 123/3/4 124/3/4 125/3/4
f 125/3/4 124/3/4 126/3/4
f 127/3/4 128/3/4 129/3/4
f 129/3/4 128/3/4 130/3/4
f 131/3/4 132/3/4 133/3/4
f 133/3/4 132/3/4 134/3/4
f 135/3/4 136/3/4 137/3/4
f 137/3/4 136/3/4 138/3/4
f 139/3/4 140/3/4 141/3/4
f 141/3/4 140/3/4 142/3/4
f 143/3/4 144/3/4 145/3/4
f 145/3/4 144/3/4 146/3/4
f 147/2/4 148/2/4 149/2/4
f 149/2/4 148/2/4 150/2/4
f 151/3/4 152/3/4 153/3/4
f 153/3/4 152/3/4 154/3/4
f 153/2/4 154/2/4 155/2/4
f 155/2/4 154/2/4 156/2/4
f 159/3/5 158/3/5 157/3/5
f 160/3/5 158/3/5 159/3/5
f 161/3/5 158/3/5 160/3/5
f 163/3/5 159/3/5 157/3/5
f 163/1/5 160/1/5 159/1/5
f 164/2/5 161/2/5 160/2/5
f 164/1/5 160/1/5 163/1/5
f 165/3/5 162/3/5 161/3/5
f 165/2/5 161/2/5 164/2/5
f 166/3/5 162/3/5 165/3/5
f 168/3/5 163/3/5 157/3/5
f 169/2/5 164/2/5 163/2/5
f 169/3/5 163/3/5 168/3/5
f 170/1/5 165/1/5 164/1/5
f 170/2/5 164/2/5 169/2/5
f 171/2/5 166/2/5 165/2/5
f 171/1/5 165/1/5 170/1/5
f 172/3/5 167/3/5 166/3/5
f 172/2/5 166/2/5 171/2/5
f 173/3/5 167/3/5 172/3/5
f 175/3/5 170/3/5 169/3/5
f 176/2/5 171/2/5 170/2/5
f 176/3/5 170/3/5 175/3/5
f 177/1/5 172/1/5 171/1/5
f 177/2/5 171/2/5 176/2/5
f 178/2/5 173/2/5 172/2/5
f 178/1/5 172/1/5 177/1/5
f 179/3/5 174/3/5 173/3/5
f 179/2/5 173/2/5 178/2/5
f 180/3/5 174/3/5 179/3/5
f 182/3/5 177/3/5 176/3/5
f 183/2/5 178/2/5 177/2/5
f 183/3/5 177/3/5 182/3/5
f 184/1/5 179/1/5 178/1/5
f 184/2/5 178/2/5 183/2/5
f 185/2/5 180/2/5 179/2/5
f 185/1/5 179/1/5 184/1/5
f 186/3/5 181/3/5 180/3/5
f 186/2/5 180/2/5 185/2/5
f 187/3/5 181/3/5 186/3/5
f 189/3/5 184/3/5 183/3/5
f 190/2/5 185/2/5 184/2/5
f 190/3/5 184/3/5 189/3/5
f 191/1/5 186/1/5 185/1/5
f 191/2/5 185/2/5 190/2/5
f 192/2/5 187/2/5 186/2/5
f 192/1/5 186/1/5 191/1/5
f 193/3/5 188/3/5 187/3/5
f 193/2/5 187/2/5 192/2/5
f 194/3/5 188/3/5 193/3/5
f 196/3/5 191/3/5 190/3/5
f 197/2/5 192/2/5 191/2/5
f 197/3/5 191/3/5 196/3/5
f 198/1/5 193/1/5 192/1/5
f 198/2/5 192/2/5 197/2/5
f 199/2/5 194/2/5 193/2/5
f 199/1/5 193/1/5 198/1/5
f 200/3/5 195/3/5 194/3/5
f 200/2/5 194/2/5 199/2/5
f 201/3/5 195/3/5 200/3/5
f 203/3/5 198/3/5 197/3/5
f 204/2/5 199/2/5 198/2/5
f 204/3/5 198/3/5 203/3/5
f 205/1/5 200/1/5 199/1/5
f 205/2/5 199/2/5 204/2/5
f 206/2/5 201/2/5 200/2/5
f 206/1/5 200/1/5 205/1/5
f 207/3/5 202/3/5 201/3/5
f 207/2/5 201/2/5 206/2/5
f 208/3/5 202/3/5 207/3/5
f 210/3/5 205/3/5 204/3/5
f 211/2/5 206/2/5 205/2/5
f 211/3/5 205/3/5 210/3/5
f 212/1/5 207/1/5 206/1/5
f 212/2/5 206/2/5 211/2/5
f 213/2/5 208/2/5 207/2/5
f 213/1/5 207/1/5 212/1/5
f 214/3/5 209/3/5 208/3/5
f 214/2/5 208/2/5 213/2/5
f 215/3/5 209/3/5 214/3/5
f 216/3/5 212/3/5 211/3/5
f 217/2/5 213/2/5 212/2/5
f 217/3/5 212/3/5 216/3/5
f 218/1/5 214/1/5 213/1/5
f 218/2/5 213/2/5 217/2/5
f 219/2/5 215/2/5 214/2/5
f 219/1/5 214/1/5 218/1/5
f 220/2/5 215/2/5 219/2/5
f 221/3/5 218/3/5 217/3/5
f 222/2/5 219/2/5 218/2/5
f 222/3/5 218/3/5 221/3/5
f 223/2/5 219/2/5 222/2/5
f 224/3/6 225/3/6 226/3/6
f 226/3/6 225/3/6 227/3/6
f 227/3/6 225/3/6 228/3/6
f 224/3/6 226/3/6 230/3/6
f 226/1/6 227/1/6 230/1/6
f 227/2/6 228/2/6 231/2/6
f 230/1/6 227/1/6 231/1/6
f 228/3/6 229/3/6 232/3/6
f 231/2/6 228/2/6 232/2/6
f 232/3/6 229/3/6 233/3/6
f 224/3/6 230/3/6 235/3/6
f 230/2/6 231/2/6 236/2/6
f 235/3/6 230/3/6 236/3/6
f 231/1/6 232/1/6 237/1/6
f 236/2/6 231/2/6 237/2/6
f 232/2/6 233/2/6 238/2/6
f 237/1/6 232/1/6 238/1/6
f 233/3/6 234/3/6 239/3/6
f 238/2/6 233/2/6 239/2/6
f 239/3/6 234/3/6 240/3/6
f 236/3/6 237/3/6 242/3/6
f 237/2/6 238/2/6 243/2/6
f 242/3/6 237/3/6 243/3/6
f 238/1/6 239/1/6 244/1/6
f 243/2/6 238/2/6 244/2/6
f 239/2/6 240/2/6 245/2/6
f 244/1/6 239/1/6 245/1/6
f 240/3/6 241/3/6 246/3/6
f 245/2/6 240/2/6 246/2/6
f 246/3/6 241/3/6 247/3/6
f 243/3/6 244/3/6 249/3/6
f 244/2/6 245/2/6 250/2/6
f 249/3/6 244/3/6 250/3/6
f 245/1/6 246/1/6 251/1/6
f 250/2/6 245/2/6 251/2/6
f 246/2/6 247/2/6 252/2/6
f 251/1/6 246/1/6 252/1/6
f 247/3/6 248/3/6 253/3/6
f 252/2/6 247/2/6 253/2/6
f 253/3/6 248/3/6 254/3/6
f 250/3/6 251/3/6 256/3/6
f 251/2/6 252/2/6 257/2/6
f 256/3/6 251/3/6 257/3/6
f 252/1/6 253/1/6 258/1/6
f 257/2/6 252/2/6 258/2/6
f 253/2/6 254/2/6 259/2/6
f 258/1/6 253/1/6 259/1/6
f 254/3/6 255/3/6 260/3/6
f 259/2/6 254/2/6 260/2/6
f 260/3/6 255/3/6 261/3/6
f 257/3/6 258/3/6 263/3/6
f 258/2/6 259/2/6 264/2/6
f 263/3/6 258/3/6 264/3/6
f 259/1/6 260/1/6 265/1/6
f 264/2/6 259/2/6 265/2/6
f 260/2/6 261/2/6 266/2/6
f 265/1/6 260/1/6 266/1/6
f 261/3/6 262/3/6 267/3/6
f 266/2/6 261/2/6 267/2/6
f 267/3/6 262/3/6 268/3/6
f 264/3/6 265/3/6 270/3/6
f 265/2/6 266/2/6 271/2/6
f 270/3/6 265/3/6 271/3/6
f 266/1/6 267/1/6 272/1/6
f 271/2/6 266/2/6 272/2/6
f 267/2/6 268/2/6 273/2/6
f 272/1/6 267/1/6 273/1/6
f 268/3/6 269/3/6 274/3/6
f 273/2/6 268/2/6 274/2/6
f 274/3/6 269/3/6 275/3/6
f 271/3/6 272/3/6 277/3/6
f 272/2/6 273/2/6 278/2/6
f 277/3/6 272/3/6 278/3/6
f 273/1/6 274/1/6 279/1/6
f 278/2/6 273/2/6 279/2/6
f 274/2/6 275/2/6 280/2/6
f 279/1/6 274/1/6 280/1/6
f 275/3/6 276/3/6 281/3/6
f 280/2/6 275/2/6 281/2/6
f 281/3/6 276/3/6 282/3/6
f 278/3/6 279/3/6 283/3/6
f 279/2/6 280/2/6 284/2/6
f 283/3/6 279/3/6 284/3/6
f 280/1/6 281/1/6 285/1/6
f 284/2/6 280/2/6 285/2/6
f 281/2/6 282/2/6 286/2/6
f 285/1/6 281/1/6 286/1/6
f 286/2/6 282/2/6 287/2/6
f 284/3/6 285/3/6 288/3/6
f 285/2/6 286/2/6 289/2/6
f 288/3/6 285/3/6 289/3/6
f 289/2/6 286/2/6 290/2/6
