# MagicaVoxel @ Ephtracy

# group
o 

# material
mtllib Sword.mtl
usemtl palette

# normals
vn -1 0 0
vn 1 0 0
vn 0 0 1
vn 0 0 -1
vn 0 -1 0
vn 0 1 0

# texcoords
vt 0.306641 0.5
vt 0.310547 0.5
vt 0.341797 0.5
vt 0.650391 0.5
vt 0.654297 0.5
vt 0.697266 0.5
vt 0.701172 0.5

# verts
v -1 0 0.5
v -1 0 0.2
v -1 0.1 0.5
v -1 0.1 0.2
v -0.9 0 0.2
v -0.9 0 0.1
v -0.9 0.1 0.2
v -0.9 0.1 0.1
v -0.8 0 0.1
v -0.8 0 0
v -0.8 0.1 0.1
v -0.8 0.1 0
v -0.7 0 0
v -0.7 0 -0.1
v -0.7 0.1 0
v -0.7 0.1 -0.1
v -0.6 0 -0.1
v -0.6 0 -0.2
v -0.6 0.1 -0.1
v -0.6 0.1 -0.2
v -0.5 0 -0.2
v -0.5 0 -0.3
v -0.5 0.1 -0.2
v -0.5 0.1 -0.3
v -0.4 0 -0.3
v -0.4 0 -0.4
v -0.4 0.1 -0.3
v -0.4 0.1 -0.4
v -0.3 0 -0.4
v -0.3 0 -0.5
v -0.3 0 -0.8
v -0.3 0 -1
v -0.3 0.1 -0.4
v -0.3 0.1 -0.5
v -0.3 0.1 -0.8
v -0.3 0.1 -1
v -0.2 0 -0.5
v -0.2 0 -0.6
v -0.2 0 -0.7
v -0.2 0 -0.8
v -0.2 0.1 -0.5
v -0.2 0.1 -0.6
v -0.2 0.1 -0.7
v -0.2 0.1 -0.8
v -0.0999999 0 -0.6
v -0.0999999 0 -0.7
v -0.0999999 0.1 -0.6
v -0.0999999 0.1 -0.7
v 0.2 0 -0.3
v 0.2 0 -0.4
v 0.2 0 -0.8
v 0.2 0 -0.9
v 0.2 0.1 -0.3
v 0.2 0.1 -0.4
v 0.2 0.1 -0.8
v 0.2 0.1 -0.9
v 0.3 0 -0.2
v 0.3 0 -0.3
v 0.3 0 -0.9
v 0.3 0 -1
v 0.3 0.1 -0.2
v 0.3 0.1 -0.3
v 0.3 0.1 -0.9
v 0.3 0.1 -1
v 0.4 0 -1
v 0.4 0 -1.2
v 0.4 0.1 -1
v 0.4 0.1 -1.2
v -0.7 0 0.5
v -0.7 0 0.4
v -0.7 0.1 0.5
v -0.7 0.1 0.4
v -0.6 0 0.4
v -0.6 0 0.3
v -0.6 0.1 0.4
v -0.6 0.1 0.3
v -0.5 0 0.3
v -0.5 0 0.2
v -0.5 0.1 0.3
v -0.5 0.1 0.2
v -0.4 0 0.2
v -0.4 0 0.1
v -0.4 0.1 0.2
v -0.4 0.1 0.1
v -0.3 0 0.1
v -0.3 0 0
v -0.3 0.1 0.1
v -0.3 0.1 0
v -0.2 0 0
v -0.2 0 -0.1
v -0.2 0.1 0
v -0.2 0.1 -0.1
v -0.0999999 0 -0.1
v -0.0999999 0 -0.2
v -0.0999999 0 -0.9
v -0.0999999 0 -1
v -0.0999999 0.1 -0.1
v -0.0999999 0.1 -0.2
v -0.0999999 0.1 -0.9
v -0.0999999 0.1 -1
v 1.19209e-07 0 -0.2
v 1.19209e-07 0 -0.3
v 1.19209e-07 0.1 -0.2
v 1.19209e-07 0.1 -0.3
v 0.1 0 -0.3
v 0.1 0 -0.4
v 0.1 0 -0.8
v 0.1 0 -0.9
v 0.1 0.1 -0.3
v 0.1 0.1 -0.4
v 0.1 0.1 -0.8
v 0.1 0.1 -0.9
v 0.3 0 -0.6
v 0.3 0 -0.7
v 0.3 0.1 -0.6
v 0.3 0.1 -0.7
v 0.4 0 -0.4
v 0.4 0 -0.6
v 0.4 0 -0.7
v 0.4 0 -0.8
v 0.4 0.1 -0.4
v 0.4 0.1 -0.6
v 0.4 0.1 -0.7
v 0.4 0.1 -0.8
v 0.5 0 -0.2
v 0.5 0 -0.4
v 0.5 0 -0.8
v 0.5 0 -0.9
v 0.5 0.1 -0.2
v 0.5 0.1 -0.4
v 0.5 0.1 -0.8
v 0.5 0.1 -0.9
v 0.7 0 -0.9
v 0.7 0 -1.2
v 0.7 0.1 -0.9
v 0.7 0.1 -1.2
v -1 0 0.5
v -1 0.1 0.5
v -0.7 0 0.5
v -0.7 0.1 0.5
v -0.7 0 0.4
v -0.7 0.1 0.4
v -0.6 0 0.4
v -0.6 0.1 0.4
v -0.6 0 0.3
v -0.6 0.1 0.3
v -0.5 0 0.3
v -0.5 0.1 0.3
v -0.5 0 0.2
v -0.5 0.1 0.2
v -0.4 0 0.2
v -0.4 0.1 0.2
v -0.4 0 0.1
v -0.4 0.1 0.1
v -0.3 0 0.1
v -0.3 0.1 0.1
v -0.3 0 0
v -0.3 0.1 0
v -0.2 0 0
v -0.2 0.1 0
v -0.2 0 -0.1
v -0.2 0.1 -0.1
v -0.0999999 0 -0.1
v -0.0999999 0.1 -0.1
v -0.0999999 0 -0.2
v -0.0999999 0.1 -0.2
v 1.19209e-07 0 -0.2
v 1.19209e-07 0.1 -0.2
v 0.3 0 -0.2
v 0.3 0.1 -0.2
v 0.5 0 -0.2
v 0.5 0.1 -0.2
v 1.19209e-07 0 -0.3
v 1.19209e-07 0.1 -0.3
v 0.1 0 -0.3
v 0.1 0.1 -0.3
v 0.2 0 -0.3
v 0.2 0.1 -0.3
v 0.3 0 -0.3
v 0.3 0.1 -0.3
v 0.1 0 -0.4
v 0.1 0.1 -0.4
v 0.2 0 -0.4
v 0.2 0.1 -0.4
v -0.2 0 -0.7
v -0.2 0.1 -0.7
v -0.0999999 0 -0.7
v -0.0999999 0.1 -0.7
v 0.3 0 -0.7
v 0.3 0.1 -0.7
v 0.4 0 -0.7
v 0.4 0.1 -0.7
v -0.3 0 -0.8
v -0.3 0.1 -0.8
v -0.2 0 -0.8
v -0.2 0.1 -0.8
v 0.4 0 -0.8
v 0.4 0.1 -0.8
v 0.5 0 -0.8
v 0.5 0.1 -0.8
v 0.5 0 -0.9
v 0.5 0.1 -0.9
v 0.7 0 -0.9
v 0.7 0.1 -0.9
v -1 0 0.2
v -1 0.1 0.2
v -0.9 0 0.2
v -0.9 0.1 0.2
v -0.9 0 0.1
v -0.9 0.1 0.1
v -0.8 0 0.1
v -0.8 0.1 0.1
v -0.8 0 0
v -0.8 0.1 0
v -0.7 0 0
v -0.7 0.1 0
v -0.7 0 -0.1
v -0.7 0.1 -0.1
v -0.6 0 -0.1
v -0.6 0.1 -0.1
v -0.6 0 -0.2
v -0.6 0.1 -0.2
v -0.5 0 -0.2
v -0.5 0.1 -0.2
v -0.5 0 -0.3
v -0.5 0.1 -0.3
v -0.4 0 -0.3
v -0.4 0.1 -0.3
v -0.4 0 -0.4
v -0.4 0.1 -0.4
v -0.3 0 -0.4
v -0.3 0.1 -0.4
v 0.4 0 -0.4
v 0.4 0.1 -0.4
v 0.5 0 -0.4
v 0.5 0.1 -0.4
v -0.3 0 -0.5
v -0.3 0.1 -0.5
v -0.2 0 -0.5
v -0.2 0.1 -0.5
v -0.2 0 -0.6
v -0.2 0.1 -0.6
v -0.0999999 0 -0.6
v -0.0999999 0.1 -0.6
v 0.3 0 -0.6
v 0.3 0.1 -0.6
v 0.4 0 -0.6
v 0.4 0.1 -0.6
v 0.1 0 -0.8
v 0.1 0.1 -0.8
v 0.2 0 -0.8
v 0.2 0.1 -0.8
v -0.0999999 0 -0.9
v -0.0999999 0.1 -0.9
v 0.1 0 -0.9
v 0.1 0.1 -0.9
v 0.2 0 -0.9
v 0.2 0.1 -0.9
v 0.3 0 -0.9
v 0.3 0.1 -0.9
v -0.3 0 -1
v -0.3 0.1 -1
v -0.0999999 0 -1
v -0.0999999 0.1 -1
v 0.3 0 -1
v 0.3 0.1 -1
v 0.4 0 -1
v 0.4 0.1 -1
v 0.4 0 -1.2
v 0.4 0.1 -1.2
v 0.7 0 -1.2
v 0.7 0.1 -1.2
v -1 0 0.5
v -0.7 0 0.5
v -0.9 0 0.4
v -0.8 0 0.4
v -0.7 0 0.4
v -0.6 0 0.4
v -0.9 0 0.3
v -0.8 0 0.3
v -0.7 0 0.3
v -0.6 0 0.3
v -0.5 0 0.3
v -1 0 0.2
v -0.9 0 0.2
v -0.8 0 0.2
v -0.7 0 0.2
v -0.6 0 0.2
v -0.5 0 0.2
v -0.4 0 0.2
v -0.9 0 0.1
v -0.8 0 0.1
v -0.7 0 0.1
v -0.6 0 0.1
v -0.5 0 0.1
v -0.4 0 0.1
v -0.3 0 0.1
v -0.8 0 0
v -0.7 0 0
v -0.6 0 0
v -0.5 0 0
v -0.4 0 0
v -0.3 0 0
v -0.2 0 0
v -0.7 0 -0.1
v -0.6 0 -0.1
v -0.5 0 -0.1
v -0.4 0 -0.1
v -0.3 0 -0.1
v -0.2 0 -0.1
v -0.0999999 0 -0.1
v -0.6 0 -0.2
v -0.5 0 -0.2
v -0.4 0 -0.2
v -0.3 0 -0.2
v -0.2 0 -0.2
v -0.0999999 0 -0.2
v 1.19209e-07 0 -0.2
v 0.3 0 -0.2
v 0.5 0 -0.2
v -0.5 0 -0.3
v -0.4 0 -0.3
v -0.3 0 -0.3
v -0.2 0 -0.3
v -0.0999999 0 -0.3
v 1.19209e-07 0 -0.3
v 0.1 0 -0.3
v 0.2 0 -0.3
v 0.3 0 -0.3
v 0.4 0 -0.3
v -0.4 0 -0.4
v -0.3 0 -0.4
v -0.2 0 -0.4
v -0.0999999 0 -0.4
v 1.19209e-07 0 -0.4
v 0.1 0 -0.4
v 0.2 0 -0.4
v 0.3 0 -0.4
v 0.4 0 -0.4
v 0.5 0 -0.4
v -0.3 0 -0.5
v -0.2 0 -0.5
v -0.0999999 0 -0.5
v 1.19209e-07 0 -0.5
v 0.1 0 -0.5
v -0.2 0 -0.6
v -0.0999999 0 -0.6
v 1.19209e-07 0 -0.6
v 0.1 0 -0.6
v 0.2 0 -0.6
v 0.3 0 -0.6
v 0.4 0 -0.6
v -0.2 0 -0.7
v -0.0999999 0 -0.7
v 0.1 0 -0.7
v 0.2 0 -0.7
v 0.3 0 -0.7
v 0.4 0 -0.7
v -0.3 0 -0.8
v -0.2 0 -0.8
v -0.0999999 0 -0.8
v 0.1 0 -0.8
v 0.2 0 -0.8
v 0.3 0 -0.8
v 0.4 0 -0.8
v 0.5 0 -0.8
v -0.2 0 -0.9
v -0.0999999 0 -0.9
v 0.1 0 -0.9
v 0.2 0 -0.9
v 0.3 0 -0.9
v 0.4 0 -0.9
v 0.5 0 -0.9
v 0.7 0 -0.9
v -0.3 0 -1
v -0.0999999 0 -1
v 0.3 0 -1
v 0.4 0 -1
v 0.5 0 -1
v 0.6 0 -1
v 0.5 0 -1.1
v 0.6 0 -1.1
v 0.4 0 -1.2
v 0.7 0 -1.2
v -1 0.1 0.5
v -0.7 0.1 0.5
v -0.9 0.1 0.4
v -0.8 0.1 0.4
v -0.7 0.1 0.4
v -0.6 0.1 0.4
v -0.9 0.1 0.3
v -0.8 0.1 0.3
v -0.7 0.1 0.3
v -0.6 0.1 0.3
v -0.5 0.1 0.3
v -1 0.1 0.2
v -0.9 0.1 0.2
v -0.8 0.1 0.2
v -0.7 0.1 0.2
v -0.6 0.1 0.2
v -0.5 0.1 0.2
v -0.4 0.1 0.2
v -0.9 0.1 0.1
v -0.8 0.1 0.1
v -0.7 0.1 0.1
v -0.6 0.1 0.1
v -0.5 0.1 0.1
v -0.4 0.1 0.1
v -0.3 0.1 0.1
v -0.8 0.1 0
v -0.7 0.1 0
v -0.6 0.1 0
v -0.5 0.1 0
v -0.4 0.1 0
v -0.3 0.1 0
v -0.2 0.1 0
v -0.7 0.1 -0.1
v -0.6 0.1 -0.1
v -0.5 0.1 -0.1
v -0.4 0.1 -0.1
v -0.3 0.1 -0.1
v -0.2 0.1 -0.1
v -0.0999999 0.1 -0.1
v -0.6 0.1 -0.2
v -0.5 0.1 -0.2
v -0.4 0.1 -0.2
v -0.3 0.1 -0.2
v -0.2 0.1 -0.2
v -0.0999999 0.1 -0.2
v 1.19209e-07 0.1 -0.2
v 0.3 0.1 -0.2
v 0.5 0.1 -0.2
v -0.5 0.1 -0.3
v -0.4 0.1 -0.3
v -0.3 0.1 -0.3
v -0.2 0.1 -0.3
v -0.0999999 0.1 -0.3
v 1.19209e-07 0.1 -0.3
v 0.1 0.1 -0.3
v 0.2 0.1 -0.3
v 0.3 0.1 -0.3
v 0.4 0.1 -0.3
v -0.4 0.1 -0.4
v -0.3 0.1 -0.4
v -0.2 0.1 -0.4
v -0.0999999 0.1 -0.4
v 1.19209e-07 0.1 -0.4
v 0.1 0.1 -0.4
v 0.2 0.1 -0.4
v 0.3 0.1 -0.4
v 0.4 0.1 -0.4
v 0.5 0.1 -0.4
v -0.3 0.1 -0.5
v -0.2 0.1 -0.5
v -0.0999999 0.1 -0.5
v 1.19209e-07 0.1 -0.5
v 0.1 0.1 -0.5
v -0.2 0.1 -0.6
v -0.0999999 0.1 -0.6
v 1.19209e-07 0.1 -0.6
v 0.1 0.1 -0.6
v 0.2 0.1 -0.6
v 0.3 0.1 -0.6
v 0.4 0.1 -0.6
v -0.2 0.1 -0.7
v -0.0999999 0.1 -0.7
v 0.1 0.1 -0.7
v 0.2 0.1 -0.7
v 0.3 0.1 -0.7
v 0.4 0.1 -0.7
v -0.3 0.1 -0.8
v -0.2 0.1 -0.8
v -0.0999999 0.1 -0.8
v 0.1 0.1 -0.8
v 0.2 0.1 -0.8
v 0.3 0.1 -0.8
v 0.4 0.1 -0.8
v 0.5 0.1 -0.8
v -0.2 0.1 -0.9
v -0.0999999 0.1 -0.9
v 0.1 0.1 -0.9
v 0.2 0.1 -0.9
v 0.3 0.1 -0.9
v 0.4 0.1 -0.9
v 0.5 0.1 -0.9
v 0.7 0.1 -0.9
v -0.3 0.1 -1
v -0.0999999 0.1 -1
v 0.3 0.1 -1
v 0.4 0.1 -1
v 0.5 0.1 -1
v 0.6 0.1 -1
v 0.5 0.1 -1.1
v 0.6 0.1 -1.1
v 0.4 0.1 -1.2
v 0.7 0.1 -1.2

# faces
f 3/7/1 2/7/1 1/7/1
f 4/7/1 2/7/1 3/7/1
f 7/7/1 6/7/1 5/7/1
f 8/7/1 6/7/1 7/7/1
f 11/7/1 10/7/1 9/7/1
f 12/7/1 10/7/1 11/7/1
f 15/7/1 14/7/1 13/7/1
f 16/7/1 14/7/1 15/7/1
f 19/7/1 18/7/1 17/7/1
f 20/7/1 18/7/1 19/7/1
f 23/7/1 22/7/1 21/7/1
f 24/7/1 22/7/1 23/7/1
f 27/7/1 26/7/1 25/7/1
f 28/7/1 26/7/1 27/7/1
f 33/7/1 30/7/1 29/7/1
f 34/7/1 30/7/1 33/7/1
f 35/7/1 32/7/1 31/7/1
f 36/7/1 32/7/1 35/7/1
f 41/7/1 38/7/1 37/7/1
f 42/7/1 38/7/1 41/7/1
f 43/7/1 40/7/1 39/7/1
f 44/7/1 40/7/1 43/7/1
f 47/7/1 46/7/1 45/7/1
f 48/7/1 46/7/1 47/7/1
f 53/7/1 50/7/1 49/7/1
f 54/7/1 50/7/1 53/7/1
f 55/2/1 52/2/1 51/2/1
f 56/2/1 52/2/1 55/2/1
f 61/7/1 58/7/1 57/7/1
f 62/7/1 58/7/1 61/7/1
f 63/2/1 60/2/1 59/2/1
f 64/2/1 60/2/1 63/2/1
f 67/7/1 66/7/1 65/7/1
f 68/7/1 66/7/1 67/7/1
f 69/7/2 70/7/2 71/7/2
f 71/7/2 70/7/2 72/7/2
f 73/7/2 74/7/2 75/7/2
f 75/7/2 74/7/2 76/7/2
f 77/7/2 78/7/2 79/7/2
f 79/7/2 78/7/2 80/7/2
f 81/7/2 82/7/2 83/7/2
f 83/7/2 82/7/2 84/7/2
f 85/7/2 86/7/2 87/7/2
f 87/7/2 86/7/2 88/7/2
f 89/7/2 90/7/2 91/7/2
f 91/7/2 90/7/2 92/7/2
f 93/7/2 94/7/2 97/7/2
f 97/7/2 94/7/2 98/7/2
f 95/7/2 96/7/2 99/7/2
f 99/7/2 96/7/2 100/7/2
f 101/7/2 102/7/2 103/7/2
f 103/7/2 102/7/2 104/7/2
f 105/7/2 106/7/2 109/7/2
f 109/7/2 106/7/2 110/7/2
f 107/7/2 108/7/2 111/7/2
f 111/7/2 108/7/2 112/7/2
f 113/7/2 114/7/2 115/7/2
f 115/7/2 114/7/2 116/7/2
f 117/7/2 118/7/2 121/7/2
f 121/7/2 118/7/2 122/7/2
f 119/1/2 120/1/2 123/1/2
f 123/1/2 120/1/2 124/1/2
f 125/7/2 126/7/2 129/7/2
f 129/7/2 126/7/2 130/7/2
f 127/1/2 128/1/2 131/1/2
f 131/1/2 128/1/2 132/1/2
f 133/7/2 134/7/2 135/7/2
f 135/7/2 134/7/2 136/7/2
f 139/7/3 138/7/3 137/7/3
f 140/7/3 138/7/3 139/7/3
f 143/7/3 142/7/3 141/7/3
f 144/7/3 142/7/3 143/7/3
f 147/7/3 146/7/3 145/7/3
f 148/7/3 146/7/3 147/7/3
f 151/7/3 150/7/3 149/7/3
f 152/7/3 150/7/3 151/7/3
f 155/7/3 154/7/3 153/7/3
f 156/7/3 154/7/3 155/7/3
f 159/7/3 158/7/3 157/7/3
f 160/7/3 158/7/3 159/7/3
f 163/7/3 162/7/3 161/7/3
f 164/7/3 162/7/3 163/7/3
f 167/7/3 166/7/3 165/7/3
f 168/7/3 166/7/3 167/7/3
f 171/7/3 170/7/3 169/7/3
f 172/7/3 170/7/3 171/7/3
f 175/7/3 174/7/3 173/7/3
f 176/7/3 174/7/3 175/7/3
f 179/7/3 178/7/3 177/7/3
f 180/7/3 178/7/3 179/7/3
f 183/7/3 182/7/3 181/7/3
f 184/7/3 182/7/3 183/7/3
f 187/7/3 186/7/3 185/7/3
f 188/7/3 186/7/3 187/7/3
f 191/1/3 190/1/3 189/1/3
f 192/1/3 190/1/3 191/1/3
f 195/7/3 194/7/3 193/7/3
f 196/7/3 194/7/3 195/7/3
f 199/1/3 198/1/3 197/1/3
f 200/1/3 198/1/3 199/1/3
f 203/7/3 202/7/3 201/7/3
f 204/7/3 202/7/3 203/7/3
f 205/7/4 206/7/4 207/7/4
f 207/7/4 206/7/4 208/7/4
f 209/7/4 210/7/4 211/7/4
f 211/7/4 210/7/4 212/7/4
f 213/7/4 214/7/4 215/7/4
f 215/7/4 214/7/4 216/7/4
f 217/7/4 218/7/4 219/7/4
f 219/7/4 218/7/4 220/7/4
f 221/7/4 222/7/4 223/7/4
f 223/7/4 222/7/4 224/7/4
f 225/7/4 226/7/4 227/7/4
f 227/7/4 226/7/4 228/7/4
f 229/7/4 230/7/4 231/7/4
f 231/7/4 230/7/4 232/7/4
f 233/7/4 234/7/4 235/7/4
f 235/7/4 234/7/4 236/7/4
f 237/7/4 238/7/4 239/7/4
f 239/7/4 238/7/4 240/7/4
f 241/7/4 242/7/4 243/7/4
f 243/7/4 242/7/4 244/7/4
f 245/7/4 246/7/4 247/7/4
f 247/7/4 246/7/4 248/7/4
f 249/7/4 250/7/4 251/7/4
f 251/7/4 250/7/4 252/7/4
f 253/7/4 254/7/4 255/7/4
f 255/7/4 254/7/4 256/7/4
f 257/2/4 258/2/4 259/2/4
f 259/2/4 258/2/4 260/2/4
f 261/7/4 262/7/4 263/7/4
f 263/7/4 262/7/4 264/7/4
f 265/2/4 266/2/4 267/2/4
f 267/2/4 266/2/4 268/2/4
f 269/7/4 270/7/4 271/7/4
f 271/7/4 270/7/4 272/7/4
f 275/7/5 274/7/5 273/7/5
f 276/7/5 274/7/5 275/7/5
f 277/7/5 274/7/5 276/7/5
f 279/7/5 275/7/5 273/7/5
f 279/4/5 276/4/5 275/4/5
f 280/5/5 277/5/5 276/5/5
f 280/4/5 276/4/5 279/4/5
f 281/7/5 278/7/5 277/7/5
f 281/5/5 277/5/5 280/5/5
f 282/7/5 278/7/5 281/7/5
f 284/7/5 279/7/5 273/7/5
f 285/5/5 280/5/5 279/5/5
f 285/7/5 279/7/5 284/7/5
f 286/4/5 281/4/5 280/4/5
f 286/5/5 280/5/5 285/5/5
f 287/5/5 282/5/5 281/5/5
f 287/4/5 281/4/5 286/4/5
f 288/7/5 283/7/5 282/7/5
f 288/5/5 282/5/5 287/5/5
f 289/7/5 283/7/5 288/7/5
f 291/7/5 286/7/5 285/7/5
f 292/5/5 287/5/5 286/5/5
f 292/7/5 286/7/5 291/7/5
f 293/4/5 288/4/5 287/4/5
f 293/5/5 287/5/5 292/5/5
f 294/5/5 289/5/5 288/5/5
f 294/4/5 288/4/5 293/4/5
f 295/7/5 290/7/5 289/7/5
f 295/5/5 289/5/5 294/5/5
f 296/7/5 290/7/5 295/7/5
f 298/7/5 293/7/5 292/7/5
f 299/5/5 294/5/5 293/5/5
f 299/7/5 293/7/5 298/7/5
f 300/4/5 295/4/5 294/4/5
f 300/5/5 294/5/5 299/5/5
f 301/5/5 296/5/5 295/5/5
f 301/4/5 295/4/5 300/4/5
f 302/7/5 297/7/5 296/7/5
f 302/5/5 296/5/5 301/5/5
f 303/7/5 297/7/5 302/7/5
f 305/7/5 300/7/5 299/7/5
f 306/5/5 301/5/5 300/5/5
f 306/7/5 300/7/5 305/7/5
f 307/4/5 302/4/5 301/4/5
f 307/5/5 301/5/5 306/5/5
f 308/5/5 303/5/5 302/5/5
f 308/4/5 302/4/5 307/4/5
f 309/7/5 304/7/5 303/7/5
f 309/5/5 303/5/5 308/5/5
f 310/7/5 304/7/5 309/7/5
f 312/7/5 307/7/5 306/7/5
f 313/5/5 308/5/5 307/5/5
f 313/7/5 307/7/5 312/7/5
f 314/4/5 309/4/5 308/4/5
f 314/5/5 308/5/5 313/5/5
f 315/5/5 310/5/5 309/5/5
f 315/4/5 309/4/5 314/4/5
f 316/7/5 311/7/5 310/7/5
f 316/5/5 310/5/5 315/5/5
f 317/7/5 311/7/5 316/7/5
f 321/7/5 314/7/5 313/7/5
f 322/5/5 315/5/5 314/5/5
f 322/7/5 314/7/5 321/7/5
f 323/4/5 316/4/5 315/4/5
f 323/5/5 315/5/5 322/5/5
f 324/5/5 317/5/5 316/5/5
f 324/4/5 316/4/5 323/4/5
f 325/7/5 318/7/5 317/7/5
f 325/5/5 317/5/5 324/5/5
f 326/7/5 318/7/5 325/7/5
f 329/7/5 320/7/5 319/7/5
f 330/7/5 320/7/5 329/7/5
f 331/7/5 323/7/5 322/7/5
f 332/5/5 324/5/5 323/5/5
f 332/7/5 323/7/5 331/7/5
f 333/4/5 325/4/5 324/4/5
f 333/5/5 324/5/5 332/5/5
f 334/5/5 326/5/5 325/5/5
f 334/4/5 325/4/5 333/4/5
f 335/7/5 327/7/5 326/7/5
f 335/5/5 326/5/5 334/5/5
f 336/7/5 327/7/5 335/7/5
f 337/7/5 329/7/5 328/7/5
f 338/6/5 330/6/5 329/6/5
f 338/7/5 329/7/5 337/7/5
f 339/7/5 320/7/5 330/7/5
f 339/6/5 330/6/5 338/6/5
f 340/7/5 320/7/5 339/7/5
f 341/7/5 333/7/5 332/7/5
f 342/5/5 334/5/5 333/5/5
f 342/7/5 333/7/5 341/7/5
f 343/4/5 335/4/5 334/4/5
f 343/5/5 334/5/5 342/5/5
f 344/5/5 336/5/5 335/5/5
f 344/4/5 335/4/5 343/4/5
f 345/7/5 337/7/5 336/7/5
f 345/5/5 336/5/5 344/5/5
f 346/7/5 343/7/5 342/7/5
f 347/5/5 344/5/5 343/5/5
f 347/7/5 343/7/5 346/7/5
f 348/4/5 345/4/5 344/4/5
f 348/5/5 344/5/5 347/5/5
f 349/7/5 337/7/5 345/7/5
f 349/4/5 345/4/5 348/4/5
f 350/6/5 338/6/5 337/6/5
f 350/7/5 337/7/5 349/7/5
f 351/7/5 339/7/5 338/7/5
f 351/6/5 338/6/5 350/6/5
f 352/7/5 339/7/5 351/7/5
f 354/7/5 349/7/5 348/7/5
f 354/7/5 348/7/5 347/7/5
f 355/6/5 350/6/5 349/6/5
f 355/7/5 349/7/5 354/7/5
f 356/7/5 351/7/5 350/7/5
f 356/6/5 350/6/5 355/6/5
f 357/7/5 351/7/5 356/7/5
f 360/7/5 354/7/5 353/7/5
f 361/6/5 355/6/5 354/6/5
f 361/7/5 354/7/5 360/7/5
f 362/7/5 356/7/5 355/7/5
f 362/6/5 355/6/5 361/6/5
f 363/3/5 357/3/5 356/3/5
f 363/7/5 356/7/5 362/7/5
f 364/1/5 358/1/5 357/1/5
f 364/3/5 357/3/5 363/3/5
f 365/1/5 358/1/5 364/1/5
f 367/7/5 360/7/5 359/7/5
f 367/6/5 361/6/5 360/6/5
f 368/7/5 362/7/5 361/7/5
f 368/6/5 361/6/5 367/6/5
f 369/7/5 362/7/5 368/7/5
f 370/2/5 364/2/5 363/2/5
f 371/3/5 365/3/5 364/3/5
f 371/2/5 364/2/5 370/2/5
f 372/1/5 366/1/5 365/1/5
f 372/3/5 365/3/5 371/3/5
f 373/1/5 366/1/5 372/1/5
f 375/7/5 367/7/5 359/7/5
f 375/7/5 368/7/5 367/7/5
f 376/7/5 368/7/5 375/7/5
f 377/2/5 372/2/5 371/2/5
f 378/3/5 373/3/5 372/3/5
f 378/2/5 372/2/5 377/2/5
f 379/7/5 374/7/5 373/7/5
f 379/3/5 373/3/5 378/3/5
f 380/7/5 374/7/5 379/7/5
f 381/6/5 380/6/5 379/6/5
f 381/7/5 379/7/5 378/7/5
f 382/7/5 374/7/5 380/7/5
f 382/6/5 380/6/5 381/6/5
f 383/7/5 381/7/5 378/7/5
f 383/7/5 382/7/5 381/7/5
f 384/7/5 374/7/5 382/7/5
f 384/7/5 382/7/5 383/7/5
f 385/7/6 386/7/6 387/7/6
f 387/7/6 386/7/6 388/7/6
f 388/7/6 386/7/6 389/7/6
f 385/7/6 387/7/6 391/7/6
f 387/4/6 388/4/6 391/4/6
f 388/5/6 389/5/6 392/5/6
f 391/4/6 388/4/6 392/4/6
f 389/7/6 390/7/6 393/7/6
f 392/5/6 389/5/6 393/5/6
f 393/7/6 390/7/6 394/7/6
f 385/7/6 391/7/6 396/7/6
f 391/5/6 392/5/6 397/5/6
f 396/7/6 391/7/6 397/7/6
f 392/4/6 393/4/6 398/4/6
f 397/5/6 392/5/6 398/5/6
f 393/5/6 394/5/6 399/5/6
f 398/4/6 393/4/6 399/4/6
f 394/7/6 395/7/6 400/7/6
f 399/5/6 394/5/6 400/5/6
f 400/7/6 395/7/6 401/7/6
f 397/7/6 398/7/6 403/7/6
f 398/5/6 399/5/6 404/5/6
f 403/7/6 398/7/6 404/7/6
f 399/4/6 400/4/6 405/4/6
f 404/5/6 399/5/6 405/5/6
f 400/5/6 401/5/6 406/5/6
f 405/4/6 400/4/6 406/4/6
f 401/7/6 402/7/6 407/7/6
f 406/5/6 401/5/6 407/5/6
f 407/7/6 402/7/6 408/7/6
f 404/7/6 405/7/6 410/7/6
f 405/5/6 406/5/6 411/5/6
f 410/7/6 405/7/6 411/7/6
f 406/4/6 407/4/6 412/4/6
f 411/5/6 406/5/6 412/5/6
f 407/5/6 408/5/6 413/5/6
f 412/4/6 407/4/6 413/4/6
f 408/7/6 409/7/6 414/7/6
f 413/5/6 408/5/6 414/5/6
f 414/7/6 409/7/6 415/7/6
f 411/7/6 412/7/6 417/7/6
f 412/5/6 413/5/6 418/5/6
f 417/7/6 412/7/6 418/7/6
f 413/4/6 414/4/6 419/4/6
f 418/5/6 413/5/6 419/5/6
f 414/5/6 415/5/6 420/5/6
f 419/4/6 414/4/6 420/4/6
f 415/7/6 416/7/6 421/7/6
f 420/5/6 415/5/6 421/5/6
f 421/7/6 416/7/6 422/7/6
f 418/7/6 419/7/6 424/7/6
f 419/5/6 420/5/6 425/5/6
f 424/7/6 419/7/6 425/7/6
f 420/4/6 421/4/6 426/4/6
f 425/5/6 420/5/6 426/5/6
f 421/5/6 422/5/6 427/5/6
f 426/4/6 421/4/6 427/4/6
f 422/7/6 423/7/6 428/7/6
f 427/5/6 422/5/6 428/5/6
f 428/7/6 423/7/6 429/7/6
f 425/7/6 426/7/6 433/7/6
f 426/5/6 427/5/6 434/5/6
f 433/7/6 426/7/6 434/7/6
f 427/4/6 428/4/6 435/4/6
f 434/5/6 427/5/6 435/5/6
f 428/5/6 429/5/6 436/5/6
f 435/4/6 428/4/6 436/4/6
f 429/7/6 430/7/6 437/7/6
f 436/5/6 429/5/6 437/5/6
f 437/7/6 430/7/6 438/7/6
f 431/7/6 432/7/6 441/7/6
f 441/7/6 432/7/6 442/7/6
f 434/7/6 435/7/6 443/7/6
f 435/5/6 436/5/6 444/5/6
f 443/7/6 435/7/6 444/7/6
f 436/4/6 437/4/6 445/4/6
f 444/5/6 436/5/6 445/5/6
f 437/5/6 438/5/6 446/5/6
f 445/4/6 437/4/6 446/4/6
f 438/7/6 439/7/6 447/7/6
f 446/5/6 438/5/6 447/5/6
f 447/7/6 439/7/6 448/7/6
f 440/7/6 441/7/6 449/7/6
f 441/6/6 442/6/6 450/6/6
f 449/7/6 441/7/6 450/7/6
f 442/7/6 432/7/6 451/7/6
f 450/6/6 442/6/6 451/6/6
f 451/7/6 432/7/6 452/7/6
f 444/7/6 445/7/6 453/7/6
f 445/5/6 446/5/6 454/5/6
f 453/7/6 445/7/6 454/7/6
f 446/4/6 447/4/6 455/4/6
f 454/5/6 446/5/6 455/5/6
f 447/5/6 448/5/6 456/5/6
f 455/4/6 447/4/6 456/4/6
f 448/7/6 449/7/6 457/7/6
f 456/5/6 448/5/6 457/5/6
f 454/7/6 455/7/6 458/7/6
f 455/5/6 456/5/6 459/5/6
f 458/7/6 455/7/6 459/7/6
f 456/4/6 457/4/6 460/4/6
f 459/5/6 456/5/6 460/5/6
f 457/7/6 449/7/6 461/7/6
f 460/4/6 457/4/6 461/4/6
f 449/6/6 450/6/6 462/6/6
f 461/7/6 449/7/6 462/7/6
f 450/7/6 451/7/6 463/7/6
f 462/6/6 450/6/6 463/6/6
f 463/7/6 451/7/6 464/7/6
f 460/7/6 461/7/6 466/7/6
f 459/7/6 460/7/6 466/7/6
f 461/6/6 462/6/6 467/6/6
f 466/7/6 461/7/6 467/7/6
f 462/7/6 463/7/6 468/7/6
f 467/6/6 462/6/6 468/6/6
f 468/7/6 463/7/6 469/7/6
f 465/7/6 466/7/6 472/7/6
f 466/6/6 467/6/6 473/6/6
f 472/7/6 466/7/6 473/7/6
f 467/7/6 468/7/6 474/7/6
f 473/6/6 467/6/6 474/6/6
f 468/3/6 469/3/6 475/3/6
f 474/7/6 468/7/6 475/7/6
f 469/1/6 470/1/6 476/1/6
f 475/3/6 469/3/6 476/3/6
f 476/1/6 470/1/6 477/1/6
f 471/7/6 472/7/6 479/7/6
f 472/6/6 473/6/6 479/6/6
f 473/7/6 474/7/6 480/7/6
f 479/6/6 473/6/6 480/6/6
f 480/7/6 474/7/6 481/7/6
f 475/2/6 476/2/6 482/2/6
f 476/3/6 477/3/6 483/3/6
f 482/2/6 476/2/6 483/2/6
f 477/1/6 478/1/6 484/1/6
f 483/3/6 477/3/6 484/3/6
f 484/1/6 478/1/6 485/1/6
f 471/7/6 479/7/6 487/7/6
f 479/7/6 480/7/6 487/7/6
f 487/7/6 480/7/6 488/7/6
f 483/2/6 484/2/6 489/2/6
f 484/3/6 485/3/6 490/3/6
f 489/2/6 484/2/6 490/2/6
f 485/7/6 486/7/6 491/7/6
f 490/3/6 485/3/6 491/3/6
f 491/7/6 486/7/6 492/7/6
f 491/6/6 492/6/6 493/6/6
f 490/7/6 491/7/6 493/7/6
f 492/7/6 486/7/6 494/7/6
f 493/6/6 492/6/6 494/6/6
f 490/7/6 493/7/6 495/7/6
f 493/7/6 494/7/6 495/7/6
f 494/7/6 486/7/6 496/7/6
f 495/7/6 494/7/6 496/7/6
